{
.appVersion = "122";
copyright = "Copyright © 2025 by Thomas Nicholson";
customParameters = (
{
name = vendorID;
value = "TN  ";
},
{
name = panose;
value = (
0,
0,
0,
0,
0,
0,
0,
0,
0,
0
);
},
{
name = fsType;
value = (
2
);
},
{
name = blueShift;
value = 0;
},
{
name = familyName;
value = "Plainsound Text";
},
{
name = postscriptFontName;
value = "PlainsoundText-Regular";
},
{
name = postscriptFullName;
value = "Plainsound Text Regular";
},
{
name = license;
value = "SIL Open Font License Version 1.1 with reserved font name";
}
);
date = "2002-01-15 12:20:35 +0000";
designer = "Thomas Nicholson";
designerURL = www.superparticular.com;
familyName = "Plainsound Text";
featurePrefixes = (
{
automatic = 1;
code = "languagesystem DFLT dflt;\012languagesystem latn dflt;\012languagesystem latn ROM;\012languagesystem latn MOL;\012languagesystem latn KAZ;\012languagesystem latn TAT;\012languagesystem latn TRK;\012languagesystem latn CRT;\012languagesystem latn AZE;\012";
name = Languagesystems;
}
);
features = (
{
automatic = 1;
code = "feature locl;\012feature frac;\012feature ordn;\012";
name = aalt;
},
{
automatic = 1;
code = "script latn;\012language ROM;\012sub Scedilla by Scommaaccent;\012sub scedilla by scommaaccent;\012sub Tcedilla by Tcommaaccent;\012sub tcedilla by tcommaaccent;\012language MOL;\012sub Scedilla by Scommaaccent;\012sub scedilla by scommaaccent;\012sub Tcedilla by Tcommaaccent;\012sub tcedilla by tcommaaccent;\012language KAZ;\012sub i by idotaccent;\012language TAT;\012sub i by idotaccent;\012language TRK;\012sub i by idotaccent;\012language CRT;\012sub i by idotaccent;\012language AZE;\012sub i by idotaccent;\012";
name = locl;
},
{
automatic = 1;

glyphs = (
{
color = 3;
glyphname = A;
lastChange = "2025-02-14 18:34:36 +0000";
layers = (
{
anchors = (
{
name = bottom;
position = "{245, 0}";
},
{
name = ogonek;
position = "{505, 0}";
},
{
name = top;
position = "{347, 727}";
}
);
background = {
paths = (
{
closed = 1;
nodes = (
"540 0 LINE",
"338 727 LINE",
"262 727 LINE",
"468 0 LINE"
);
},
{
closed = 1;
nodes = (
"451 174 LINE",
"451 244 LINE",
"112 244 LINE",
"112 174 LINE"
);
},
{
closed = 1;
nodes = (
"92 0 LINE",
"298 727 LINE",
"222 727 LINE",
"20 0 LINE"
);
}
);
};
layerId = m01;
paths = (
{
closed = 1;
nodes = (
"504 0 LINE",
"404 727 LINE",
"288 727 LINE",
"-16 0 LINE",
"57 0 LINE",
"130 174 LINE",
"408 174 LINE",
"433 0 LINE"
);
},
{
closed = 1;
nodes = (
"338 663 LINE",
"398 244 LINE",
"160 244 LINE"
);
}
);
vertWidth = 1200;
width = 560;
}
);
leftKerningGroup = A;
note = A;
rightKerningGroup = A;
unicode = 0041;
},
{
color = 11;
glyphname = Aacute;
lastChange = "2025-02-14 18:34:36 +0000";
layers = (
{
anchors = (
{
name = bottom;
position = "{245, 0}";
},
{
name = ogonek;
position = "{505, 0}";
},
{
name = top;
position = "{378, 949}";
}
);
layerId = m01;
paths = (
{
closed = 1;
nodes = (
"504 0 LINE",
"404 727 LINE",
"288 727 LINE",
"-16 0 LINE",
"57 0 LINE",
"130 174 LINE",
"408 174 LINE",
"433 0 LINE"
);
},
{
closed = 1;
nodes = (
"338 663 LINE",
"398 244 LINE",
"160 244 LINE"
);
},
{
closed = 1;
nodes = (
"392 808 LINE",
"532 949 LINE",
"432 949 LINE",
"323 808 LINE"
);
}
);
width = 560;
}
);
leftKerningGroup = A;
rightKerningGroup = A;
unicode = 00C1;
},
{
color = 11;
glyphname = Abreve;
lastChange = "2025-02-14 18:35:57 +0000";
layers = (
{
anchors = (
{
name = bottom;
position = "{245, 0}";
},
{
name = ogonek;
position = "{505, 0}";
},
{
name = top;
position = "{375, 926}";
}
);
hints = (
{
horizontal = 1;
place = "{785, 28}";
type = Stem;
},
{
place = "{312, 28}";
type = Stem;
},
{
place = "{115, 28}";
type = Stem;
}
);
layerId = m01;
paths = (
{
closed = 1;
nodes = (
"504 0 LINE",
"404 727 LINE",
"288 727 LINE",
"-16 0 LINE",
"57 0 LINE",
"130 174 LINE",
"408 174 LINE",
"433 0 LINE"
);
},
{
closed = 1;
nodes = (
"338 663 LINE",
"398 244 LINE",
"160 244 LINE"
);
},
{
closed = 1;
nodes = (
"259 919 OFFCURVE",
"259 911 OFFCURVE",
"259 904 CURVE SMOOTH",
"259 829 OFFCURVE",
"287 808 OFFCURVE",
"361 808 CURVE SMOOTH",
"441 808 OFFCURVE",
"469 828 OFFCURVE",
"488 924 CURVE",
"421 928 LINE",
"409 873 OFFCURVE",
"395 860 OFFCURVE",
"361 860 CURVE SMOOTH",
"335 860 OFFCURVE",
"326 872 OFFCURVE",
"329 924 CURVE",
"260 928 LINE"
);
}
);
width = 560;
}
);
leftKerningGroup = A;
rightKerningGroup = A;
unicode = 0102;
},
{
color = 11;
glyphname = Acircumflex;
lastChange = "2025-02-14 18:34:36 +0000";
layers = (
{
anchors = (
{
name = bottom;
position = "{245, 0}";
},
{
name = ogonek;
position = "{505, 0}";
},
{
name = top;
position = "{378, 949}";
}
);
layerId = m01;
paths = (
{
closed = 1;
nodes = (
"504 0 LINE",
"404 727 LINE",
"288 727 LINE",
"-16 0 LINE",
"57 0 LINE",
"130 174 LINE",
"408 174 LINE",
"433 0 LINE"
);
},
{
closed = 1;
nodes = (
"303 808 LINE",
"372 902 LINE",
"415 808 LINE",
"488 808 LINE",
"418 949 LINE",
"336 949 LINE",
"226 808 LINE"
);
},
{
closed = 1;
nodes = (
"338 663 LINE",
"398 244 LINE",
"160 244 LINE"
);
}
);
width = 560;
}
);
leftKerningGroup = A;
rightKerningGroup = A;
unicode = 00C2;
},
{
color = 11;
glyphname = Adieresis;
lastChange = "2025-02-14 18:34:36 +0000";
layers = (
{
anchors = (
{
name = bottom;
position = "{245, 0}";
},
{
name = ogonek;
position = "{505, 0}";
},
{
name = top;
position = "{370, 896}";
}
);
hints = (
{
horizontal = 1;
place = "{798, 48}";
type = Stem;
},
{
place = "{295, 45}";
type = Stem;
},
{
place = "{115, 45}";
type = Stem;
},
{
horizontal = 1;
place = "{798, 48}";
type = Stem;
},
{
place = "{284, 45}";
type = Stem;
},
{
place = "{104, 45}";
type = Stem;
}
);
layerId = m01;
paths = (
{
closed = 1;
nodes = (
"504 0 LINE",
"404 727 LINE",
"288 727 LINE",
"-16 0 LINE",
"57 0 LINE",
"130 174 LINE",
"408 174 LINE",
"433 0 LINE"
);
},
{
closed = 1;
nodes = (
"309 813 LINE",
"320 896 LINE",
"240 896 LINE",
"229 813 LINE"
);
},
{
closed = 1;
nodes = (
"338 663 LINE",
"398 244 LINE",
"160 244 LINE"
);
},
{
closed = 1;
nodes = (
"489 813 LINE",
"500 896 LINE",
"420 896 LINE",
"409 813 LINE"
);
}
);
width = 560;
}
);
leftKerningGroup = A;
rightKerningGroup = A;
unicode = 00C4;
},
{
color = 11;
glyphname = Agrave;
lastChange = "2025-02-14 18:34:36 +0000";
layers = (
{
anchors = (
{
name = bottom;
position = "{245, 0}";
},
{
name = ogonek;
position = "{505, 0}";
},
{
name = top;
position = "{378, 949}";
}
);
layerId = m01;
paths = (
{
closed = 1;
nodes = (
"504 0 LINE",
"404 727 LINE",
"288 727 LINE",
"-16 0 LINE",
"57 0 LINE",
"130 174 LINE",
"408 174 LINE",
"433 0 LINE"
);
},
{
closed = 1;
nodes = (
"326 808 LINE",
"391 808 LINE",
"322 949 LINE",
"224 949 LINE"
);
},
{
closed = 1;
nodes = (
"338 663 LINE",
"398 244 LINE",
"160 244 LINE"
);
}
);
width = 560;
}
);
leftKerningGroup = A;
rightKerningGroup = A;
unicode = 00C0;
},
{
color = 11;
glyphname = Amacron;
lastChange = "2025-02-14 18:34:36 +0000";
layers = (
{
anchors = (
{
name = bottom;
position = "{245, 0}";
},
{
name = ogonek;
position = "{505, 0}";
},
{
name = top;
position = "{367, 869}";
}
);
hints = (
{
horizontal = 1;
place = "{795, 26}";
type = Stem;
},
{
place = "{141, 172}";
type = Stem;
},
{
horizontal = 1;
place = "{795, 26}";
type = Stem;
},
{
place = "{131, 172}";
type = Stem;
}
);
layerId = m01;
paths = (
{
closed = 1;
nodes = (
"504 0 LINE",
"404 727 LINE",
"288 727 LINE",
"-16 0 LINE",
"57 0 LINE",
"130 174 LINE",
"408 174 LINE",
"433 0 LINE"
);
},
{
closed = 1;
nodes = (
"338 663 LINE",
"398 244 LINE",
"160 244 LINE"
);
},
{
closed = 1;
nodes = (
"462 808 LINE",
"471 869 LINE",
"263 869 LINE",
"254 808 LINE"
);
}
);
width = 560;
}
);
leftKerningGroup = A;
rightKerningGroup = A;
unicode = 0100;
},
{
color = 11;
glyphname = Aogonek;
lastChange = "2025-02-14 18:35:57 +0000";
layers = (
{
anchors = (
{
name = bottom;
position = "{245, 0}";
},
{
name = ogonek;
position = "{505, 0}";
},
{
name = top;
position = "{347, 727}";
}
);
layerId = m01;
paths = (
{
closed = 1;
nodes = (
"438 1 LINE",
"389 -34 OFFCURVE",
"373 -62 OFFCURVE",
"373 -109 CURVE SMOOTH",
"373 -164 OFFCURVE",
"414 -188 OFFCURVE",
"474 -188 CURVE SMOOTH",
"486 -188 OFFCURVE",
"500 -187 OFFCURVE",
"514 -185 CURVE",
"520 -124 LINE",
"511 -127 OFFCURVE",
"502 -129 OFFCURVE",
"491 -129 CURVE SMOOTH",
"464 -129 OFFCURVE",
"437 -117 OFFCURVE",
"437 -91 CURVE SMOOTH",
"437 -60 OFFCURVE",
"462 -31 OFFCURVE",
"506 -1 CURVE",
"404 727 LINE",
"288 727 LINE",
"-16 0 LINE",
"57 0 LINE",
"130 174 LINE",
"408 174 LINE",
"433 0 LINE"
);
},
{
closed = 1;
nodes = (
"338 663 LINE",
"398 244 LINE",
"160 244 LINE"
);
}
);
width = 560;
}
);
leftKerningGroup = A;
rightKerningGroup = A;
unicode = 0104;
},
{
color = 11;
glyphname = Aring;
lastChange = "2025-02-14 18:36:02 +0000";
layers = (
{
anchors = (
{
name = bottom;
position = "{245, 0}";
},
{
name = ogonek;
position = "{505, 0}";
},
{
name = top;
position = "{381, 970}";
}
);
hints = (
{
horizontal = 1;
place = "{906, 14}";
type = Stem;
},
{
horizontal = 1;
place = "{755, 14}";
type = Stem;
},
{
place = "{294, 13}";
type = Stem;
},
{
place = "{145, 13}";
type = Stem;
}
);
layerId = m01;
paths = (
{
closed = 1;
nodes = (
"504 0 LINE",
"404 727 LINE",
"288 727 LINE",
"-16 0 LINE",
"57 0 LINE",
"130 174 LINE",
"408 174 LINE",
"433 0 LINE"
);
},
{
closed = 1;
nodes = (
"338 663 LINE",
"398 244 LINE",
"160 244 LINE"
);
},
{
closed = 1;
nodes = (
"268 808 OFFCURVE",
"305 770 OFFCURVE",
"355 770 CURVE SMOOTH",
"413 772 OFFCURVE",
"457 816 OFFCURVE",
"464 867 CURVE SMOOTH",
"470 925 OFFCURVE",
"429 970 OFFCURVE",
"379 970 CURVE SMOOTH",
"313 970 OFFCURVE",
"268 916 OFFCURVE",
"268 859 CURVE SMOOTH"
);
},
{
closed = 1;
nodes = (
"320 898 OFFCURVE",
"346 921 OFFCURVE",
"377 921 CURVE SMOOTH",
"401 921 OFFCURVE",
"421 902 OFFCURVE",
"418 875 CURVE",
"413 844 OFFCURVE",
"386 819 OFFCURVE",
"356 819 CURVE SMOOTH",
"328 819 OFFCURVE",
"312 840 OFFCURVE",
"315 867 CURVE"
);
}
);
width = 560;
}
);
leftKerningGroup = A;
rightKerningGroup = A;
unicode = 00C5;
},
{
color = 11;
glyphname = Atilde;
lastChange = "2025-02-14 18:36:02 +0000";
layers = (
{
anchors = (
{
name = bottom;
position = "{245, 0}";
},
{
name = ogonek;
position = "{505, 0}";
},
{
name = top;
position = "{374, 924}";
}
);
layerId = m01;
paths = (
{
closed = 1;
nodes = (
"504 0 LINE",
"404 727 LINE",
"288 727 LINE",
"-16 0 LINE",
"57 0 LINE",
"130 174 LINE",
"408 174 LINE",
"433 0 LINE"
);
},
{
closed = 1;
nodes = (
"254 806 LINE",
"260 831 OFFCURVE",
"284 853 OFFCURVE",
"310 853 CURVE SMOOTH",
"345 853 OFFCURVE",
"367 815 OFFCURVE",
"414 815 CURVE SMOOTH",
"440 815 OFFCURVE",
"463 825 OFFCURVE",
"484 845 CURVE",
"503 865 OFFCURVE",
"517 893 OFFCURVE",
"524 922 CURVE",
"473 926 LINE",
"465 896 OFFCURVE",
"449 879 OFFCURVE",
"420 879 CURVE SMOOTH",
"380 879 OFFCURVE",
"375 916 OFFCURVE",
"319 916 CURVE SMOOTH",
"262 916 OFFCURVE",
"225 879 OFFCURVE",
"208 810 CURVE"
);
},
{
closed = 1;
nodes = (
"338 663 LINE",
"398 244 LINE",
"160 244 LINE"
);
}
);
width = 560;
}
);
leftKerningGroup = A;
rightKerningGroup = A;
unicode = 00C3;
},
{
glyphname = AE;
lastChange = "2025-02-14 18:34:36 +0000";
layers = (
{
anchors = (
{
name = bottom;
position = "{530, 0}";
},
{
name = ogonek;
position = "{710, 0}";
},
{
name = top;
position = "{631, 727}";
},
{
name = topleft;
position = "{395, 727}";
}
);
layerId = m01;
paths = (
{
closed = 1;
nodes = (
"62 0 LINE",
"148 174 LINE",
"374 174 LINE",
"350 0 LINE",
"710 0 LINE",
"719 70 LINE",
"435 70 LINE",
"473 336 LINE",
"730 336 LINE",
"740 406 LINE",
"483 406 LINE",
"518 657 LINE",
"799 657 LINE",
"809 727 LINE",
"338 727 LINE",
"-16 0 LINE"
);
},
{
closed = 1;
nodes = (
"386 657 LINE",
"442 657 LINE",
"384 244 LINE",
"182 244 LINE"
);
}
);
width = 790;
}
);
leftKerningGroup = A;
leftMetricsKey = A;
rightMetricsKey = E;
unicode = 00C6;
},
{
glyphname = B;
lastChange = "2025-02-14 18:36:02 +0000";
layers = (
{
anchors = (
{
name = bottom;
position = "{245, 0}";
},
{
name = top;
position = "{347, 727}";
}
);
background = {
paths = (
{
closed = 1;
nodes = (
"266 0 LINE SMOOTH",
"409 0 OFFCURVE",
"505 42 OFFCURVE",
"505 189 CURVE SMOOTH",
"505 310 OFFCURVE",
"439 357 OFFCURVE",
"327 382 CURVE",
"419 406 OFFCURVE",
"470 447 OFFCURVE",
"470 546 CURVE SMOOTH",
"470 677 OFFCURVE",
"402 727 OFFCURVE",
"271 727 CURVE SMOOTH",
"75 727 LINE",
"75 0 LINE"
);
},
{
closed = 1;
nodes = (
"151 344 LINE",
"245 344 LINE SMOOTH",
"362 344 OFFCURVE",
"429 301 OFFCURVE",
"429 192 CURVE SMOOTH",
"429 95 OFFCURVE",
"353 70 OFFCURVE",
"265 70 CURVE SMOOTH",
"151 70 LINE"
);
},
{
closed = 1;
nodes = (
"151 656 LINE",
"271 656 LINE SMOOTH",
"345 656 OFFCURVE",
"394 624 OFFCURVE",
"394 545 CURVE SMOOTH",
"394 460 OFFCURVE",
"339 414 OFFCURVE",
"251 414 CURVE SMOOTH",
"151 414 LINE"
);
},
{
closed = 1;
nodes = (
"324 366 LINE",
"340 366 LINE",
"340 397 LINE",
"324 397 LINE"
);
}
);
};
layerId = m01;
paths = (
{
closed = 1;
nodes = (
"232 0 LINE SMOOTH",
"375 0 OFFCURVE",
"475 40 OFFCURVE",
"495 185 CURVE SMOOTH",
"497 201 OFFCURVE",
"499 216 OFFCURVE",
"499 230 CURVE SMOOTH",
"499 318 OFFCURVE",
"453 362 OFFCURVE",
"366 379 CURVE",
"371 386 LINE",
"457 406 OFFCURVE",
"498 450 OFFCURVE",
"511 542 CURVE SMOOTH",
"513 557 OFFCURVE",
"514 571 OFFCURVE",
"514 584 CURVE SMOOTH",
"514 686 OFFCURVE",
"452 727 OFFCURVE",
"336 727 CURVE SMOOTH",
"142 727 LINE",
"40 0 LINE"
);
},
{
closed = 1;
nodes = (
"164 344 LINE",
"259 344 LINE SMOOTH",
"364 344 OFFCURVE",
"423 311 OFFCURVE",
"423 226 CURVE SMOOTH",
"423 217 OFFCURVE",
"423 207 OFFCURVE",
"421 196 CURVE",
"407 97 OFFCURVE",
"326 70 OFFCURVE",
"238 70 CURVE SMOOTH",
"125 70 LINE"
);
},
{
closed = 1;
nodes = (
"208 656 LINE",
"329 656 LINE SMOOTH",
"395 656 OFFCURVE",
"438 632 OFFCURVE",
"438 571 CURVE SMOOTH",
"438 564 OFFCURVE",
"437 557 OFFCURVE",
"436 549 CURVE SMOOTH",
"423 462 OFFCURVE",
"370 414 OFFCURVE",
"272 414 CURVE SMOOTH",
"174 414 LINE"
);
}
);
vertWidth = 1200;
width = 565;
}
);
leftMetricsKey = H;
note = B;
rightKerningGroup = O;
rightMetricsKey = O;
unicode = 0042;
},
{
glyphname = C;
lastChange = "2025-02-14 18:35:57 +0000";
layers = (
{
anchors = (
{
name = bottom;
position = "{230, 0}";
},
{
name = top;
position = "{332, 727}";
}
);
layerId = m01;
paths = (
{
closed = 1;
nodes = (
"398 216 LINE SMOOTH",
"383 112 OFFCURVE",
"332 57 OFFCURVE",
"234 57 CURVE SMOOTH",
"155 57 OFFCURVE",
"126 91 OFFCURVE",
"126 162 CURVE SMOOTH",
"126 177 OFFCURVE",
"128 194 OFFCURVE",
"130 212 CURVE SMOOTH",
"172 510 LINE SMOOTH",
"187 613 OFFCURVE",
"228 670 OFFCURVE",
"327 670 CURVE SMOOTH",
"410 670 OFFCURVE",
"444 636 OFFCURVE",
"444 560 CURVE SMOOTH",
"444 547 OFFCURVE",
"443 534 OFFCURVE",
"441 520 CURVE",
"516 516 LINE",
"518 532 OFFCURVE",
"519 548 OFFCURVE",
"519 562 CURVE SMOOTH",
"519 676 OFFCURVE",
"459 737 OFFCURVE",
"330 737 CURVE SMOOTH",
"186 737 OFFCURVE",
"117 659 OFFCURVE",
"96 512 CURVE SMOOTH",
"55 218 LINE SMOOTH",
"52 199 OFFCURVE",
"51 182 OFFCURVE",
"51 165 CURVE SMOOTH",
"51 56 OFFCURVE",
"109 -10 OFFCURVE",
"231 -10 CURVE SMOOTH",
"370 -10 OFFCURVE",
"454 72 OFFCURVE",
"474 214 CURVE SMOOTH",
"476 230 LINE",
"400 230 LINE"
);
}
);
vertWidth = 1200;
width = 524;
}
);
leftKerningGroup = O;
leftMetricsKey = O;
note = C;
rightKerningGroup = O;
rightMetricsKey = E;
unicode = 0043;
},
{
color = 11;
glyphname = Cacute;
lastChange = "2025-02-14 18:35:57 +0000";
layers = (
{
anchors = (
{
name = bottom;
position = "{230, 0}";
},
{
name = top;
position = "{363, 949}";
}
);
layerId = m01;
paths = (
{
closed = 1;
nodes = (
"398 216 LINE SMOOTH",
"383 112 OFFCURVE",
"332 57 OFFCURVE",
"234 57 CURVE SMOOTH",
"155 57 OFFCURVE",
"126 91 OFFCURVE",
"126 162 CURVE SMOOTH",
"126 177 OFFCURVE",
"128 194 OFFCURVE",
"130 212 CURVE SMOOTH",
"172 510 LINE SMOOTH",
"187 613 OFFCURVE",
"228 670 OFFCURVE",
"327 670 CURVE SMOOTH",
"410 670 OFFCURVE",
"444 636 OFFCURVE",
"444 560 CURVE SMOOTH",
"444 547 OFFCURVE",
"443 534 OFFCURVE",
"441 520 CURVE",
"516 516 LINE",
"518 532 OFFCURVE",
"519 548 OFFCURVE",
"519 562 CURVE SMOOTH",
"519 676 OFFCURVE",
"459 737 OFFCURVE",
"330 737 CURVE SMOOTH",
"186 737 OFFCURVE",
"117 659 OFFCURVE",
"96 512 CURVE SMOOTH",
"55 218 LINE SMOOTH",
"52 199 OFFCURVE",
"51 182 OFFCURVE",
"51 165 CURVE SMOOTH",
"51 56 OFFCURVE",
"109 -10 OFFCURVE",
"231 -10 CURVE SMOOTH",
"370 -10 OFFCURVE",
"454 72 OFFCURVE",
"474 214 CURVE SMOOTH",
"476 230 LINE",
"400 230 LINE"
);
},
{
closed = 1;
nodes = (
"377 808 LINE",
"517 949 LINE",
"417 949 LINE",
"308 808 LINE"
);
}
);
width = 524;
}
);
leftKerningGroup = O;
rightKerningGroup = O;
unicode = 0106;
},
{
color = 11;
glyphname = Ccaron;
lastChange = "2025-02-14 18:35:57 +0000";
layers = (
{
anchors = (
{
name = bottom;
position = "{230, 0}";
},
{
name = top;
position = "{363, 949}";
}
);
hints = (
{
horizontal = 1;
place = "{773, 106}";
type = Stem;
},
{
place = "{84, 257}";
type = Stem;
}
);
layerId = m01;
paths = (
{
closed = 1;
nodes = (
"398 216 LINE SMOOTH",
"383 112 OFFCURVE",
"332 57 OFFCURVE",
"234 57 CURVE SMOOTH",
"155 57 OFFCURVE",
"126 91 OFFCURVE",
"126 162 CURVE SMOOTH",
"126 177 OFFCURVE",
"128 194 OFFCURVE",
"130 212 CURVE SMOOTH",
"172 510 LINE SMOOTH",
"187 613 OFFCURVE",
"228 670 OFFCURVE",
"327 670 CURVE SMOOTH",
"410 670 OFFCURVE",
"444 636 OFFCURVE",
"444 560 CURVE SMOOTH",
"444 547 OFFCURVE",
"443 534 OFFCURVE",
"441 520 CURVE",
"516 516 LINE",
"518 532 OFFCURVE",
"519 548 OFFCURVE",
"519 562 CURVE SMOOTH",
"519 676 OFFCURVE",
"459 737 OFFCURVE",
"330 737 CURVE SMOOTH",
"186 737 OFFCURVE",
"117 659 OFFCURVE",
"96 512 CURVE SMOOTH",
"55 218 LINE SMOOTH",
"52 199 OFFCURVE",
"51 182 OFFCURVE",
"51 165 CURVE SMOOTH",
"51 56 OFFCURVE",
"109 -10 OFFCURVE",
"231 -10 CURVE SMOOTH",
"370 -10 OFFCURVE",
"454 72 OFFCURVE",
"474 214 CURVE SMOOTH",
"476 230 LINE",
"400 230 LINE"
);
},
{
closed = 1;
nodes = (
"303 808 LINE",
"385 808 LINE",
"494 949 LINE",
"418 949 LINE",
"349 855 LINE",
"306 949 LINE",
"232 949 LINE"
);
}
);
width = 524;
}
);
leftKerningGroup = O;
rightKerningGroup = O;
unicode = 010C;
},
{
color = 11;
glyphname = Ccedilla;
lastChange = "2025-02-14 18:35:57 +0000";
layers = (
{
anchors = (
{
name = bottom;
position = "{187, -225}";
},
{
name = top;
position = "{332, 727}";
}
);
hints = (
{
place = "{250, 41}";
type = Stem;
}
);
layerId = m01;
paths = (
{
closed = 1;
nodes = (
"398 216 LINE SMOOTH",
"383 112 OFFCURVE",
"332 57 OFFCURVE",
"234 57 CURVE SMOOTH",
"155 57 OFFCURVE",
"126 91 OFFCURVE",
"126 162 CURVE SMOOTH",
"126 177 OFFCURVE",
"128 194 OFFCURVE",
"130 212 CURVE SMOOTH",
"172 510 LINE SMOOTH",
"187 613 OFFCURVE",
"228 670 OFFCURVE",
"327 670 CURVE SMOOTH",
"410 670 OFFCURVE",
"444 636 OFFCURVE",
"444 560 CURVE SMOOTH",
"444 547 OFFCURVE",
"443 534 OFFCURVE",
"441 520 CURVE",
"516 516 LINE",
"518 532 OFFCURVE",
"519 548 OFFCURVE",
"519 562 CURVE SMOOTH",
"519 676 OFFCURVE",
"459 737 OFFCURVE",
"330 737 CURVE SMOOTH",
"186 737 OFFCURVE",
"117 659 OFFCURVE",
"96 512 CURVE SMOOTH",
"55 218 LINE SMOOTH",
"52 199 OFFCURVE",
"51 182 OFFCURVE",
"51 165 CURVE SMOOTH",
"51 66 OFFCURVE",
"98 3 OFFCURVE",
"196 -8 CURVE",
"158 -65 LINE",
"191 -86 LINE",
"201 -80 OFFCURVE",
"212 -76 OFFCURVE",
"224 -76 CURVE SMOOTH",
"246 -76 OFFCURVE",
"265 -89 OFFCURVE",
"265 -114 CURVE SMOOTH",
"265 -146 OFFCURVE",
"236 -182 OFFCURVE",
"193 -182 CURVE SMOOTH",
"169 -182 OFFCURVE",
"145 -173 OFFCURVE",
"135 -157 CURVE",
"101 -183 LINE",
"122 -212 OFFCURVE",
"157 -227 OFFCURVE",
"195 -227 CURVE SMOOTH",
"255 -227 OFFCURVE",
"318 -189 OFFCURVE",
"318 -116 CURVE SMOOTH",
"318 -62 OFFCURVE",
"279 -36 OFFCURVE",
"235 -35 CURVE",
"255 -9 LINE",
"380 0 OFFCURVE",
"455 80 OFFCURVE",
"474 214 CURVE SMOOTH",
"476 230 LINE",
"400 230 LINE"
);
}
);
width = 524;
}
);
leftKerningGroup = O;
rightKerningGroup = O;
unicode = 00C7;
},
{
color = 11;
glyphname = Cdotaccent;
lastChange = "2025-02-14 18:35:57 +0000";
layers = (
{
anchors = (
{
name = bottom;
position = "{230, 0}";
},
{
name = top;
position = "{355, 896}";
}
);
layerId = m01;
paths = (
{
closed = 1;
nodes = (
"398 216 LINE SMOOTH",
"383 112 OFFCURVE",
"332 57 OFFCURVE",
"234 57 CURVE SMOOTH",
"155 57 OFFCURVE",
"126 91 OFFCURVE",
"126 162 CURVE SMOOTH",
"126 177 OFFCURVE",
"128 194 OFFCURVE",
"130 212 CURVE SMOOTH",
"172 510 LINE SMOOTH",
"187 613 OFFCURVE",
"228 670 OFFCURVE",
"327 670 CURVE SMOOTH",
"410 670 OFFCURVE",
"444 636 OFFCURVE",
"444 560 CURVE SMOOTH",
"444 547 OFFCURVE",
"443 534 OFFCURVE",
"441 520 CURVE",
"516 516 LINE",
"518 532 OFFCURVE",
"519 548 OFFCURVE",
"519 562 CURVE SMOOTH",
"519 676 OFFCURVE",
"459 737 OFFCURVE",
"330 737 CURVE SMOOTH",
"186 737 OFFCURVE",
"117 659 OFFCURVE",
"96 512 CURVE SMOOTH",
"55 218 LINE SMOOTH",
"52 199 OFFCURVE",
"51 182 OFFCURVE",
"51 165 CURVE SMOOTH",
"51 56 OFFCURVE",
"109 -10 OFFCURVE",
"231 -10 CURVE SMOOTH",
"370 -10 OFFCURVE",
"454 72 OFFCURVE",
"474 214 CURVE SMOOTH",
"476 230 LINE",
"400 230 LINE"
);
},
{
closed = 1;
nodes = (
"384 813 LINE",
"395 896 LINE",
"315 896 LINE",
"304 813 LINE"
);
}
);
width = 524;
}
);
leftKerningGroup = O;
rightKerningGroup = O;
unicode = 010A;
},
{
glyphname = D;
lastChange = "2025-02-14 18:35:57 +0000";
layers = (
{
anchors = (
{
name = bottom;
position = "{244, 0}";
},
{
name = center;
position = "{295, 364}";
},
{
name = top;
position = "{336, 727}";
}
);
layerId = m01;
paths = (
{
closed = 1;
nodes = (
"415 0 OFFCURVE",
"479 111 OFFCURVE",
"514 360 CURVE SMOOTH",
"522 420 OFFCURVE",
"527 473 OFFCURVE",
"527 518 CURVE SMOOTH",
"527 663 OFFCURVE",
"476 727 OFFCURVE",
"335 727 CURVE SMOOTH",
"142 727 LINE",
"40 0 LINE",
"236 0 LINE SMOOTH"
);
},
{
closed = 1;
nodes = (
"208 660 LINE",
"319 660 LINE SMOOTH",
"403 660 OFFCURVE",
"451 619 OFFCURVE",
"451 517 CURVE SMOOTH",
"451 499 OFFCURVE",
"449 478 OFFCURVE",
"446 455 CURVE SMOOTH",
"421 276 LINE SMOOTH",
"401 132 OFFCURVE",
"328 67 OFFCURVE",
"232 67 CURVE SMOOTH",
"125 67 LINE"
);
}
);
vertWidth = 1200;
width = 559;
}
);
leftMetricsKey = H;
note = D;
rightKerningGroup = O;
rightMetricsKey = O;
unicode = 0044;
},
{
glyphname = Eth;
lastChange = "2025-02-14 18:35:57 +0000";
layers = (
{
anchors = (
{
name = bottom;
position = "{244, 0}";
},
{
name = center;
position = "{295, 364}";
},
{
name = top;
position = "{336, 727}";
}
);
layerId = m01;
paths = (
{
closed = 1;
nodes = (
"29 366 LINE",
"91 366 LINE",
"40 0 LINE",
"236 0 LINE SMOOTH",
"415 0 OFFCURVE",
"479 111 OFFCURVE",
"514 360 CURVE SMOOTH",
"522 420 OFFCURVE",
"527 473 OFFCURVE",
"527 518 CURVE SMOOTH",
"527 663 OFFCURVE",
"476 727 OFFCURVE",
"335 727 CURVE SMOOTH",
"142 727 LINE",
"99 422 LINE",
"37 422 LINE"
);
},
{
closed = 1;
nodes = (
"167 366 LINE",
"320 366 LINE",
"328 422 LINE",
"175 422 LINE",
"208 660 LINE",
"319 660 LINE SMOOTH",
"403 660 OFFCURVE",
"451 619 OFFCURVE",
"451 517 CURVE SMOOTH",
"451 499 OFFCURVE",
"449 478 OFFCURVE",
"446 455 CURVE SMOOTH",
"421 276 LINE SMOOTH",
"401 132 OFFCURVE",
"328 67 OFFCURVE",
"232 67 CURVE SMOOTH",
"125 67 LINE"
);
}
);
width = 559;
}
);
rightKerningGroup = O;
unicode = 00D0;
},
{
color = 11;
glyphname = Dcaron;
lastChange = "2025-02-14 18:35:57 +0000";
layers = (
{
anchors = (
{
name = bottom;
position = "{244, 0}";
},
{
name = center;
position = "{295, 364}";
},
{
name = top;
position = "{367, 949}";
}
);
hints = (
{
horizontal = 1;
place = "{773, 106}";
type = Stem;
},
{
place = "{88, 257}";
type = Stem;
}
);
layerId = m01;
paths = (
{
closed = 1;
nodes = (
"415 0 OFFCURVE",
"479 111 OFFCURVE",
"514 360 CURVE SMOOTH",
"522 420 OFFCURVE",
"527 473 OFFCURVE",
"527 518 CURVE SMOOTH",
"527 663 OFFCURVE",
"476 727 OFFCURVE",
"335 727 CURVE SMOOTH",
"142 727 LINE",
"40 0 LINE",
"236 0 LINE SMOOTH"
);
},
{
closed = 1;
nodes = (
"307 808 LINE",
"389 808 LINE",
"498 949 LINE",
"422 949 LINE",
"353 855 LINE",
"310 949 LINE",
"236 949 LINE"
);
},
{
closed = 1;
nodes = (
"208 660 LINE",
"319 660 LINE SMOOTH",
"403 660 OFFCURVE",
"451 619 OFFCURVE",
"451 517 CURVE SMOOTH",
"451 499 OFFCURVE",
"449 478 OFFCURVE",
"446 455 CURVE SMOOTH",
"421 276 LINE SMOOTH",
"401 132 OFFCURVE",
"328 67 OFFCURVE",
"232 67 CURVE SMOOTH",
"125 67 LINE"
);
}
);
width = 559;
}
);
rightKerningGroup = O;
unicode = 010E;
},
{
color = 11;
glyphname = Dcroat;
lastChange = "2025-02-14 18:35:57 +0000";
layers = (
{
anchors = (
{
name = bottom;
position = "{244, 0}";
},
{
name = center;
position = "{295, 364}";
},
{
name = top;
position = "{336, 727}";
}
);
layerId = m01;
paths = (
{
closed = 1;
nodes = (
"29 366 LINE",
"91 366 LINE",
"40 0 LINE",
"236 0 LINE SMOOTH",
"415 0 OFFCURVE",
"479 111 OFFCURVE",
"514 360 CURVE SMOOTH",
"522 420 OFFCURVE",
"527 473 OFFCURVE",
"527 518 CURVE SMOOTH",
"527 663 OFFCURVE",
"476 727 OFFCURVE",
"335 727 CURVE SMOOTH",
"142 727 LINE",
"99 422 LINE",
"37 422 LINE"
);
},
{
closed = 1;
nodes = (
"167 366 LINE",
"320 366 LINE",
"328 422 LINE",
"175 422 LINE",
"208 660 LINE",
"319 660 LINE SMOOTH",
"403 660 OFFCURVE",
"451 619 OFFCURVE",
"451 517 CURVE SMOOTH",
"451 499 OFFCURVE",
"449 478 OFFCURVE",
"446 455 CURVE SMOOTH",
"421 276 LINE SMOOTH",
"401 132 OFFCURVE",
"328 67 OFFCURVE",
"232 67 CURVE SMOOTH",
"125 67 LINE"
);
}
);
width = 559;
}
);
rightKerningGroup = O;
unicode = 0110;
},
{
color = 3;
glyphname = E;
lastChange = "2025-02-14 18:34:36 +0000";
layers = (
{
anchors = (
{
name = bottom;
position = "{220, 0}";
},
{
name = ogonek;
position = "{400, 0}";
},
{
name = top;
position = "{321, 727}";
},
{
name = topleft;
position = "{85, 727}";
}
);
layerId = m01;
paths = (
{
closed = 1;
nodes = (
"400 0 LINE",
"409 70 LINE",
"125 70 LINE",
"163 336 LINE",
"420 336 LINE",
"430 406 LINE",
"173 406 LINE",
"208 657 LINE",
"489 657 LINE",
"499 727 LINE",
"142 727 LINE",
"40 0 LINE"
);
}
);
vertWidth = 1200;
width = 480;
}
);
leftMetricsKey = H;
note = E;
rightKerningGroup = E;
unicode = 0045;
},
{
color = 11;
glyphname = Eacute;
lastChange = "2025-02-14 18:34:36 +0000";
layers = (
{
anchors = (
{
name = bottom;
position = "{220, 0}";
},
{
name = ogonek;
position = "{400, 0}";
},
{
name = top;
position = "{352, 949}";
},
{
name = topleft;
position = "{85, 727}";
}
);
layerId = m01;
paths = (
{
closed = 1;
nodes = (
"400 0 LINE",
"409 70 LINE",
"125 70 LINE",
"163 336 LINE",
"420 336 LINE",
"430 406 LINE",
"173 406 LINE",
"208 657 LINE",
"489 657 LINE",
"499 727 LINE",
"142 727 LINE",
"40 0 LINE"
);
},
{
closed = 1;
nodes = (
"366 808 LINE",
"506 949 LINE",
"406 949 LINE",
"297 808 LINE"
);
}
);
width = 480;
}
);
rightKerningGroup = E;
unicode = 00C9;
},
{
color = 11;
glyphname = Ecaron;
lastChange = "2025-02-14 18:34:36 +0000";
layers = (
{
anchors = (
{
name = bottom;
position = "{220, 0}";
},
{
name = ogonek;
position = "{400, 0}";
},
{
name = top;
position = "{352, 949}";
},
{
name = topleft;
position = "{85, 727}";
}
);
hints = (
{
horizontal = 1;
place = "{773, 106}";
type = Stem;
},
{
place = "{73, 257}";
type = Stem;
}
);
layerId = m01;
paths = (
{
closed = 1;
nodes = (
"400 0 LINE",
"409 70 LINE",
"125 70 LINE",
"163 336 LINE",
"420 336 LINE",
"430 406 LINE",
"173 406 LINE",
"208 657 LINE",
"489 657 LINE",
"499 727 LINE",
"142 727 LINE",
"40 0 LINE"
);
},
{
closed = 1;
nodes = (
"292 808 LINE",
"374 808 LINE",
"483 949 LINE",
"407 949 LINE",
"338 855 LINE",
"295 949 LINE",
"221 949 LINE"
);
}
);
width = 480;
}
);
rightKerningGroup = E;
unicode = 011A;
},
{
color = 11;
glyphname = Ecircumflex;
lastChange = "2025-02-14 18:34:36 +0000";
layers = (
{
anchors = (
{
name = bottom;
position = "{220, 0}";
},
{
name = ogonek;
position = "{400, 0}";
},
{
name = top;
position = "{352, 949}";
},
{
name = topleft;
position = "{85, 727}";
}
);
layerId = m01;
paths = (
{
closed = 1;
nodes = (
"400 0 LINE",
"409 70 LINE",
"125 70 LINE",
"163 336 LINE",
"420 336 LINE",
"430 406 LINE",
"173 406 LINE",
"208 657 LINE",
"489 657 LINE",
"499 727 LINE",
"142 727 LINE",
"40 0 LINE"
);
},
{
closed = 1;
nodes = (
"277 808 LINE",
"346 902 LINE",
"389 808 LINE",
"462 808 LINE",
"392 949 LINE",
"310 949 LINE",
"200 808 LINE"
);
}
);
width = 480;
}
);
rightKerningGroup = E;
unicode = 00CA;
},
{
color = 11;
glyphname = Edieresis;
lastChange = "2025-02-14 18:34:36 +0000";
layers = (
{
anchors = (
{
name = bottom;
position = "{220, 0}";
},
{
name = ogonek;
position = "{400, 0}";
},
{
name = top;
position = "{344, 896}";
},
{
name = topleft;
position = "{85, 727}";
}
);
hints = (
{
horizontal = 1;
place = "{798, 48}";
type = Stem;
},
{
place = "{269, 45}";
type = Stem;
},
{
place = "{89, 45}";
type = Stem;
},
{
horizontal = 1;
place = "{798, 48}";
type = Stem;
},
{
place = "{258, 45}";
type = Stem;
},
{
place = "{78, 45}";
type = Stem;
}
);
layerId = m01;
paths = (
{
closed = 1;
nodes = (
"400 0 LINE",
"409 70 LINE",
"125 70 LINE",
"163 336 LINE",
"420 336 LINE",
"430 406 LINE",
"173 406 LINE",
"208 657 LINE",
"489 657 LINE",
"499 727 LINE",
"142 727 LINE",
"40 0 LINE"
);
},
{
closed = 1;
nodes = (
"283 813 LINE",
"294 896 LINE",
"214 896 LINE",
"203 813 LINE"
);
},
{
closed = 1;
nodes = (
"463 813 LINE",
"474 896 LINE",
"394 896 LINE",
"383 813 LINE"
);
}
);
width = 480;
}
);
rightKerningGroup = E;
unicode = 00CB;
},
{
color = 11;
glyphname = Edotaccent;
lastChange = "2025-02-14 18:34:36 +0000";
layers = (
{
anchors = (
{
name = bottom;
position = "{220, 0}";
},
{
name = ogonek;
position = "{400, 0}";
},
{
name = top;
position = "{344, 896}";
},
{
name = topleft;
position = "{85, 727}";
}
);
layerId = m01;
paths = (
{
closed = 1;
nodes = (
"400 0 LINE",
"409 70 LINE",
"125 70 LINE",
"163 336 LINE",
"420 336 LINE",
"430 406 LINE",
"173 406 LINE",
"208 657 LINE",
"489 657 LINE",
"499 727 LINE",
"142 727 LINE",
"40 0 LINE"
);
},
{
closed = 1;
nodes = (
"373 813 LINE",
"384 896 LINE",
"304 896 LINE",
"293 813 LINE"
);
}
);
width = 480;
}
);
rightKerningGroup = E;
unicode = 0116;
},
{
color = 11;
glyphname = Egrave;
lastChange = "2025-02-14 18:34:36 +0000";
layers = (
{
anchors = (
{
name = bottom;
position = "{220, 0}";
},
{
name = ogonek;
position = "{400, 0}";
},
{
name = top;
position = "{352, 949}";
},
{
name = topleft;
position = "{85, 727}";
}
);
layerId = m01;
paths = (
{
closed = 1;
nodes = (
"400 0 LINE",
"409 70 LINE",
"125 70 LINE",
"163 336 LINE",
"420 336 LINE",
"430 406 LINE",
"173 406 LINE",
"208 657 LINE",
"489 657 LINE",
"499 727 LINE",
"142 727 LINE",
"40 0 LINE"
);
},
{
closed = 1;
nodes = (
"300 808 LINE",
"365 808 LINE",
"296 949 LINE",
"198 949 LINE"
);
}
);
width = 480;
}
);
rightKerningGroup = E;
unicode = 00C8;
},
{
color = 11;
glyphname = Emacron;
lastChange = "2025-02-14 18:34:36 +0000";
layers = (
{
anchors = (
{
name = bottom;
position = "{220, 0}";
},
{
name = ogonek;
position = "{400, 0}";
},
{
name = top;
position = "{341, 869}";
},
{
name = topleft;
position = "{85, 727}";
}
);
hints = (
{
horizontal = 1;
place = "{795, 26}";
type = Stem;
},
{
place = "{115, 172}";
type = Stem;
},
{
horizontal = 1;
place = "{795, 26}";
type = Stem;
},
{
place = "{105, 172}";
type = Stem;
}
);
layerId = m01;
paths = (
{
closed = 1;
nodes = (
"400 0 LINE",
"409 70 LINE",
"125 70 LINE",
"163 336 LINE",
"420 336 LINE",
"430 406 LINE",
"173 406 LINE",
"208 657 LINE",
"489 657 LINE",
"499 727 LINE",
"142 727 LINE",
"40 0 LINE"
);
},
{
closed = 1;
nodes = (
"436 808 LINE",
"445 869 LINE",
"237 869 LINE",
"228 808 LINE"
);
}
);
width = 480;
}
);
rightKerningGroup = E;
unicode = 0112;
},
{
color = 11;
glyphname = Eogonek;
lastChange = "2025-02-14 18:35:57 +0000";
layers = (
{
anchors = (
{
name = bottom;
position = "{220, 0}";
},
{
name = ogonek;
position = "{400, 0}";
},
{
name = top;
position = "{321, 727}";
},
{
name = topleft;
position = "{85, 727}";
}
);
layerId = m01;
paths = (
{
closed = 1;
nodes = (
"333 1 LINE",
"284 -34 OFFCURVE",
"268 -62 OFFCURVE",
"268 -109 CURVE SMOOTH",
"268 -164 OFFCURVE",
"309 -188 OFFCURVE",
"369 -188 CURVE SMOOTH",
"381 -188 OFFCURVE",
"395 -187 OFFCURVE",
"409 -185 CURVE",
"415 -124 LINE",
"406 -127 OFFCURVE",
"397 -129 OFFCURVE",
"386 -129 CURVE SMOOTH",
"359 -129 OFFCURVE",
"332 -117 OFFCURVE",
"332 -91 CURVE SMOOTH",
"332 -60 OFFCURVE",
"357 -31 OFFCURVE",
"401 -1 CURVE",
"409 70 LINE",
"125 70 LINE",
"163 336 LINE",
"420 336 LINE",
"430 406 LINE",
"173 406 LINE",
"208 657 LINE",
"489 657 LINE",
"499 727 LINE",
"142 727 LINE",
"40 0 LINE"
);
}
);
width = 480;
}
);
rightKerningGroup = E;
unicode = 0118;
},
{
glyphname = F;
lastChange = "2025-02-14 18:34:36 +0000";
layers = (
{
anchors = (
{
name = bottom;
position = "{191, 0}";
},
{
name = top;
position = "{293, 727}";
}
);
layerId = m01;
paths = (
{
closed = 1;
nodes = (
"116 0 LINE",
"163 336 LINE",
"411 336 LINE",
"421 406 LINE",
"173 406 LINE",
"208 657 LINE",
"477 657 LINE",
"487 727 LINE",
"142 727 LINE",
"40 0 LINE"
);
}
);
vertWidth = 1200;
width = 465;
}
);
leftMetricsKey = H;
note = F;
rightKerningGroup = F;
rightMetricsKey = E;
unicode = 0046;
},
{
glyphname = G;
lastChange = "2025-02-14 18:35:57 +0000";
layers = (
{
anchors = (
{
name = bottom;
position = "{220, 0}";
},
{
name = top;
position = "{333, 727}";
}
);
layerId = m01;
paths = (
{
closed = 1;
nodes = (
"283 366 LINE",
"275 306 LINE",
"411 306 LINE",
"398 216 LINE SMOOTH",
"383 112 OFFCURVE",
"332 57 OFFCURVE",
"234 57 CURVE SMOOTH",
"155 57 OFFCURVE",
"126 91 OFFCURVE",
"126 162 CURVE SMOOTH",
"126 177 OFFCURVE",
"128 194 OFFCURVE",
"130 212 CURVE SMOOTH",
"172 510 LINE SMOOTH",
"187 613 OFFCURVE",
"228 670 OFFCURVE",
"327 670 CURVE SMOOTH",
"409 670 OFFCURVE",
"444 636 OFFCURVE",
"444 561 CURVE SMOOTH",
"444 551 OFFCURVE",
"443 540 OFFCURVE",
"442 529 CURVE",
"517 525 LINE",
"519 539 OFFCURVE",
"519 552 OFFCURVE",
"519 565 CURVE SMOOTH",
"519 677 OFFCURVE",
"459 737 OFFCURVE",
"330 737 CURVE SMOOTH",
"186 737 OFFCURVE",
"117 659 OFFCURVE",
"96 512 CURVE SMOOTH",
"55 218 LINE SMOOTH",
"52 199 OFFCURVE",
"51 181 OFFCURVE",
"51 165 CURVE SMOOTH",
"51 55 OFFCURVE",
"107 -10 OFFCURVE",
"221 -10 CURVE SMOOTH",
"291 -10 OFFCURVE",
"331 10 OFFCURVE",
"359 49 CURVE",
"358 50 LINE",
"375 50 LINE",
"368 0 LINE",
"444 0 LINE",
"495 366 LINE"
);
}
);
vertWidth = 1200;
width = 539;
}
);
leftKerningGroup = O;
leftMetricsKey = O;
note = G;
rightMetricsKey = O;
unicode = 0047;
},
{
color = 11;
glyphname = Gbreve;
lastChange = "2025-02-14 18:35:57 +0000";
layers = (
{
anchors = (
{
name = bottom;
position = "{220, 0}";
},
{
name = top;
position = "{361, 926}";
}
);
hints = (
{
horizontal = 1;
place = "{785, 28}";
type = Stem;
},
{
place = "{298, 28}";
type = Stem;
},
{
place = "{101, 28}";
type = Stem;
}
);
layerId = m01;
paths = (
{
closed = 1;
nodes = (
"283 366 LINE",
"275 306 LINE",
"411 306 LINE",
"398 216 LINE SMOOTH",
"383 112 OFFCURVE",
"332 57 OFFCURVE",
"234 57 CURVE SMOOTH",
"155 57 OFFCURVE",
"126 91 OFFCURVE",
"126 162 CURVE SMOOTH",
"126 177 OFFCURVE",
"128 194 OFFCURVE",
"130 212 CURVE SMOOTH",
"172 510 LINE SMOOTH",
"187 613 OFFCURVE",
"228 670 OFFCURVE",
"327 670 CURVE SMOOTH",
"409 670 OFFCURVE",
"444 636 OFFCURVE",
"444 561 CURVE SMOOTH",
"444 551 OFFCURVE",
"443 540 OFFCURVE",
"442 529 CURVE",
"517 525 LINE",
"519 539 OFFCURVE",
"519 552 OFFCURVE",
"519 565 CURVE SMOOTH",
"519 677 OFFCURVE",
"459 737 OFFCURVE",
"330 737 CURVE SMOOTH",
"186 737 OFFCURVE",
"117 659 OFFCURVE",
"96 512 CURVE SMOOTH",
"55 218 LINE SMOOTH",
"52 199 OFFCURVE",
"51 181 OFFCURVE",
"51 165 CURVE SMOOTH",
"51 55 OFFCURVE",
"107 -10 OFFCURVE",
"221 -10 CURVE SMOOTH",
"291 -10 OFFCURVE",
"331 10 OFFCURVE",
"359 49 CURVE",
"358 50 LINE",
"375 50 LINE",
"368 0 LINE",
"444 0 LINE",
"495 366 LINE"
);
},
{
closed = 1;
nodes = (
"245 919 OFFCURVE",
"245 911 OFFCURVE",
"245 904 CURVE SMOOTH",
"245 829 OFFCURVE",
"273 808 OFFCURVE",
"347 808 CURVE SMOOTH",
"427 808 OFFCURVE",
"455 828 OFFCURVE",
"474 924 CURVE",
"407 928 LINE",
"395 873 OFFCURVE",
"381 860 OFFCURVE",
"347 860 CURVE SMOOTH",
"321 860 OFFCURVE",
"312 872 OFFCURVE",
"315 924 CURVE",
"246 928 LINE"
);
}
);
width = 539;
}
);
leftKerningGroup = O;
unicode = 011E;
},
{
color = 11;
glyphname = Gcommaaccent;
lastChange = "2025-02-14 18:35:57 +0000";
layers = (
{
anchors = (
{
name = bottom;
position = "{169, -231}";
},
{
name = top;
position = "{333, 727}";
}
);
layerId = m01;
paths = (
{
closed = 1;
nodes = (
"283 366 LINE",
"275 306 LINE",
"411 306 LINE",
"398 216 LINE SMOOTH",
"383 112 OFFCURVE",
"332 57 OFFCURVE",
"234 57 CURVE SMOOTH",
"155 57 OFFCURVE",
"126 91 OFFCURVE",
"126 162 CURVE SMOOTH",
"126 177 OFFCURVE",
"128 194 OFFCURVE",
"130 212 CURVE SMOOTH",
"172 510 LINE SMOOTH",
"187 613 OFFCURVE",
"228 670 OFFCURVE",
"327 670 CURVE SMOOTH",
"409 670 OFFCURVE",
"444 636 OFFCURVE",
"444 561 CURVE SMOOTH",
"444 551 OFFCURVE",
"443 540 OFFCURVE",
"442 529 CURVE",
"517 525 LINE",
"519 539 OFFCURVE",
"519 552 OFFCURVE",
"519 565 CURVE SMOOTH",
"519 677 OFFCURVE",
"459 737 OFFCURVE",
"330 737 CURVE SMOOTH",
"186 737 OFFCURVE",
"117 659 OFFCURVE",
"96 512 CURVE SMOOTH",
"55 218 LINE SMOOTH",
"52 199 OFFCURVE",
"51 181 OFFCURVE",
"51 165 CURVE SMOOTH",
"51 55 OFFCURVE",
"107 -10 OFFCURVE",
"221 -10 CURVE SMOOTH",
"291 -10 OFFCURVE",
"331 10 OFFCURVE",
"359 49 CURVE",
"358 50 LINE",
"375 50 LINE",
"368 0 LINE",
"444 0 LINE",
"495 366 LINE"
);
},
{
closed = 1;
nodes = (
"164 -231 LINE",
"251 -65 LINE",
"170 -65 LINE",
"110 -231 LINE"
);
}
);
width = 539;
}
);
leftKerningGroup = O;
unicode = 0122;
},
{
color = 11;
glyphname = Gdotaccent;
lastChange = "2025-02-14 18:35:57 +0000";
layers = (
{
anchors = (
{
name = bottom;
position = "{220, 0}";
},
{
name = top;
position = "{356, 896}";
}
);
layerId = m01;
paths = (
{
closed = 1;
nodes = (
"283 366 LINE",
"275 306 LINE",
"411 306 LINE",
"398 216 LINE SMOOTH",
"383 112 OFFCURVE",
"332 57 OFFCURVE",
"234 57 CURVE SMOOTH",
"155 57 OFFCURVE",
"126 91 OFFCURVE",
"126 162 CURVE SMOOTH",
"126 177 OFFCURVE",
"128 194 OFFCURVE",
"130 212 CURVE SMOOTH",
"172 510 LINE SMOOTH",
"187 613 OFFCURVE",
"228 670 OFFCURVE",
"327 670 CURVE SMOOTH",
"409 670 OFFCURVE",
"444 636 OFFCURVE",
"444 561 CURVE SMOOTH",
"444 551 OFFCURVE",
"443 540 OFFCURVE",
"442 529 CURVE",
"517 525 LINE",
"519 539 OFFCURVE",
"519 552 OFFCURVE",
"519 565 CURVE SMOOTH",
"519 677 OFFCURVE",
"459 737 OFFCURVE",
"330 737 CURVE SMOOTH",
"186 737 OFFCURVE",
"117 659 OFFCURVE",
"96 512 CURVE SMOOTH",
"55 218 LINE SMOOTH",
"52 199 OFFCURVE",
"51 181 OFFCURVE",
"51 165 CURVE SMOOTH",
"51 55 OFFCURVE",
"107 -10 OFFCURVE",
"221 -10 CURVE SMOOTH",
"291 -10 OFFCURVE",
"331 10 OFFCURVE",
"359 49 CURVE",
"358 50 LINE",
"375 50 LINE",
"368 0 LINE",
"444 0 LINE",
"495 366 LINE"
);
},
{
closed = 1;
nodes = (
"385 813 LINE",
"396 896 LINE",
"316 896 LINE",
"305 813 LINE"
);
}
);
width = 539;
}
);
leftKerningGroup = O;
unicode = 0120;
},
{
color = 3;
glyphname = H;
lastChange = "2025-02-14 18:34:36 +0000";
layers = (
{
anchors = (
{
name = bottom;
position = "{242, 0}";
},
{
name = center;
position = "{293, 364}";
},
{
name = top;
position = "{344, 727}";
},
{
name = topleft;
position = "{85, 727}";
}
);
layerId = m01;
paths = (
{
closed = 1;
nodes = (
"116 0 LINE",
"163 336 LINE",
"413 336 LINE",
"366 0 LINE",
"442 0 LINE",
"544 727 LINE",
"468 727 LINE",
"423 406 LINE",
"173 406 LINE",
"218 727 LINE",
"142 727 LINE",
"40 0 LINE"
);
}
);
vertWidth = 1200;
width = 552;
}
);
note = H;
unicode = 0048;
},
{
glyphname = Hbar;
lastChange = "2025-02-14 18:34:36 +0000";
layers = (
{
anchors = (
{
name = bottom;
position = "{242, 0}";
},
{
name = center;
position = "{293, 364}";
},
{
name = top;
position = "{344, 727}";
},
{
name = topleft;
position = "{85, 727}";
}
);
layerId = m01;
paths = (
{
closed = 1;
nodes = (
"51 546 LINE",
"116 546 LINE",
"40 0 LINE",
"116 0 LINE",
"163 336 LINE",
"413 336 LINE",
"366 0 LINE",
"442 0 LINE",
"518 546 LINE",
"583 546 LINE",
"591 602 LINE",
"526 602 LINE",
"544 727 LINE",
"468 727 LINE",
"450 602 LINE",
"200 602 LINE",
"218 727 LINE",
"142 727 LINE",
"124 602 LINE",
"59 602 LINE"
);
},
{
closed = 1;
nodes = (
"192 546 LINE",
"442 546 LINE",
"423 406 LINE",
"173 406 LINE"
);
}
);
width = 552;
}
);
unicode = 0126;
},
{
glyphname = I;
lastChange = "2025-02-14 18:34:36 +0000";
layers = (
{
anchors = (
{
name = bottom;
position = "{78, 0}";
},
{
name = ogonek;
position = "{116, 0}";
},
{
name = top;
position = "{180, 727}";
},
{
name = topleft;
position = "{81, 727}";
}
);
layerId = m01;
paths = (
{
closed = 1;
nodes = (
"116 0 LINE",
"218 727 LINE",
"142 727 LINE",
"40 0 LINE"
);
}
);
vertWidth = 1200;
width = 226;
}
);
leftMetricsKey = H;
note = I;
rightMetricsKey = H;
unicode = 0049;
},
{
color = 11;
glyphname = Iacute;
lastChange = "2025-02-14 18:34:36 +0000";
layers = (
{
anchors = (
{
name = bottom;
position = "{78, 0}";
},
{
name = ogonek;
position = "{116, 0}";
},
{
name = top;
position = "{211, 949}";
},
{
name = topleft;
position = "{81, 727}";
}
);
layerId = m01;
paths = (
{
closed = 1;
nodes = (
"116 0 LINE",
"218 727 LINE",
"142 727 LINE",
"40 0 LINE"
);
},
{
closed = 1;
nodes = (
"225 808 LINE",
"365 949 LINE",
"265 949 LINE",
"156 808 LINE"
);
}
);
width = 226;
}
);
unicode = 00CD;
},
{
color = 11;
glyphname = Icircumflex;
lastChange = "2025-02-14 18:34:36 +0000";
layers = (
{
anchors = (
{
name = bottom;
position = "{78, 0}";
},
{
name = ogonek;
position = "{116, 0}";
},
{
name = top;
position = "{211, 949}";
},
{
name = topleft;
position = "{81, 727}";
}
);
layerId = m01;
paths = (
{
closed = 1;
nodes = (
"116 0 LINE",
"218 727 LINE",
"142 727 LINE",
"40 0 LINE"
);
},
{
closed = 1;
nodes = (
"136 808 LINE",
"205 902 LINE",
"248 808 LINE",
"321 808 LINE",
"251 949 LINE",
"169 949 LINE",
"59 808 LINE"
);
}
);
width = 226;
}
);
unicode = 00CE;
},
{
color = 11;
glyphname = Idieresis;
lastChange = "2025-02-14 18:34:36 +0000";
layers = (
{
anchors = (
{
name = bottom;
position = "{78, 0}";
},
{
name = ogonek;
position = "{116, 0}";
},
{
name = top;
position = "{203, 896}";
},
{
name = topleft;
position = "{81, 727}";
}
);
hints = (
{
horizontal = 1;
place = "{798, 48}";
type = Stem;
},
{
place = "{128, 45}";
type = Stem;
},
{
place = "{-52, 45}";
type = Stem;
},
{
horizontal = 1;
place = "{798, 48}";
type = Stem;
},
{
place = "{117, 45}";
type = Stem;
},
{
place = "{-63, 45}";
type = Stem;
}
);
layerId = m01;
paths = (
{
closed = 1;
nodes = (
"116 0 LINE",
"218 727 LINE",
"142 727 LINE",
"40 0 LINE"
);
},
{
closed = 1;
nodes = (
"142 813 LINE",
"153 896 LINE",
"73 896 LINE",
"62 813 LINE"
);
},
{
closed = 1;
nodes = (
"322 813 LINE",
"333 896 LINE",
"253 896 LINE",
"242 813 LINE"
);
}
);
width = 226;
}
);
unicode = 00CF;
},
{
color = 11;
glyphname = Idotaccent;
lastChange = "2025-02-14 18:34:36 +0000";
layers = (
{
anchors = (
{
name = bottom;
position = "{78, 0}";
},
{
name = ogonek;
position = "{116, 0}";
},
{
name = top;
position = "{203, 896}";
},
{
name = topleft;
position = "{81, 727}";
}
);
layerId = m01;
paths = (
{
closed = 1;
nodes = (
"116 0 LINE",
"218 727 LINE",
"142 727 LINE",
"40 0 LINE"
);
},
{
closed = 1;
nodes = (
"232 813 LINE",
"243 896 LINE",
"163 896 LINE",
"152 813 LINE"
);
}
);
width = 226;
}
);
unicode = 0130;
},
{
color = 11;
glyphname = Igrave;
lastChange = "2025-02-14 18:34:36 +0000";
layers = (
{
anchors = (
{
name = bottom;
position = "{78, 0}";
},
{
name = ogonek;
position = "{116, 0}";
},
{
name = top;
position = "{211, 949}";
},
{
name = topleft;
position = "{81, 727}";
}
);
layerId = m01;
paths = (
{
closed = 1;
nodes = (
"116 0 LINE",
"218 727 LINE",
"142 727 LINE",
"40 0 LINE"
);
},
{
closed = 1;
nodes = (
"159 808 LINE",
"224 808 LINE",
"155 949 LINE",
"57 949 LINE"
);
}
);
width = 226;
}
);
unicode = 00CC;
},
{
color = 11;
glyphname = Imacron;
lastChange = "2025-02-14 18:34:36 +0000";
layers = (
{
anchors = (
{
name = bottom;
position = "{78, 0}";
},
{
name = ogonek;
position = "{116, 0}";
},
{
name = top;
position = "{200, 869}";
},
{
name = topleft;
position = "{81, 727}";
}
);
hints = (
{
horizontal = 1;
place = "{795, 26}";
type = Stem;
},
{
place = "{-26, 172}";
type = Stem;
},
{
horizontal = 1;
place = "{795, 26}";
type = Stem;
},
{
place = "{-36, 172}";
type = Stem;
}
);
layerId = m01;
paths = (
{
closed = 1;
nodes = (
"116 0 LINE",
"218 727 LINE",
"142 727 LINE",
"40 0 LINE"
);
},
{
closed = 1;
nodes = (
"295 808 LINE",
"304 869 LINE",
"96 869 LINE",
"87 808 LINE"
);
}
);
width = 226;
}
);
unicode = 012A;
},
{
color = 11;
glyphname = Iogonek;
lastChange = "2025-02-14 18:35:57 +0000";
layers = (
{
anchors = (
{
name = bottom;
position = "{78, 0}";
},
{
name = ogonek;
position = "{116, 0}";
},
{
name = top;
position = "{180, 727}";
},
{
name = topleft;
position = "{81, 727}";
}
);
layerId = m01;
paths = (
{
closed = 1;
nodes = (
"49 1 LINE",
"0 -34 OFFCURVE",
"-16 -62 OFFCURVE",
"-16 -109 CURVE SMOOTH",
"-16 -164 OFFCURVE",
"25 -188 OFFCURVE",
"85 -188 CURVE SMOOTH",
"97 -188 OFFCURVE",
"111 -187 OFFCURVE",
"125 -185 CURVE",
"131 -124 LINE",
"122 -127 OFFCURVE",
"113 -129 OFFCURVE",
"102 -129 CURVE SMOOTH",
"75 -129 OFFCURVE",
"48 -117 OFFCURVE",
"48 -91 CURVE SMOOTH",
"48 -60 OFFCURVE",
"73 -31 OFFCURVE",
"117 -1 CURVE",
"218 727 LINE",
"142 727 LINE",
"40 0 LINE"
);
}
);
width = 226;
}
);
unicode = 012E;
},
{
glyphname = J;
lastChange = "2025-02-14 18:36:02 +0000";
layers = (
{
anchors = (
{
name = bottom;
position = "{196, 0}";
},
{
name = top;
position = "{298, 727}";
}
);
layerId = m01;
paths = (
{
closed = 1;
nodes = (
"380 727 LINE",
"308 216 LINE SMOOTH",
"293 112 OFFCURVE",
"272 57 OFFCURVE",
"174 57 CURVE SMOOTH",
"117 57 OFFCURVE",
"98 86 OFFCURVE",
"98 143 CURVE SMOOTH",
"98 163 OFFCURVE",
"100 186 OFFCURVE",
"104 212 CURVE SMOOTH",
"106 223 LINE",
"26 223 LINE",
"25 218 LINE",
"21 191 OFFCURVE",
"19 166 OFFCURVE",
"19 143 CURVE SMOOTH",
"19 47 OFFCURVE",
"57 -10 OFFCURVE",
"171 -10 CURVE SMOOTH",
"310 -10 OFFCURVE",
"361 52 OFFCURVE",
"382 204 CURVE SMOOTH",
"456 727 LINE"
);
}
);
vertWidth = 1200;
width = 464;
}
);
leftKerningGroup = J;
note = J;
rightKerningGroup = J;
rightMetricsKey = H;
unicode = 004A;
},
{
glyphname = K;
lastChange = "2025-02-14 18:34:36 +0000";
layers = (
{
anchors = (
{
name = bottom;
position = "{222, 0}";
},
{
name = top;
position = "{324, 727}";
}
);
layerId = m01;
paths = (
{
closed = 1;
nodes = (
"477 0 LINE",
"274 399 LINE",
"565 727 LINE",
"475 727 LINE",
"181 399 LINE",
"380 0 LINE"
);
},
{
closed = 1;
nodes = (
"116 0 LINE",
"218 727 LINE",
"142 727 LINE",
"40 0 LINE"
);
}
);
vertWidth = 1200;
width = 518;
}
);
leftMetricsKey = H;
note = K;
rightKerningGroup = X;
unicode = 004B;
},
{
color = 11;
glyphname = Kcommaaccent;
lastChange = "2025-02-14 18:34:36 +0000";
layers = (
{
anchors = (
{
name = bottom;
position = "{171, -231}";
},
{
name = top;
position = "{324, 727}";
}
);
layerId = m01;
paths = (
{
closed = 1;
nodes = (
"477 0 LINE",
"274 399 LINE",
"565 727 LINE",
"475 727 LINE",
"181 399 LINE",
"380 0 LINE"
);
},
{
closed = 1;
nodes = (
"116 0 LINE",
"218 727 LINE",
"142 727 LINE",
"40 0 LINE"
);
},
{
closed = 1;
nodes = (
"166 -231 LINE",
"253 -65 LINE",
"172 -65 LINE",
"112 -231 LINE"
);
}
);
width = 518;
}
);
rightKerningGroup = X;
unicode = 0136;
},
{
color = 3;
glyphname = L;
lastChange = "2025-02-14 18:34:36 +0000";
layers = (
{
anchors = (
{
name = bottom;
position = "{209, 0}";
},
{
name = center;
position = "{237, 364}";
},
{
name = top;
position = "{180, 727}";
},
{
name = topright;
position = "{308, 505}";
}
);
layerId = m01;
paths = (
{
closed = 1;
nodes = (
"378 0 LINE",
"387 70 LINE",
"125 70 LINE",
"218 727 LINE",
"142 727 LINE",
"40 0 LINE"
);
}
);
vertWidth = 1200;
width = 443;
}
);
leftMetricsKey = H;
note = L;
rightKerningGroup = L;
unicode = 004C;
},
{
color = 11;
glyphname = Lacute;
lastChange = "2025-02-14 18:34:36 +0000";
layers = (
{
anchors = (
{
name = bottom;
position = "{209, 0}";
},
{
name = center;
position = "{237, 364}";
},
{
name = top;
position = "{211, 949}";
},
{
name = topright;
position = "{308, 505}";
}
);
layerId = m01;
paths = (
{
closed = 1;
nodes = (
"378 0 LINE",
"387 70 LINE",
"125 70 LINE",
"218 727 LINE",
"142 727 LINE",
"40 0 LINE"
);
},
{
closed = 1;
nodes = (
"225 808 LINE",
"365 949 LINE",
"265 949 LINE",
"156 808 LINE"
);
}
);
width = 443;
}
);
rightKerningGroup = L;
unicode = 0139;
},
{
color = 11;
glyphname = Lcaron;
lastChange = "2025-02-14 18:34:36 +0000";
layers = (
{
anchors = (
{
name = bottom;
position = "{209, 0}";
},
{
name = center;
position = "{237, 364}";
},
{
name = top;
position = "{180, 727}";
},
{
name = topright;
position = "{308, 505}";
}
);
layerId = m01;
paths = (
{
closed = 1;
nodes = (
"378 0 LINE",
"387 70 LINE",
"125 70 LINE",
"218 727 LINE",
"142 727 LINE",
"40 0 LINE"
);
},
{
closed = 1;
nodes = (
"390 561 LINE",
"477 727 LINE",
"396 727 LINE",
"336 561 LINE"
);
}
);
width = 443;
}
);
rightKerningGroup = L;
unicode = 013D;
},
{
color = 11;
glyphname = Lcommaaccent;
lastChange = "2025-02-14 18:34:36 +0000";
layers = (
{
anchors = (
{
name = bottom;
position = "{158, -231}";
},
{
name = center;
position = "{237, 364}";
},
{
name = top;
position = "{180, 727}";
},
{
name = topright;
position = "{308, 505}";
}
);
layerId = m01;
paths = (
{
closed = 1;
nodes = (
"378 0 LINE",
"387 70 LINE",
"125 70 LINE",
"218 727 LINE",
"142 727 LINE",
"40 0 LINE"
);
},
{
closed = 1;
nodes = (
"153 -231 LINE",
"240 -65 LINE",
"159 -65 LINE",
"99 -231 LINE"
);
}
);
width = 443;
}
);
rightKerningGroup = L;
unicode = 013B;
},
{
glyphname = Lslash;
lastChange = "2025-02-14 18:34:36 +0000";
layers = (
{
anchors = (
{
name = bottom;
position = "{209, 0}";
},
{
name = center;
position = "{237, 364}";
},
{
name = top;
position = "{180, 727}";
},
{
name = topright;
position = "{308, 505}";
}
);
layerId = m01;
paths = (
{
closed = 1;
nodes = (
"15 266 LINE",
"82 298 LINE",
"40 0 LINE",
"378 0 LINE",
"387 70 LINE",
"125 70 LINE",
"163 337 LINE",
"327 416 LINE",
"336 482 LINE",
"172 403 LINE",
"218 727 LINE",
"142 727 LINE",
"90 364 LINE",
"24 332 LINE"
);
}
);
width = 443;
}
);
rightKerningGroup = L;
unicode = 0141;
},
{
glyphname = M;
lastChange = "2025-02-14 18:34:36 +0000";
layers = (
{
anchors = (
{
name = bottom;
position = "{353, 0}";
},
{
name = top;
position = "{455, 727}";
}
);
layerId = m01;
paths = (
{
closed = 1;
nodes = (
"114 0 LINE",
"204 643 LINE",
"209 643 LINE",
"309 0 LINE",
"397 0 LINE",
"677 643 LINE",
"682 643 LINE",
"592 0 LINE",
"666 0 LINE",
"768 727 LINE",
"632 727 LINE",
"370 127 LINE",
"277 727 LINE",
"142 727 LINE",
"40 0 LINE"
);
}
);
vertWidth = 1200;
width = 776;
}
);
leftMetricsKey = H;
note = M;
rightMetricsKey = H;
unicode = 004D;
},
{
glyphname = N;
lastChange = "2025-02-14 18:34:36 +0000";
layers = (
{
anchors = (
{
name = bottom;
position = "{269, 0}";
},
{
name = top;
position = "{393, 727}";
}
);
hints = (
{
horizontal = 1;
place = "{-35, 21}";
target = up;
type = BottomGhost;
}
);
layerId = m01;
paths = (
{
closed = 1;
nodes = (
"116 0 LINE",
"204 630 LINE",
"210 630 LINE",
"401 0 LINE",
"520 0 LINE",
"622 727 LINE",
"546 727 LINE",
"457 98 LINE",
"451 98 LINE",
"260 727 LINE",
"142 727 LINE",
"40 0 LINE"
);
}
);
vertWidth = 1200;
width = 630;
}
);
leftMetricsKey = H;
note = N;
rightMetricsKey = H;
unicode = 004E;
},
{
color = 11;
glyphname = Nacute;
lastChange = "2025-02-14 18:34:36 +0000";
layers = (
{
anchors = (
{
name = bottom;
position = "{269, 0}";
},
{
name = top;
position = "{424, 949}";
}
);
hints = (
{
horizontal = 1;
place = "{-35, 21}";
target = up;
type = BottomGhost;
}
);
layerId = m01;
paths = (
{
closed = 1;
nodes = (
"116 0 LINE",
"204 630 LINE",
"210 630 LINE",
"401 0 LINE",
"520 0 LINE",
"622 727 LINE",
"546 727 LINE",
"457 98 LINE",
"451 98 LINE",
"260 727 LINE",
"142 727 LINE",
"40 0 LINE"
);
},
{
closed = 1;
nodes = (
"438 808 LINE",
"578 949 LINE",
"478 949 LINE",
"369 808 LINE"
);
}
);
width = 630;
}
);
unicode = 0143;
},
{
color = 11;
glyphname = Ncaron;
lastChange = "2025-02-14 18:34:36 +0000";
layers = (
{
anchors = (
{
name = bottom;
position = "{269, 0}";
},
{
name = top;
position = "{424, 949}";
}
);
hints = (
{
horizontal = 1;
place = "{-35, 21}";
target = up;
type = BottomGhost;
},
{
horizontal = 1;
place = "{773, 106}";
type = Stem;
},
{
place = "{145, 257}";
type = Stem;
}
);
layerId = m01;
paths = (
{
closed = 1;
nodes = (
"116 0 LINE",
"204 630 LINE",
"210 630 LINE",
"401 0 LINE",
"520 0 LINE",
"622 727 LINE",
"546 727 LINE",
"457 98 LINE",
"451 98 LINE",
"260 727 LINE",
"142 727 LINE",
"40 0 LINE"
);
},
{
closed = 1;
nodes = (
"364 808 LINE",
"446 808 LINE",
"555 949 LINE",
"479 949 LINE",
"410 855 LINE",
"367 949 LINE",
"293 949 LINE"
);
}
);
width = 630;
}
);
unicode = 0147;
},
{
color = 11;
glyphname = Ncommaaccent;
lastChange = "2025-02-14 18:34:36 +0000";
layers = (
{
anchors = (
{
name = bottom;
position = "{218, -231}";
},
{
name = top;
position = "{393, 727}";
}
);
hints = (
{
horizontal = 1;
place = "{-35, 21}";
target = up;
type = BottomGhost;
}
);
layerId = m01;
paths = (
{
closed = 1;
nodes = (
"116 0 LINE",
"204 630 LINE",
"210 630 LINE",
"401 0 LINE",
"520 0 LINE",
"622 727 LINE",
"546 727 LINE",
"457 98 LINE",
"451 98 LINE",
"260 727 LINE",
"142 727 LINE",
"40 0 LINE"
);
},
{
closed = 1;
nodes = (
"213 -231 LINE",
"300 -65 LINE",
"219 -65 LINE",
"159 -231 LINE"
);
}
);
width = 630;
}
);
unicode = 0145;
},
{
glyphname = Eng;
lastChange = "2025-02-14 18:34:36 +0000";
layers = (
{
anchors = (
{
name = bottom;
position = "{269, 0}";
},
{
name = top;
position = "{393, 727}";
}
);
hints = (
{
horizontal = 1;
place = "{-35, 21}";
target = up;
type = BottomGhost;
}
);
layerId = m01;
paths = (
{
closed = 1;
nodes = (
"384 -190 LINE SMOOTH",
"472 -190 OFFCURVE",
"498 -169 OFFCURVE",
"514 -56 CURVE SMOOTH",
"592 505 LINE",
"590 505 LINE",
"622 727 LINE",
"546 727 LINE",
"457 98 LINE",
"451 98 LINE",
"260 727 LINE",
"142 727 LINE",
"40 0 LINE",
"116 0 LINE",
"204 630 LINE",
"210 630 LINE",
"401 0 LINE",
"446 0 LINE",
"436 -67 LINE SMOOTH",
"428 -122 OFFCURVE",
"419 -126 OFFCURVE",
"363 -126 CURVE",
"356 -190 LINE"
);
}
);
width = 632;
}
);
leftMetricsKey = H;
rightMetricsKey = H;
unicode = 014A;
},
{
color = 11;
glyphname = Ntilde;
lastChange = "2025-02-14 18:36:02 +0000";
layers = (
{
anchors = (
{
name = bottom;
position = "{269, 0}";
},
{
name = top;
position = "{420, 924}";
}
);
hints = (
{
horizontal = 1;
place = "{-35, 21}";
target = up;
type = BottomGhost;
}
);
layerId = m01;
paths = (
{
closed = 1;
nodes = (
"116 0 LINE",
"204 630 LINE",
"210 630 LINE",
"401 0 LINE",
"520 0 LINE",
"622 727 LINE",
"546 727 LINE",
"457 98 LINE",
"451 98 LINE",
"260 727 LINE",
"142 727 LINE",
"40 0 LINE"
);
},
{
closed = 1;
nodes = (
"300 806 LINE",
"306 831 OFFCURVE",
"330 853 OFFCURVE",
"356 853 CURVE SMOOTH",
"391 853 OFFCURVE",
"413 815 OFFCURVE",
"460 815 CURVE SMOOTH",
"486 815 OFFCURVE",
"509 825 OFFCURVE",
"530 845 CURVE",
"549 865 OFFCURVE",
"563 893 OFFCURVE",
"570 922 CURVE",
"519 926 LINE",
"511 896 OFFCURVE",
"495 879 OFFCURVE",
"466 879 CURVE SMOOTH",
"426 879 OFFCURVE",
"421 916 OFFCURVE",
"365 916 CURVE SMOOTH",
"308 916 OFFCURVE",
"271 879 OFFCURVE",
"254 810 CURVE"
);
}
);
width = 630;
}
);
unicode = 00D1;
},
{
color = 3;
glyphname = O;
lastChange = "2025-02-14 18:35:57 +0000";
layers = (
{
anchors = (
{
name = bottom;
position = "{230, 0}";
},
{
name = center;
position = "{286, 364}";
},
{
name = ogonek;
position = "{453, 10}";
},
{
name = top;
position = "{332, 727}";
},
{
name = topleft;
position = "{85, 727}";
},
{
name = topright;
position = "{588, 727}";
}
);
layerId = m01;
paths = (
{
closed = 1;
nodes = (
"370 -10 OFFCURVE",
"454 72 OFFCURVE",
"474 214 CURVE SMOOTH",
"515 508 LINE SMOOTH",
"518 528 OFFCURVE",
"519 546 OFFCURVE",
"519 564 CURVE SMOOTH",
"519 677 OFFCURVE",
"459 737 OFFCURVE",
"330 737 CURVE SMOOTH",
"186 737 OFFCURVE",
"117 659 OFFCURVE",
"96 512 CURVE SMOOTH",
"55 218 LINE SMOOTH",
"52 199 OFFCURVE",
"51 182 OFFCURVE",
"51 165 CURVE SMOOTH",
"51 56 OFFCURVE",
"109 -10 OFFCURVE",
"231 -10 CURVE SMOOTH"
);
},
{
closed = 1;
nodes = (
"172 510 LINE SMOOTH",
"187 613 OFFCURVE",
"228 670 OFFCURVE",
"327 670 CURVE SMOOTH",
"409 670 OFFCURVE",
"444 636 OFFCURVE",
"444 561 CURVE SMOOTH",
"444 547 OFFCURVE",
"442 531 OFFCURVE",
"440 514 CURVE SMOOTH",
"398 216 LINE SMOOTH",
"383 112 OFFCURVE",
"332 57 OFFCURVE",
"234 57 CURVE SMOOTH",
"155 57 OFFCURVE",
"126 91 OFFCURVE",
"126 162 CURVE SMOOTH",
"126 177 OFFCURVE",
"128 194 OFFCURVE",
"130 212 CURVE SMOOTH"
);
}
);
vertWidth = 1200;
width = 539;
}
);
leftKerningGroup = O;
note = O;
rightKerningGroup = O;
unicode = 004F;
},
{
color = 11;
glyphname = Oacute;
lastChange = "2025-02-14 18:35:57 +0000";
layers = (
{
anchors = (
{
name = bottom;
position = "{230, 0}";
},
{
name = center;
position = "{286, 364}";
},
{
name = ogonek;
position = "{453, 10}";
},
{
name = top;
position = "{363, 949}";
},
{
name = topleft;
position = "{85, 727}";
},
{
name = topright;
position = "{588, 727}";
}
);
layerId = m01;
paths = (
{
closed = 1;
nodes = (
"370 -10 OFFCURVE",
"454 72 OFFCURVE",
"474 214 CURVE SMOOTH",
"515 508 LINE SMOOTH",
"518 528 OFFCURVE",
"519 546 OFFCURVE",
"519 564 CURVE SMOOTH",
"519 677 OFFCURVE",
"459 737 OFFCURVE",
"330 737 CURVE SMOOTH",
"186 737 OFFCURVE",
"117 659 OFFCURVE",
"96 512 CURVE SMOOTH",
"55 218 LINE SMOOTH",
"52 199 OFFCURVE",
"51 182 OFFCURVE",
"51 165 CURVE SMOOTH",
"51 56 OFFCURVE",
"109 -10 OFFCURVE",
"231 -10 CURVE SMOOTH"
);
},
{
closed = 1;
nodes = (
"172 510 LINE SMOOTH",
"187 613 OFFCURVE",
"228 670 OFFCURVE",
"327 670 CURVE SMOOTH",
"409 670 OFFCURVE",
"444 636 OFFCURVE",
"444 561 CURVE SMOOTH",
"444 547 OFFCURVE",
"442 531 OFFCURVE",
"440 514 CURVE SMOOTH",
"398 216 LINE SMOOTH",
"383 112 OFFCURVE",
"332 57 OFFCURVE",
"234 57 CURVE SMOOTH",
"155 57 OFFCURVE",
"126 91 OFFCURVE",
"126 162 CURVE SMOOTH",
"126 177 OFFCURVE",
"128 194 OFFCURVE",
"130 212 CURVE SMOOTH"
);
},
{
closed = 1;
nodes = (
"377 808 LINE",
"517 949 LINE",
"417 949 LINE",
"308 808 LINE"
);
}
);
width = 539;
}
);
leftKerningGroup = O;
rightKerningGroup = O;
unicode = 00D3;
},
{
color = 11;
glyphname = Ocircumflex;
lastChange = "2025-02-14 18:35:57 +0000";
layers = (
{
anchors = (
{
name = bottom;
position = "{230, 0}";
},
{
name = center;
position = "{286, 364}";
},
{
name = ogonek;
position = "{453, 10}";
},
{
name = top;
position = "{363, 949}";
},
{
name = topleft;
position = "{85, 727}";
},
{
name = topright;
position = "{588, 727}";
}
);
layerId = m01;
paths = (
{
closed = 1;
nodes = (
"370 -10 OFFCURVE",
"454 72 OFFCURVE",
"474 214 CURVE SMOOTH",
"515 508 LINE SMOOTH",
"518 528 OFFCURVE",
"519 546 OFFCURVE",
"519 564 CURVE SMOOTH",
"519 677 OFFCURVE",
"459 737 OFFCURVE",
"330 737 CURVE SMOOTH",
"186 737 OFFCURVE",
"117 659 OFFCURVE",
"96 512 CURVE SMOOTH",
"55 218 LINE SMOOTH",
"52 199 OFFCURVE",
"51 182 OFFCURVE",
"51 165 CURVE SMOOTH",
"51 56 OFFCURVE",
"109 -10 OFFCURVE",
"231 -10 CURVE SMOOTH"
);
},
{
closed = 1;
nodes = (
"288 808 LINE",
"357 902 LINE",
"400 808 LINE",
"473 808 LINE",
"403 949 LINE",
"321 949 LINE",
"211 808 LINE"
);
},
{
closed = 1;
nodes = (
"172 510 LINE SMOOTH",
"187 613 OFFCURVE",
"228 670 OFFCURVE",
"327 670 CURVE SMOOTH",
"409 670 OFFCURVE",
"444 636 OFFCURVE",
"444 561 CURVE SMOOTH",
"444 547 OFFCURVE",
"442 531 OFFCURVE",
"440 514 CURVE SMOOTH",
"398 216 LINE SMOOTH",
"383 112 OFFCURVE",
"332 57 OFFCURVE",
"234 57 CURVE SMOOTH",
"155 57 OFFCURVE",
"126 91 OFFCURVE",
"126 162 CURVE SMOOTH",
"126 177 OFFCURVE",
"128 194 OFFCURVE",
"130 212 CURVE SMOOTH"
);
}
);
width = 539;
}
);
leftKerningGroup = O;
rightKerningGroup = O;
unicode = 00D4;
},
{
color = 11;
glyphname = Odieresis;
lastChange = "2025-02-14 18:35:57 +0000";
layers = (
{
anchors = (
{
name = bottom;
position = "{230, 0}";
},
{
name = center;
position = "{286, 364}";
},
{
name = ogonek;
position = "{453, 10}";
},
{
name = top;
position = "{355, 896}";
},
{
name = topleft;
position = "{85, 727}";
},
{
name = topright;
position = "{588, 727}";
}
);
hints = (
{
horizontal = 1;
place = "{798, 48}";
type = Stem;
},
{
place = "{280, 45}";
type = Stem;
},
{
place = "{100, 45}";
type = Stem;
},
{
horizontal = 1;
place = "{798, 48}";
type = Stem;
},
{
place = "{269, 45}";
type = Stem;
},
{
place = "{89, 45}";
type = Stem;
}
);
layerId = m01;
paths = (
{
closed = 1;
nodes = (
"370 -10 OFFCURVE",
"454 72 OFFCURVE",
"474 214 CURVE SMOOTH",
"515 508 LINE SMOOTH",
"518 528 OFFCURVE",
"519 546 OFFCURVE",
"519 564 CURVE SMOOTH",
"519 677 OFFCURVE",
"459 737 OFFCURVE",
"330 737 CURVE SMOOTH",
"186 737 OFFCURVE",
"117 659 OFFCURVE",
"96 512 CURVE SMOOTH",
"55 218 LINE SMOOTH",
"52 199 OFFCURVE",
"51 182 OFFCURVE",
"51 165 CURVE SMOOTH",
"51 56 OFFCURVE",
"109 -10 OFFCURVE",
"231 -10 CURVE SMOOTH"
);
},
{
closed = 1;
nodes = (
"294 813 LINE",
"305 896 LINE",
"225 896 LINE",
"214 813 LINE"
);
},
{
closed = 1;
nodes = (
"172 510 LINE SMOOTH",
"187 613 OFFCURVE",
"228 670 OFFCURVE",
"327 670 CURVE SMOOTH",
"409 670 OFFCURVE",
"444 636 OFFCURVE",
"444 561 CURVE SMOOTH",
"444 547 OFFCURVE",
"442 531 OFFCURVE",
"440 514 CURVE SMOOTH",
"398 216 LINE SMOOTH",
"383 112 OFFCURVE",
"332 57 OFFCURVE",
"234 57 CURVE SMOOTH",
"155 57 OFFCURVE",
"126 91 OFFCURVE",
"126 162 CURVE SMOOTH",
"126 177 OFFCURVE",
"128 194 OFFCURVE",
"130 212 CURVE SMOOTH"
);
},
{
closed = 1;
nodes = (
"474 813 LINE",
"485 896 LINE",
"405 896 LINE",
"394 813 LINE"
);
}
);
width = 539;
}
);
leftKerningGroup = O;
rightKerningGroup = O;
unicode = 00D6;
},
{
color = 11;
glyphname = Ograve;
lastChange = "2025-02-14 18:35:57 +0000";
layers = (
{
anchors = (
{
name = bottom;
position = "{230, 0}";
},
{
name = center;
position = "{286, 364}";
},
{
name = ogonek;
position = "{453, 10}";
},
{
name = top;
position = "{363, 949}";
},
{
name = topleft;
position = "{85, 727}";
},
{
name = topright;
position = "{588, 727}";
}
);
layerId = m01;
paths = (
{
closed = 1;
nodes = (
"370 -10 OFFCURVE",
"454 72 OFFCURVE",
"474 214 CURVE SMOOTH",
"515 508 LINE SMOOTH",
"518 528 OFFCURVE",
"519 546 OFFCURVE",
"519 564 CURVE SMOOTH",
"519 677 OFFCURVE",
"459 737 OFFCURVE",
"330 737 CURVE SMOOTH",
"186 737 OFFCURVE",
"117 659 OFFCURVE",
"96 512 CURVE SMOOTH",
"55 218 LINE SMOOTH",
"52 199 OFFCURVE",
"51 182 OFFCURVE",
"51 165 CURVE SMOOTH",
"51 56 OFFCURVE",
"109 -10 OFFCURVE",
"231 -10 CURVE SMOOTH"
);
},
{
closed = 1;
nodes = (
"311 808 LINE",
"376 808 LINE",
"307 949 LINE",
"209 949 LINE"
);
},
{
closed = 1;
nodes = (
"172 510 LINE SMOOTH",
"187 613 OFFCURVE",
"228 670 OFFCURVE",
"327 670 CURVE SMOOTH",
"409 670 OFFCURVE",
"444 636 OFFCURVE",
"444 561 CURVE SMOOTH",
"444 547 OFFCURVE",
"442 531 OFFCURVE",
"440 514 CURVE SMOOTH",
"398 216 LINE SMOOTH",
"383 112 OFFCURVE",
"332 57 OFFCURVE",
"234 57 CURVE SMOOTH",
"155 57 OFFCURVE",
"126 91 OFFCURVE",
"126 162 CURVE SMOOTH",
"126 177 OFFCURVE",
"128 194 OFFCURVE",
"130 212 CURVE SMOOTH"
);
}
);
width = 539;
}
);
leftKerningGroup = O;
rightKerningGroup = O;
unicode = 00D2;
},
{
color = 11;
glyphname = Ohungarumlaut;
lastChange = "2025-02-14 18:35:57 +0000";
layers = (
{
anchors = (
{
name = bottom;
position = "{230, 0}";
},
{
name = center;
position = "{286, 364}";
},
{
name = ogonek;
position = "{453, 10}";
},
{
name = top;
position = "{397, 949}";
},
{
name = topleft;
position = "{85, 727}";
},
{
name = topright;
position = "{588, 727}";
}
);
hints = (
{
horizontal = 1;
place = "{773, 106}";
type = Stem;
}
);
layerId = m01;
paths = (
{
closed = 1;
nodes = (
"370 -10 OFFCURVE",
"454 72 OFFCURVE",
"474 214 CURVE SMOOTH",
"515 508 LINE SMOOTH",
"518 528 OFFCURVE",
"519 546 OFFCURVE",
"519 564 CURVE SMOOTH",
"519 677 OFFCURVE",
"459 737 OFFCURVE",
"330 737 CURVE SMOOTH",
"186 737 OFFCURVE",
"117 659 OFFCURVE",
"96 512 CURVE SMOOTH",
"55 218 LINE SMOOTH",
"52 199 OFFCURVE",
"51 182 OFFCURVE",
"51 165 CURVE SMOOTH",
"51 56 OFFCURVE",
"109 -10 OFFCURVE",
"231 -10 CURVE SMOOTH"
);
},
{
closed = 1;
nodes = (
"172 510 LINE SMOOTH",
"187 613 OFFCURVE",
"228 670 OFFCURVE",
"327 670 CURVE SMOOTH",
"409 670 OFFCURVE",
"444 636 OFFCURVE",
"444 561 CURVE SMOOTH",
"444 547 OFFCURVE",
"442 531 OFFCURVE",
"440 514 CURVE SMOOTH",
"398 216 LINE SMOOTH",
"383 112 OFFCURVE",
"332 57 OFFCURVE",
"234 57 CURVE SMOOTH",
"155 57 OFFCURVE",
"126 91 OFFCURVE",
"126 162 CURVE SMOOTH",
"126 177 OFFCURVE",
"128 194 OFFCURVE",
"130 212 CURVE SMOOTH"
);
},
{
closed = 1;
nodes = (
"292 808 LINE",
"432 949 LINE",
"332 949 LINE",
"223 808 LINE"
);
},
{
closed = 1;
nodes = (
"439 808 LINE",
"579 949 LINE",
"479 949 LINE",
"370 808 LINE"
);
}
);
width = 539;
}
);
leftKerningGroup = O;
rightKerningGroup = O;
unicode = 0150;
},
{
color = 11;
glyphname = Omacron;
lastChange = "2025-02-14 18:35:57 +0000";
layers = (
{
anchors = (
{
name = bottom;
position = "{230, 0}";
},
{
name = center;
position = "{286, 364}";
},
{
name = ogonek;
position = "{453, 10}";
},
{
name = top;
position = "{352, 869}";
},
{
name = topleft;
position = "{85, 727}";
},
{
name = topright;
position = "{588, 727}";
}
);
hints = (
{
horizontal = 1;
place = "{795, 26}";
type = Stem;
},
{
place = "{126, 172}";
type = Stem;
},
{
horizontal = 1;
place = "{795, 26}";
type = Stem;
},
{
place = "{116, 172}";
type = Stem;
}
);
layerId = m01;
paths = (
{
closed = 1;
nodes = (
"370 -10 OFFCURVE",
"454 72 OFFCURVE",
"474 214 CURVE SMOOTH",
"515 508 LINE SMOOTH",
"518 528 OFFCURVE",
"519 546 OFFCURVE",
"519 564 CURVE SMOOTH",
"519 677 OFFCURVE",
"459 737 OFFCURVE",
"330 737 CURVE SMOOTH",
"186 737 OFFCURVE",
"117 659 OFFCURVE",
"96 512 CURVE SMOOTH",
"55 218 LINE SMOOTH",
"52 199 OFFCURVE",
"51 182 OFFCURVE",
"51 165 CURVE SMOOTH",
"51 56 OFFCURVE",
"109 -10 OFFCURVE",
"231 -10 CURVE SMOOTH"
);
},
{
closed = 1;
nodes = (
"172 510 LINE SMOOTH",
"187 613 OFFCURVE",
"228 670 OFFCURVE",
"327 670 CURVE SMOOTH",
"409 670 OFFCURVE",
"444 636 OFFCURVE",
"444 561 CURVE SMOOTH",
"444 547 OFFCURVE",
"442 531 OFFCURVE",
"440 514 CURVE SMOOTH",
"398 216 LINE SMOOTH",
"383 112 OFFCURVE",
"332 57 OFFCURVE",
"234 57 CURVE SMOOTH",
"155 57 OFFCURVE",
"126 91 OFFCURVE",
"126 162 CURVE SMOOTH",
"126 177 OFFCURVE",
"128 194 OFFCURVE",
"130 212 CURVE SMOOTH"
);
},
{
closed = 1;
nodes = (
"447 808 LINE",
"456 869 LINE",
"248 869 LINE",
"239 808 LINE"
);
}
);
width = 539;
}
);
leftKerningGroup = O;
rightKerningGroup = O;
unicode = 014C;
},
{
glyphname = Oslash;
lastChange = "2025-02-14 18:36:02 +0000";
layers = (
{
anchors = (
{
name = bottom;
position = "{230, 0}";
},
{
name = center;
position = "{286, 364}";
},
{
name = ogonek;
position = "{453, 10}";
},
{
name = top;
position = "{332, 727}";
},
{
name = topleft;
position = "{85, 727}";
},
{
name = topright;
position = "{588, 727}";
}
);
layerId = m01;
paths = (
{
closed = 1;
nodes = (
"433 718 LINE",
"407 730 OFFCURVE",
"373 737 OFFCURVE",
"330 737 CURVE SMOOTH",
"186 737 OFFCURVE",
"117 659 OFFCURVE",
"96 512 CURVE SMOOTH",
"55 218 LINE SMOOTH",
"52 200 OFFCURVE",
"51 183 OFFCURVE",
"51 167 CURVE SMOOTH",
"51 107 OFFCURVE",
"68 61 OFFCURVE",
"102 31 CURVE",
"61 -50 LINE",
"111 -50 LINE",
"140 7 LINE",
"164 -4 OFFCURVE",
"194 -10 OFFCURVE",
"231 -10 CURVE SMOOTH",
"370 -10 OFFCURVE",
"454 72 OFFCURVE",
"474 214 CURVE SMOOTH",
"515 508 LINE SMOOTH",
"518 527 OFFCURVE",
"519 546 OFFCURVE",
"519 563 CURVE SMOOTH",
"519 621 OFFCURVE",
"503 665 OFFCURVE",
"471 694 CURVE",
"513 777 LINE",
"463 777 LINE"
);
},
{
closed = 1;
nodes = (
"172 510 LINE SMOOTH",
"187 613 OFFCURVE",
"228 670 OFFCURVE",
"327 670 CURVE SMOOTH",
"359 670 OFFCURVE",
"385 665 OFFCURVE",
"404 653 CURVE",
"136 104 LINE",
"129 119 OFFCURVE",
"126 137 OFFCURVE",
"126 159 CURVE SMOOTH",
"126 175 OFFCURVE",
"128 193 OFFCURVE",
"130 212 CURVE"
);
},
{
closed = 1;
nodes = (
"435 617 LINE",
"441 602 OFFCURVE",
"444 584 OFFCURVE",
"444 562 CURVE SMOOTH",
"444 548 OFFCURVE",
"442 532 OFFCURVE",
"440 514 CURVE SMOOTH",
"398 216 LINE SMOOTH",
"383 112 OFFCURVE",
"332 57 OFFCURVE",
"234 57 CURVE SMOOTH",
"207 57 OFFCURVE",
"185 61 OFFCURVE",
"168 70 CURVE"
);
}
);
width = 539;
}
);
leftKerningGroup = O;
leftMetricsKey = O;
rightKerningGroup = O;
rightMetricsKey = O;
unicode = 00D8;
},
{
color = 11;
glyphname = Otilde;
lastChange = "2025-02-14 18:36:02 +0000";
layers = (
{
anchors = (
{
name = bottom;
position = "{230, 0}";
},
{
name = center;
position = "{286, 364}";
},
{
name = ogonek;
position = "{453, 10}";
},
{
name = top;
position = "{359, 924}";
},
{
name = topleft;
position = "{85, 727}";
},
{
name = topright;
position = "{588, 727}";
}
);
layerId = m01;
paths = (
{
closed = 1;
nodes = (
"370 -10 OFFCURVE",
"454 72 OFFCURVE",
"474 214 CURVE SMOOTH",
"515 508 LINE SMOOTH",
"518 528 OFFCURVE",
"519 546 OFFCURVE",
"519 564 CURVE SMOOTH",
"519 677 OFFCURVE",
"459 737 OFFCURVE",
"330 737 CURVE SMOOTH",
"186 737 OFFCURVE",
"117 659 OFFCURVE",
"96 512 CURVE SMOOTH",
"55 218 LINE SMOOTH",
"52 199 OFFCURVE",
"51 182 OFFCURVE",
"51 165 CURVE SMOOTH",
"51 56 OFFCURVE",
"109 -10 OFFCURVE",
"231 -10 CURVE SMOOTH"
);
},
{
closed = 1;
nodes = (
"239 806 LINE",
"245 831 OFFCURVE",
"269 853 OFFCURVE",
"295 853 CURVE SMOOTH",
"330 853 OFFCURVE",
"352 815 OFFCURVE",
"399 815 CURVE SMOOTH",
"425 815 OFFCURVE",
"448 825 OFFCURVE",
"469 845 CURVE",
"488 865 OFFCURVE",
"502 893 OFFCURVE",
"509 922 CURVE",
"458 926 LINE",
"450 896 OFFCURVE",
"434 879 OFFCURVE",
"405 879 CURVE SMOOTH",
"365 879 OFFCURVE",
"360 916 OFFCURVE",
"304 916 CURVE SMOOTH",
"247 916 OFFCURVE",
"210 879 OFFCURVE",
"193 810 CURVE"
);
},
{
closed = 1;
nodes = (
"172 510 LINE SMOOTH",
"187 613 OFFCURVE",
"228 670 OFFCURVE",
"327 670 CURVE SMOOTH",
"409 670 OFFCURVE",
"444 636 OFFCURVE",
"444 561 CURVE SMOOTH",
"444 547 OFFCURVE",
"442 531 OFFCURVE",
"440 514 CURVE SMOOTH",
"398 216 LINE SMOOTH",
"383 112 OFFCURVE",
"332 57 OFFCURVE",
"234 57 CURVE SMOOTH",
"155 57 OFFCURVE",
"126 91 OFFCURVE",
"126 162 CURVE SMOOTH",
"126 177 OFFCURVE",
"128 194 OFFCURVE",
"130 212 CURVE SMOOTH"
);
}
);
width = 539;
}
);
leftKerningGroup = O;
rightKerningGroup = O;
unicode = 00D5;
},
{
glyphname = OE;
lastChange = "2025-02-14 18:35:57 +0000";
layers = (
{
background = {
paths = (
{
closed = 1;
nodes = (
"333 -10 OFFCURVE",
"378 16 OFFCURVE",
"403 64 CURVE",
"403 0 LINE",
"763 0 LINE",
"763 70 LINE",
"479 70 LINE",
"479 336 LINE",
"736 336 LINE",
"736 406 LINE",
"479 406 LINE",
"479 657 LINE",
"760 657 LINE",
"760 727 LINE",
"403 727 LINE",
"403 670 LINE",
"379 714 OFFCURVE",
"335 737 OFFCURVE",
"255 737 CURVE SMOOTH",
"119 737 OFFCURVE",
"60 657 OFFCURVE",
"60 510 CURVE SMOOTH",
"60 216 LINE SMOOTH",
"60 75 OFFCURVE",
"125 -10 OFFCURVE",
"255 -10 CURVE SMOOTH"
);
},
{
closed = 1;
nodes = (
"136 512 LINE SMOOTH",
"136 615 OFFCURVE",
"168 670 OFFCURVE",
"265 670 CURVE SMOOTH",
"365 670 OFFCURVE",
"403 620 OFFCURVE",
"403 512 CURVE SMOOTH",
"403 214 LINE SMOOTH",
"403 110 OFFCURVE",
"361 57 OFFCURVE",
"265 57 CURVE SMOOTH",
"167 57 OFFCURVE",
"136 110 OFFCURVE",
"136 214 CURVE SMOOTH"
);
},
{
closed = 1;
nodes = (
"390 667 LINE",
"419 667 LINE",
"419 680 LINE",
"390 680 LINE"
);
},
{
closed = 1;
nodes = (
"390 54 LINE",
"419 54 LINE",
"419 67 LINE",
"390 67 LINE"
);
}
);
};
layerId = m01;
paths = (
{
closed = 1;
nodes = (
"292 -10 OFFCURVE",
"338 10 OFFCURVE",
"370 52 CURVE",
"375 54 LINE",
"368 0 LINE",
"728 0 LINE",
"737 70 LINE",
"453 70 LINE",
"491 336 LINE",
"748 336 LINE",
"758 406 LINE",
"501 406 LINE",
"536 657 LINE",
"817 657 LINE",
"827 727 LINE",
"470 727 LINE",
"463 680 LINE",
"456 678 LINE",
"436 715 OFFCURVE",
"396 737 OFFCURVE",
"320 737 CURVE SMOOTH",
"186 737 OFFCURVE",
"117 659 OFFCURVE",
"96 512 CURVE SMOOTH",
"55 218 LINE SMOOTH",
"52 199 OFFCURVE",
"51 181 OFFCURVE",
"51 165 CURVE SMOOTH",
"51 55 OFFCURVE",
"107 -10 OFFCURVE",
"221 -10 CURVE SMOOTH"
);
},
{
closed = 1;
nodes = (
"172 510 LINE SMOOTH",
"187 613 OFFCURVE",
"228 670 OFFCURVE",
"327 670 CURVE SMOOTH",
"409 670 OFFCURVE",
"444 636 OFFCURVE",
"444 561 CURVE SMOOTH",
"444 547 OFFCURVE",
"442 531 OFFCURVE",
"440 514 CURVE SMOOTH",
"398 216 LINE SMOOTH",
"383 112 OFFCURVE",
"332 57 OFFCURVE",
"234 57 CURVE SMOOTH",
"155 57 OFFCURVE",
"126 91 OFFCURVE",
"126 162 CURVE SMOOTH",
"126 177 OFFCURVE",
"128 194 OFFCURVE",
"130 212 CURVE SMOOTH"
);
}
);
width = 808;
}
);
leftKerningGroup = O;
leftMetricsKey = O;
rightMetricsKey = E;
unicode = 0152;
},
{
glyphname = P;
lastChange = "2025-02-14 18:35:57 +0000";
layers = (
{
anchors = (
{
name = bottom;
position = "{207, 0}";
},
{
name = top;
position = "{309, 727}";
}
);
layerId = m01;
paths = (
{
closed = 1;
nodes = (
"116 0 LINE",
"161 323 LINE",
"277 323 LINE SMOOTH",
"406 323 OFFCURVE",
"477 387 OFFCURVE",
"495 519 CURVE SMOOTH",
"498 537 OFFCURVE",
"499 554 OFFCURVE",
"499 570 CURVE SMOOTH",
"499 674 OFFCURVE",
"442 727 OFFCURVE",
"332 727 CURVE SMOOTH",
"142 727 LINE",
"40 0 LINE"
);
},
{
closed = 1;
nodes = (
"208 656 LINE",
"302 656 LINE SMOOTH",
"385 656 OFFCURVE",
"423 627 OFFCURVE",
"423 560 CURVE SMOOTH",
"423 550 OFFCURVE",
"422 538 OFFCURVE",
"420 526 CURVE SMOOTH",
"407 432 OFFCURVE",
"359 394 OFFCURVE",
"262 394 CURVE SMOOTH",
"171 394 LINE"
);
}
);
vertWidth = 1200;
width = 488;
}
);
leftMetricsKey = H;
note = P;
rightKerningGroup = P;
rightMetricsKey = L;
unicode = 0050;
},
{
glyphname = Thorn;
lastChange = "2025-02-14 18:35:57 +0000";
layers = (
{
layerId = m01;
paths = (
{
closed = 1;
nodes = (
"116 0 LINE",
"138 163 LINE",
"255 163 LINE SMOOTH",
"384 163 OFFCURVE",
"454 227 OFFCURVE",
"473 359 CURVE SMOOTH",
"475 377 OFFCURVE",
"477 393 OFFCURVE",
"477 408 CURVE SMOOTH",
"477 514 OFFCURVE",
"420 567 OFFCURVE",
"310 567 CURVE SMOOTH",
"195 567 LINE",
"218 727 LINE",
"142 727 LINE",
"40 0 LINE"
);
},
{
closed = 1;
nodes = (
"185 496 LINE",
"280 496 LINE SMOOTH",
"363 496 OFFCURVE",
"401 467 OFFCURVE",
"401 400 CURVE SMOOTH",
"401 390 OFFCURVE",
"400 378 OFFCURVE",
"398 366 CURVE SMOOTH",
"385 272 OFFCURVE",
"337 234 OFFCURVE",
"240 234 CURVE SMOOTH",
"148 234 LINE"
);
}
);
width = 488;
}
);
leftMetricsKey = H;
rightKerningGroup = P;
rightMetricsKey = L;
unicode = 00DE;
},
{
glyphname = Q;
lastChange = "2025-02-14 18:35:57 +0000";
layers = (
{
anchors = (
{
name = bottom;
position = "{236, 0}";
},
{
name = top;
position = "{338, 727}";
}
);
layerId = m01;
paths = (
{
closed = 1;
nodes = (
"493 0 LINE",
"500 65 LINE",
"469 65 OFFCURVE",
"422 60 OFFCURVE",
"377 49 CURVE",
"380 53 LINE",
"430 95 OFFCURVE",
"466 157 OFFCURVE",
"476 234 CURVE SMOOTH",
"515 508 LINE SMOOTH",
"518 528 OFFCURVE",
"519 546 OFFCURVE",
"519 564 CURVE SMOOTH",
"519 677 OFFCURVE",
"459 737 OFFCURVE",
"330 737 CURVE SMOOTH",
"186 737 OFFCURVE",
"117 659 OFFCURVE",
"96 512 CURVE SMOOTH",
"57 228 LINE SMOOTH",
"54 209 OFFCURVE",
"53 191 OFFCURVE",
"53 174 CURVE SMOOTH",
"53 65 OFFCURVE",
"110 0 OFFCURVE",
"231 0 CURVE SMOOTH"
);
},
{
closed = 1;
nodes = (
"172 510 LINE SMOOTH",
"187 613 OFFCURVE",
"228 670 OFFCURVE",
"327 670 CURVE SMOOTH",
"409 670 OFFCURVE",
"444 636 OFFCURVE",
"444 561 CURVE SMOOTH",
"444 547 OFFCURVE",
"442 531 OFFCURVE",
"440 514 CURVE SMOOTH",
"399 226 LINE SMOOTH",
"385 122 OFFCURVE",
"333 67 OFFCURVE",
"236 67 CURVE SMOOTH",
"157 67 OFFCURVE",
"128 101 OFFCURVE",
"128 170 CURVE SMOOTH",
"128 185 OFFCURVE",
"129 203 OFFCURVE",
"132 222 CURVE SMOOTH"
);
}
);
vertWidth = 1200;
width = 558;
}
);
leftKerningGroup = O;
leftMetricsKey = O;
note = Q;
rightMetricsKey = L;
unicode = 0051;
},
{
glyphname = R;
lastChange = "2025-02-14 18:35:57 +0000";
layers = (
{
anchors = (
{
name = bottom;
position = "{238, 0}";
},
{
name = top;
position = "{313, 727}";
}
);
background = {
paths = (
{
closed = 1;
nodes = (
"218 333 LINE",
"302 333 OFFCURVE",
"340 319 OFFCURVE",
"353 281 CURVE SMOOTH",
"360 255 OFFCURVE",
"364 225 OFFCURVE",
"369 149 CURVE SMOOTH",
"374 59 OFFCURVE",
"378 27 OFFCURVE",
"389 0 CURVE",
"476 0 LINE",
"458 42 OFFCURVE",
"452 71 OFFCURVE",
"450 129 CURVE SMOOTH",
"444 323 OFFCURVE",
"430 355 OFFCURVE",
"338 375 CURVE"
);
},
{
closed = 1;
nodes = (
"151 0 LINE",
"151 371 LINE",
"266 371 LINE SMOOTH",
"375 371 OFFCURVE",
"458 389 OFFCURVE",
"458 523 CURVE SMOOTH",
"458 659 OFFCURVE",
"393 727 OFFCURVE",
"267 727 CURVE SMOOTH",
"75 727 LINE",
"75 0 LINE"
);
},
{
closed = 1;
nodes = (
"151 656 LINE",
"244 656 LINE SMOOTH",
"340 656 OFFCURVE",
"382 616 OFFCURVE",
"382 522 CURVE SMOOTH",
"382 430 OFFCURVE",
"341 394 OFFCURVE",
"244 394 CURVE SMOOTH",
"151 394 LINE"
);
},
{
closed = 1;
nodes = (
"144 333 LINE",
"348 333 LINE",
"348 382 LINE",
"144 382 LINE"
);
}
);
};
layerId = m01;
paths = (
{
closed = 1;
nodes = (
"116 0 LINE",
"162 333 LINE",
"231 333 LINE SMOOTH",
"315 333 OFFCURVE",
"350 321 OFFCURVE",
"358 285 CURVE",
"359 273 OFFCURVE",
"360 261 OFFCURVE",
"360 246 CURVE SMOOTH",
"360 225 OFFCURVE",
"359 196 OFFCURVE",
"355 153 CURVE SMOOTH",
"351 105 OFFCURVE",
"349 74 OFFCURVE",
"349 51 CURVE SMOOTH",
"349 29 OFFCURVE",
"351 15 OFFCURVE",
"354 2 CURVE",
"440 -2 LINE",
"432 25 OFFCURVE",
"429 47 OFFCURVE",
"429 73 CURVE SMOOTH",
"429 88 OFFCURVE",
"430 105 OFFCURVE",
"432 125 CURVE SMOOTH",
"438 179 OFFCURVE",
"441 221 OFFCURVE",
"441 253 CURVE SMOOTH",
"441 334 OFFCURVE",
"420 357 OFFCURVE",
"363 372 CURVE",
"367 377 LINE",
"435 389 OFFCURVE",
"482 423 OFFCURVE",
"495 519 CURVE SMOOTH",
"498 537 OFFCURVE",
"499 554 OFFCURVE",
"499 570 CURVE SMOOTH",
"499 674 OFFCURVE",
"442 727 OFFCURVE",
"332 727 CURVE SMOOTH",
"142 727 LINE",
"40 0 LINE"
);
},
{
closed = 1;
nodes = (
"208 656 LINE",
"302 656 LINE SMOOTH",
"385 656 OFFCURVE",
"423 627 OFFCURVE",
"423 560 CURVE SMOOTH",
"423 550 OFFCURVE",
"422 538 OFFCURVE",
"420 526 CURVE SMOOTH",
"407 432 OFFCURVE",
"359 394 OFFCURVE",
"262 394 CURVE SMOOTH",
"171 394 LINE"
);
}
);
vertWidth = 1200;
width = 536;
}
);
leftMetricsKey = H;
note = R;
rightKerningGroup = R;
rightMetricsKey = O;
unicode = 0052;
},
{
color = 11;
glyphname = Racute;
lastChange = "2025-02-14 18:35:57 +0000";
layers = (
{
anchors = (
{
name = bottom;
position = "{238, 0}";
},
{
name = top;
position = "{344, 949}";
}
);
layerId = m01;
paths = (
{
closed = 1;
nodes = (
"116 0 LINE",
"162 333 LINE",
"231 333 LINE SMOOTH",
"315 333 OFFCURVE",
"350 321 OFFCURVE",
"358 285 CURVE",
"359 273 OFFCURVE",
"360 261 OFFCURVE",
"360 246 CURVE SMOOTH",
"360 225 OFFCURVE",
"359 196 OFFCURVE",
"355 153 CURVE SMOOTH",
"351 105 OFFCURVE",
"349 74 OFFCURVE",
"349 51 CURVE SMOOTH",
"349 29 OFFCURVE",
"351 15 OFFCURVE",
"354 2 CURVE",
"440 -2 LINE",
"432 25 OFFCURVE",
"429 47 OFFCURVE",
"429 73 CURVE SMOOTH",
"429 88 OFFCURVE",
"430 105 OFFCURVE",
"432 125 CURVE SMOOTH",
"438 179 OFFCURVE",
"441 221 OFFCURVE",
"441 253 CURVE SMOOTH",
"441 334 OFFCURVE",
"420 357 OFFCURVE",
"363 372 CURVE",
"367 377 LINE",
"435 389 OFFCURVE",
"482 423 OFFCURVE",
"495 519 CURVE SMOOTH",
"498 537 OFFCURVE",
"499 554 OFFCURVE",
"499 570 CURVE SMOOTH",
"499 674 OFFCURVE",
"442 727 OFFCURVE",
"332 727 CURVE SMOOTH",
"142 727 LINE",
"40 0 LINE"
);
},
{
closed = 1;
nodes = (
"208 656 LINE",
"302 656 LINE SMOOTH",
"385 656 OFFCURVE",
"423 627 OFFCURVE",
"423 560 CURVE SMOOTH",
"423 550 OFFCURVE",
"422 538 OFFCURVE",
"420 526 CURVE SMOOTH",
"407 432 OFFCURVE",
"359 394 OFFCURVE",
"262 394 CURVE SMOOTH",
"171 394 LINE"
);
},
{
closed = 1;
nodes = (
"358 808 LINE",
"498 949 LINE",
"398 949 LINE",
"289 808 LINE"
);
}
);
width = 536;
}
);
rightKerningGroup = R;
unicode = 0154;
},
{
color = 11;
glyphname = Rcaron;
lastChange = "2025-02-14 18:35:57 +0000";
layers = (
{
anchors = (
{
name = bottom;
position = "{238, 0}";
},
{
name = top;
position = "{344, 949}";
}
);
hints = (
{
horizontal = 1;
place = "{773, 106}";
type = Stem;
},
{
place = "{65, 257}";
type = Stem;
}
);
layerId = m01;
paths = (
{
closed = 1;
nodes = (
"116 0 LINE",
"162 333 LINE",
"231 333 LINE SMOOTH",
"315 333 OFFCURVE",
"350 321 OFFCURVE",
"358 285 CURVE",
"359 273 OFFCURVE",
"360 261 OFFCURVE",
"360 246 CURVE SMOOTH",
"360 225 OFFCURVE",
"359 196 OFFCURVE",
"355 153 CURVE SMOOTH",
"351 105 OFFCURVE",
"349 74 OFFCURVE",
"349 51 CURVE SMOOTH",
"349 29 OFFCURVE",
"351 15 OFFCURVE",
"354 2 CURVE",
"440 -2 LINE",
"432 25 OFFCURVE",
"429 47 OFFCURVE",
"429 73 CURVE SMOOTH",
"429 88 OFFCURVE",
"430 105 OFFCURVE",
"432 125 CURVE SMOOTH",
"438 179 OFFCURVE",
"441 221 OFFCURVE",
"441 253 CURVE SMOOTH",
"441 334 OFFCURVE",
"420 357 OFFCURVE",
"363 372 CURVE",
"367 377 LINE",
"435 389 OFFCURVE",
"482 423 OFFCURVE",
"495 519 CURVE SMOOTH",
"498 537 OFFCURVE",
"499 554 OFFCURVE",
"499 570 CURVE SMOOTH",
"499 674 OFFCURVE",
"442 727 OFFCURVE",
"332 727 CURVE SMOOTH",
"142 727 LINE",
"40 0 LINE"
);
},
{
closed = 1;
nodes = (
"284 808 LINE",
"366 808 LINE",
"475 949 LINE",
"399 949 LINE",
"330 855 LINE",
"287 949 LINE",
"213 949 LINE"
);
},
{
closed = 1;
nodes = (
"208 656 LINE",
"302 656 LINE SMOOTH",
"385 656 OFFCURVE",
"423 627 OFFCURVE",
"423 560 CURVE SMOOTH",
"423 550 OFFCURVE",
"422 538 OFFCURVE",
"420 526 CURVE SMOOTH",
"407 432 OFFCURVE",
"359 394 OFFCURVE",
"262 394 CURVE SMOOTH",
"171 394 LINE"
);
}
);
width = 536;
}
);
rightKerningGroup = R;
unicode = 0158;
},
{
color = 11;
glyphname = Rcommaaccent;
lastChange = "2025-02-14 18:35:57 +0000";
layers = (
{
anchors = (
{
name = bottom;
position = "{187, -231}";
},
{
name = top;
position = "{313, 727}";
}
);
layerId = m01;
paths = (
{
closed = 1;
nodes = (
"116 0 LINE",
"162 333 LINE",
"231 333 LINE SMOOTH",
"315 333 OFFCURVE",
"350 321 OFFCURVE",
"358 285 CURVE",
"359 273 OFFCURVE",
"360 261 OFFCURVE",
"360 246 CURVE SMOOTH",
"360 225 OFFCURVE",
"359 196 OFFCURVE",
"355 153 CURVE SMOOTH",
"351 105 OFFCURVE",
"349 74 OFFCURVE",
"349 51 CURVE SMOOTH",
"349 29 OFFCURVE",
"351 15 OFFCURVE",
"354 2 CURVE",
"440 -2 LINE",
"432 25 OFFCURVE",
"429 47 OFFCURVE",
"429 73 CURVE SMOOTH",
"429 88 OFFCURVE",
"430 105 OFFCURVE",
"432 125 CURVE SMOOTH",
"438 179 OFFCURVE",
"441 221 OFFCURVE",
"441 253 CURVE SMOOTH",
"441 334 OFFCURVE",
"420 357 OFFCURVE",
"363 372 CURVE",
"367 377 LINE",
"435 389 OFFCURVE",
"482 423 OFFCURVE",
"495 519 CURVE SMOOTH",
"498 537 OFFCURVE",
"499 554 OFFCURVE",
"499 570 CURVE SMOOTH",
"499 674 OFFCURVE",
"442 727 OFFCURVE",
"332 727 CURVE SMOOTH",
"142 727 LINE",
"40 0 LINE"
);
},
{
closed = 1;
nodes = (
"208 656 LINE",
"302 656 LINE SMOOTH",
"385 656 OFFCURVE",
"423 627 OFFCURVE",
"423 560 CURVE SMOOTH",
"423 550 OFFCURVE",
"422 538 OFFCURVE",
"420 526 CURVE SMOOTH",
"407 432 OFFCURVE",
"359 394 OFFCURVE",
"262 394 CURVE SMOOTH",
"171 394 LINE"
);
},
{
closed = 1;
nodes = (
"182 -231 LINE",
"269 -65 LINE",
"188 -65 LINE",
"128 -231 LINE"
);
}
);
width = 536;
}
);
rightKerningGroup = R;
unicode = 0156;
},
{
color = 3;
glyphname = S;
lastChange = "2025-02-14 18:36:02 +0000";
layers = (
{
anchors = (
{
name = bottom;
position = "{228, 0}";
},
{
name = top;
position = "{330, 727}";
}
);
layerId = m01;
paths = (
{
closed = 1;
nodes = (
"359 -10 OFFCURVE",
"445 58 OFFCURVE",
"462 182 CURVE SMOOTH",
"464 194 OFFCURVE",
"464 205 OFFCURVE",
"464 215 CURVE SMOOTH",
"464 412 OFFCURVE",
"183 395 OFFCURVE",
"183 539 CURVE SMOOTH",
"183 544 OFFCURVE",
"183 549 OFFCURVE",
"184 555 CURVE SMOOTH",
"194 626 OFFCURVE",
"250 670 OFFCURVE",
"326 670 CURVE SMOOTH",
"395 670 OFFCURVE",
"429 638 OFFCURVE",
"429 573 CURVE SMOOTH",
"429 563 OFFCURVE",
"429 553 OFFCURVE",
"427 541 CURVE SMOOTH",
"423 519 LINE",
"505 519 LINE",
"508 538 LINE SMOOTH",
"511 556 OFFCURVE",
"513 572 OFFCURVE",
"513 588 CURVE SMOOTH",
"513 687 OFFCURVE",
"445 737 OFFCURVE",
"329 737 CURVE SMOOTH",
"208 737 OFFCURVE",
"125 671 OFFCURVE",
"109 555 CURVE",
"107 544 OFFCURVE",
"107 534 OFFCURVE",
"107 524 CURVE SMOOTH",
"107 334 OFFCURVE",
"387 346 OFFCURVE",
"387 201 CURVE SMOOTH",
"387 195 OFFCURVE",
"387 189 OFFCURVE",
"386 183 CURVE SMOOTH",
"375 105 OFFCURVE",
"314 57 OFFCURVE",
"228 57 CURVE SMOOTH",
"152 57 OFFCURVE",
"118 88 OFFCURVE",
"118 160 CURVE SMOOTH",
"118 174 OFFCURVE",
"120 190 OFFCURVE",
"122 207 CURVE SMOOTH",
"126 239 LINE",
"45 239 LINE",
"38 200 LINE",
"36 184 OFFCURVE",
"35 169 OFFCURVE",
"35 155 CURVE SMOOTH",
"35 44 OFFCURVE",
"100 -10 OFFCURVE",
"227 -10 CURVE SMOOTH"
);
}
);
vertWidth = 1200;
width = 517;
}
);
leftKerningGroup = S;
note = S;
rightKerningGroup = S;
unicode = 0053;
},
{
color = 11;
glyphname = Sacute;
lastChange = "2025-02-14 18:36:02 +0000";
layers = (
{
anchors = (
{
name = bottom;
position = "{228, 0}";
},
{
name = top;
position = "{361, 949}";
}
);
layerId = m01;
paths = (
{
closed = 1;
nodes = (
"359 -10 OFFCURVE",
"445 58 OFFCURVE",
"462 182 CURVE SMOOTH",
"464 194 OFFCURVE",
"464 205 OFFCURVE",
"464 215 CURVE SMOOTH",
"464 412 OFFCURVE",
"183 395 OFFCURVE",
"183 539 CURVE SMOOTH",
"183 544 OFFCURVE",
"183 549 OFFCURVE",
"184 555 CURVE SMOOTH",
"194 626 OFFCURVE",
"250 670 OFFCURVE",
"326 670 CURVE SMOOTH",
"395 670 OFFCURVE",
"429 638 OFFCURVE",
"429 573 CURVE SMOOTH",
"429 563 OFFCURVE",
"429 553 OFFCURVE",
"427 541 CURVE SMOOTH",
"423 519 LINE",
"505 519 LINE",
"508 538 LINE SMOOTH",
"511 556 OFFCURVE",
"513 572 OFFCURVE",
"513 588 CURVE SMOOTH",
"513 687 OFFCURVE",
"445 737 OFFCURVE",
"329 737 CURVE SMOOTH",
"208 737 OFFCURVE",
"125 671 OFFCURVE",
"109 555 CURVE",
"107 544 OFFCURVE",
"107 534 OFFCURVE",
"107 524 CURVE SMOOTH",
"107 334 OFFCURVE",
"387 346 OFFCURVE",
"387 201 CURVE SMOOTH",
"387 195 OFFCURVE",
"387 189 OFFCURVE",
"386 183 CURVE SMOOTH",
"375 105 OFFCURVE",
"314 57 OFFCURVE",
"228 57 CURVE SMOOTH",
"152 57 OFFCURVE",
"118 88 OFFCURVE",
"118 160 CURVE SMOOTH",
"118 174 OFFCURVE",
"120 190 OFFCURVE",
"122 207 CURVE SMOOTH",
"126 239 LINE",
"45 239 LINE",
"38 200 LINE",
"36 184 OFFCURVE",
"35 169 OFFCURVE",
"35 155 CURVE SMOOTH",
"35 44 OFFCURVE",
"100 -10 OFFCURVE",
"227 -10 CURVE SMOOTH"
);
},
{
closed = 1;
nodes = (
"375 808 LINE",
"515 949 LINE",
"415 949 LINE",
"306 808 LINE"
);
}
);
width = 517;
}
);
leftKerningGroup = S;
rightKerningGroup = S;
unicode = 015A;
},
{
color = 11;
glyphname = Scaron;
lastChange = "2025-02-14 18:36:02 +0000";
layers = (
{
anchors = (
{
name = bottom;
position = "{228, 0}";
},
{
name = top;
position = "{361, 949}";
}
);
hints = (
{
horizontal = 1;
place = "{773, 106}";
type = Stem;
},
{
place = "{82, 257}";
type = Stem;
}
);
layerId = m01;
paths = (
{
closed = 1;
nodes = (
"359 -10 OFFCURVE",
"445 58 OFFCURVE",
"462 182 CURVE SMOOTH",
"464 194 OFFCURVE",
"464 205 OFFCURVE",
"464 215 CURVE SMOOTH",
"464 412 OFFCURVE",
"183 395 OFFCURVE",
"183 539 CURVE SMOOTH",
"183 544 OFFCURVE",
"183 549 OFFCURVE",
"184 555 CURVE SMOOTH",
"194 626 OFFCURVE",
"250 670 OFFCURVE",
"326 670 CURVE SMOOTH",
"395 670 OFFCURVE",
"429 638 OFFCURVE",
"429 573 CURVE SMOOTH",
"429 563 OFFCURVE",
"429 553 OFFCURVE",
"427 541 CURVE SMOOTH",
"423 519 LINE",
"505 519 LINE",
"508 538 LINE SMOOTH",
"511 556 OFFCURVE",
"513 572 OFFCURVE",
"513 588 CURVE SMOOTH",
"513 687 OFFCURVE",
"445 737 OFFCURVE",
"329 737 CURVE SMOOTH",
"208 737 OFFCURVE",
"125 671 OFFCURVE",
"109 555 CURVE",
"107 544 OFFCURVE",
"107 534 OFFCURVE",
"107 524 CURVE SMOOTH",
"107 334 OFFCURVE",
"387 346 OFFCURVE",
"387 201 CURVE SMOOTH",
"387 195 OFFCURVE",
"387 189 OFFCURVE",
"386 183 CURVE SMOOTH",
"375 105 OFFCURVE",
"314 57 OFFCURVE",
"228 57 CURVE SMOOTH",
"152 57 OFFCURVE",
"118 88 OFFCURVE",
"118 160 CURVE SMOOTH",
"118 174 OFFCURVE",
"120 190 OFFCURVE",
"122 207 CURVE SMOOTH",
"126 239 LINE",
"45 239 LINE",
"38 200 LINE",
"36 184 OFFCURVE",
"35 169 OFFCURVE",
"35 155 CURVE SMOOTH",
"35 44 OFFCURVE",
"100 -10 OFFCURVE",
"227 -10 CURVE SMOOTH"
);
},
{
closed = 1;
nodes = (
"301 808 LINE",
"383 808 LINE",
"492 949 LINE",
"416 949 LINE",
"347 855 LINE",
"304 949 LINE",
"230 949 LINE"
);
}
);
width = 517;
}
);
leftKerningGroup = S;
rightKerningGroup = S;
unicode = 0160;
},
{
color = 11;
glyphname = Scedilla;
lastChange = "2025-02-14 18:36:02 +0000";
layers = (
{
anchors = (
{
name = bottom;
position = "{185, -225}";
},
{
name = top;
position = "{330, 727}";
}
);
hints = (
{
place = "{248, 41}";
type = Stem;
}
);
layerId = m01;
paths = (
{
closed = 1;
nodes = (
"199 -80 OFFCURVE",
"210 -76 OFFCURVE",
"222 -76 CURVE SMOOTH",
"244 -76 OFFCURVE",
"263 -89 OFFCURVE",
"263 -114 CURVE SMOOTH",
"263 -146 OFFCURVE",
"234 -182 OFFCURVE",
"191 -182 CURVE SMOOTH",
"167 -182 OFFCURVE",
"143 -173 OFFCURVE",
"133 -157 CURVE",
"99 -183 LINE",
"120 -212 OFFCURVE",
"155 -227 OFFCURVE",
"193 -227 CURVE SMOOTH",
"253 -227 OFFCURVE",
"316 -189 OFFCURVE",
"316 -116 CURVE SMOOTH",
"316 -62 OFFCURVE",
"277 -36 OFFCURVE",
"233 -35 CURVE",
"253 -9 LINE",
"370 0 OFFCURVE",
"446 67 OFFCURVE",
"462 182 CURVE SMOOTH",
"464 194 OFFCURVE",
"464 205 OFFCURVE",
"464 215 CURVE SMOOTH",
"464 412 OFFCURVE",
"183 395 OFFCURVE",
"183 539 CURVE SMOOTH",
"183 544 OFFCURVE",
"183 549 OFFCURVE",
"184 555 CURVE SMOOTH",
"194 626 OFFCURVE",
"250 670 OFFCURVE",
"326 670 CURVE SMOOTH",
"395 670 OFFCURVE",
"429 638 OFFCURVE",
"429 573 CURVE SMOOTH",
"429 563 OFFCURVE",
"429 553 OFFCURVE",
"427 541 CURVE SMOOTH",
"423 519 LINE",
"505 519 LINE",
"508 538 LINE SMOOTH",
"511 556 OFFCURVE",
"513 572 OFFCURVE",
"513 588 CURVE SMOOTH",
"513 687 OFFCURVE",
"445 737 OFFCURVE",
"329 737 CURVE SMOOTH",
"208 737 OFFCURVE",
"125 671 OFFCURVE",
"109 555 CURVE",
"107 544 OFFCURVE",
"107 534 OFFCURVE",
"107 524 CURVE SMOOTH",
"107 334 OFFCURVE",
"387 346 OFFCURVE",
"387 201 CURVE SMOOTH",
"387 195 OFFCURVE",
"387 189 OFFCURVE",
"386 183 CURVE SMOOTH",
"375 105 OFFCURVE",
"314 57 OFFCURVE",
"228 57 CURVE SMOOTH",
"152 57 OFFCURVE",
"118 88 OFFCURVE",
"118 160 CURVE SMOOTH",
"118 174 OFFCURVE",
"120 190 OFFCURVE",
"122 207 CURVE SMOOTH",
"126 239 LINE",
"45 239 LINE",
"38 200 LINE",
"36 184 OFFCURVE",
"35 168 OFFCURVE",
"35 154 CURVE SMOOTH",
"35 54 OFFCURVE",
"89 0 OFFCURVE",
"194 -9 CURVE",
"156 -65 LINE",
"189 -86 LINE"
);
}
);
width = 517;
}
);
leftKerningGroup = S;
rightKerningGroup = S;
unicode = 015E;
},
{
color = 11;
glyphname = Scommaaccent;
lastChange = "2025-02-14 18:36:02 +0000";
layers = (
{
anchors = (
{
name = bottom;
position = "{177, -231}";
},
{
name = top;
position = "{330, 727}";
}
);
layerId = m01;
paths = (
{
closed = 1;
nodes = (
"359 -10 OFFCURVE",
"445 58 OFFCURVE",
"462 182 CURVE SMOOTH",
"464 194 OFFCURVE",
"464 205 OFFCURVE",
"464 215 CURVE SMOOTH",
"464 412 OFFCURVE",
"183 395 OFFCURVE",
"183 539 CURVE SMOOTH",
"183 544 OFFCURVE",
"183 549 OFFCURVE",
"184 555 CURVE SMOOTH",
"194 626 OFFCURVE",
"250 670 OFFCURVE",
"326 670 CURVE SMOOTH",
"395 670 OFFCURVE",
"429 638 OFFCURVE",
"429 573 CURVE SMOOTH",
"429 563 OFFCURVE",
"429 553 OFFCURVE",
"427 541 CURVE SMOOTH",
"423 519 LINE",
"505 519 LINE",
"508 538 LINE SMOOTH",
"511 556 OFFCURVE",
"513 572 OFFCURVE",
"513 588 CURVE SMOOTH",
"513 687 OFFCURVE",
"445 737 OFFCURVE",
"329 737 CURVE SMOOTH",
"208 737 OFFCURVE",
"125 671 OFFCURVE",
"109 555 CURVE",
"107 544 OFFCURVE",
"107 534 OFFCURVE",
"107 524 CURVE SMOOTH",
"107 334 OFFCURVE",
"387 346 OFFCURVE",
"387 201 CURVE SMOOTH",
"387 195 OFFCURVE",
"387 189 OFFCURVE",
"386 183 CURVE SMOOTH",
"375 105 OFFCURVE",
"314 57 OFFCURVE",
"228 57 CURVE SMOOTH",
"152 57 OFFCURVE",
"118 88 OFFCURVE",
"118 160 CURVE SMOOTH",
"118 174 OFFCURVE",
"120 190 OFFCURVE",
"122 207 CURVE SMOOTH",
"126 239 LINE",
"45 239 LINE",
"38 200 LINE",
"36 184 OFFCURVE",
"35 169 OFFCURVE",
"35 155 CURVE SMOOTH",
"35 44 OFFCURVE",
"100 -10 OFFCURVE",
"227 -10 CURVE SMOOTH"
);
},
{
closed = 1;
nodes = (
"172 -231 LINE",
"259 -65 LINE",
"178 -65 LINE",
"118 -231 LINE"
);
}
);
width = 517;
}
);
leftKerningGroup = S;
rightKerningGroup = S;
unicode = 0218;
},
{
glyphname = T;
lastChange = "2025-02-14 18:34:36 +0000";
layers = (
{
anchors = (
{
name = bottom;
position = "{222, 0}";
},
{
name = center;
position = "{268, 364}";
},
{
name = top;
position = "{324, 727}";
}
);
hints = (
{
horizontal = 1;
place = "{-35, 21}";
target = up;
type = BottomGhost;
}
);
layerId = m01;
paths = (
{
closed = 1;
nodes = (
"260 0 LINE",
"352 657 LINE",
"541 657 LINE",
"551 727 LINE",
"97 727 LINE",
"87 657 LINE",
"276 657 LINE",
"184 0 LINE"
);
}
);
vertWidth = 1200;
width = 514;
}
);
leftKerningGroup = T;
leftMetricsKey = J;
note = T;
rightKerningGroup = T;
rightMetricsKey = L;
unicode = 0054;
},
{
glyphname = Tbar;
lastChange = "2025-02-14 18:34:36 +0000";
layers = (
{
anchors = (
{
name = bottom;
position = "{222, 0}";
},
{
name = center;
position = "{268, 364}";
},
{
name = top;
position = "{324, 727}";
}
);
hints = (
{
horizontal = 1;
place = "{-35, 21}";
target = up;
type = BottomGhost;
}
);
layerId = m01;
paths = (
{
closed = 1;
nodes = (
"136 366 LINE",
"235 366 LINE",
"184 0 LINE",
"260 0 LINE",
"311 366 LINE",
"427 366 LINE",
"435 422 LINE",
"319 422 LINE",
"352 657 LINE",
"541 657 LINE",
"551 727 LINE",
"97 727 LINE",
"87 657 LINE",
"276 657 LINE",
"243 422 LINE",
"144 422 LINE"
);
}
);
width = 514;
}
);
leftKerningGroup = T;
leftMetricsKey = T;
rightKerningGroup = T;
rightMetricsKey = T;
unicode = 0166;
},
{
color = 11;
glyphname = Tcaron;
lastChange = "2025-02-14 18:34:36 +0000";
layers = (
{
anchors = (
{
name = bottom;
position = "{222, 0}";
},
{
name = center;
position = "{268, 364}";
},
{
name = top;
position = "{355, 949}";
}
);
hints = (
{
horizontal = 1;
place = "{-35, 21}";
target = up;
type = BottomGhost;
},
{
horizontal = 1;
place = "{773, 106}";
type = Stem;
},
{
place = "{76, 257}";
type = Stem;
}
);
layerId = m01;
paths = (
{
closed = 1;
nodes = (
"260 0 LINE",
"352 657 LINE",
"541 657 LINE",
"551 727 LINE",
"97 727 LINE",
"87 657 LINE",
"276 657 LINE",
"184 0 LINE"
);
},
{
closed = 1;
nodes = (
"295 808 LINE",
"377 808 LINE",
"486 949 LINE",
"410 949 LINE",
"341 855 LINE",
"298 949 LINE",
"224 949 LINE"
);
}
);
width = 514;
}
);
leftKerningGroup = T;
rightKerningGroup = T;
unicode = 0164;
},
{
color = 11;
glyphname = Tcedilla;
lastChange = "2025-02-14 18:35:57 +0000";
layers = (
{
anchors = (
{
name = bottom;
position = "{179, -225}";
},
{
name = center;
position = "{268, 364}";
},
{
name = top;
position = "{324, 727}";
}
);
hints = (
{
horizontal = 1;
place = "{-35, 21}";
target = up;
type = BottomGhost;
},
{
place = "{242, 41}";
type = Stem;
}
);
layerId = m01;
paths = (
{
closed = 1;
nodes = (
"191 0 LINE",
"150 -65 LINE",
"183 -86 LINE",
"193 -80 OFFCURVE",
"204 -76 OFFCURVE",
"216 -76 CURVE SMOOTH",
"238 -76 OFFCURVE",
"257 -89 OFFCURVE",
"257 -114 CURVE SMOOTH",
"257 -146 OFFCURVE",
"228 -182 OFFCURVE",
"185 -182 CURVE SMOOTH",
"161 -182 OFFCURVE",
"137 -173 OFFCURVE",
"127 -157 CURVE",
"93 -183 LINE",
"114 -212 OFFCURVE",
"149 -227 OFFCURVE",
"187 -227 CURVE SMOOTH",
"247 -227 OFFCURVE",
"310 -189 OFFCURVE",
"310 -116 CURVE SMOOTH",
"310 -62 OFFCURVE",
"271 -36 OFFCURVE",
"227 -35 CURVE",
"251 0 LINE",
"260 0 LINE",
"263 18 LINE",
"263 20 LINE",
"262 20 LINE",
"352 657 LINE",
"541 657 LINE",
"551 727 LINE",
"97 727 LINE",
"87 657 LINE",
"276 657 LINE",
"184 0 LINE"
);
}
);
width = 514;
}
);
leftKerningGroup = T;
rightKerningGroup = T;
unicode = 0162;
},
{
color = 11;
glyphname = Tcommaaccent;
lastChange = "2025-02-14 18:34:36 +0000";
layers = (
{
anchors = (
{
name = bottom;
position = "{171, -231}";
},
{
name = center;
position = "{268, 364}";
},
{
name = top;
position = "{324, 727}";
}
);
hints = (
{
horizontal = 1;
place = "{-35, 21}";
target = up;
type = BottomGhost;
}
);
layerId = m01;
paths = (
{
closed = 1;
nodes = (
"260 0 LINE",
"352 657 LINE",
"541 657 LINE",
"551 727 LINE",
"97 727 LINE",
"87 657 LINE",
"276 657 LINE",
"184 0 LINE"
);
},
{
closed = 1;
nodes = (
"166 -231 LINE",
"253 -65 LINE",
"172 -65 LINE",
"112 -231 LINE"
);
}
);
width = 514;
}
);
leftKerningGroup = T;
rightKerningGroup = T;
unicode = 021A;
},
{
glyphname = U;
lastChange = "2025-02-14 18:35:57 +0000";
layers = (
{
anchors = (
{
name = bottom;
position = "{230, 0}";
},
{
name = ogonek;
position = "{306, 0}";
},
{
name = top;
position = "{332, 727}";
},
{
name = topright;
position = "{586, 727}";
}
);
layerId = m01;
paths = (
{
closed = 1;
nodes = (
"398 216 LINE SMOOTH",
"383 112 OFFCURVE",
"332 57 OFFCURVE",
"234 57 CURVE SMOOTH",
"155 57 OFFCURVE",
"126 91 OFFCURVE",
"126 162 CURVE SMOOTH",
"126 177 OFFCURVE",
"128 194 OFFCURVE",
"130 212 CURVE SMOOTH",
"203 727 LINE",
"127 727 LINE",
"55 218 LINE SMOOTH",
"52 199 OFFCURVE",
"51 182 OFFCURVE",
"51 165 CURVE SMOOTH",
"51 56 OFFCURVE",
"109 -10 OFFCURVE",
"231 -10 CURVE SMOOTH",
"370 -10 OFFCURVE",
"454 72 OFFCURVE",
"474 214 CURVE SMOOTH",
"546 727 LINE",
"470 727 LINE"
);
}
);
vertWidth = 1200;
width = 539;
}
);
leftKerningGroup = U;
leftMetricsKey = O;
note = U;
rightKerningGroup = J;
rightMetricsKey = O;
unicode = 0055;
},
{
color = 11;
glyphname = Uacute;
lastChange = "2025-02-14 18:35:57 +0000";
layers = (
{
anchors = (
{
name = bottom;
position = "{230, 0}";
},
{
name = ogonek;
position = "{306, 0}";
},
{
name = top;
position = "{363, 949}";
},
{
name = topright;
position = "{586, 727}";
}
);
layerId = m01;
paths = (
{
closed = 1;
nodes = (
"398 216 LINE SMOOTH",
"383 112 OFFCURVE",
"332 57 OFFCURVE",
"234 57 CURVE SMOOTH",
"155 57 OFFCURVE",
"126 91 OFFCURVE",
"126 162 CURVE SMOOTH",
"126 177 OFFCURVE",
"128 194 OFFCURVE",
"130 212 CURVE SMOOTH",
"203 727 LINE",
"127 727 LINE",
"55 218 LINE SMOOTH",
"52 199 OFFCURVE",
"51 182 OFFCURVE",
"51 165 CURVE SMOOTH",
"51 56 OFFCURVE",
"109 -10 OFFCURVE",
"231 -10 CURVE SMOOTH",
"370 -10 OFFCURVE",
"454 72 OFFCURVE",
"474 214 CURVE SMOOTH",
"546 727 LINE",
"470 727 LINE"
);
},
{
closed = 1;
nodes = (
"377 808 LINE",
"517 949 LINE",
"417 949 LINE",
"308 808 LINE"
);
}
);
width = 539;
}
);
leftKerningGroup = U;
rightKerningGroup = J;
unicode = 00DA;
},
{
color = 11;
glyphname = Ucircumflex;
lastChange = "2025-02-14 18:35:57 +0000";
layers = (
{
anchors = (
{
name = bottom;
position = "{230, 0}";
},
{
name = ogonek;
position = "{306, 0}";
},
{
name = top;
position = "{363, 949}";
},
{
name = topright;
position = "{586, 727}";
}
);
layerId = m01;
paths = (
{
closed = 1;
nodes = (
"398 216 LINE SMOOTH",
"383 112 OFFCURVE",
"332 57 OFFCURVE",
"234 57 CURVE SMOOTH",
"155 57 OFFCURVE",
"126 91 OFFCURVE",
"126 162 CURVE SMOOTH",
"126 177 OFFCURVE",
"128 194 OFFCURVE",
"130 212 CURVE SMOOTH",
"203 727 LINE",
"127 727 LINE",
"55 218 LINE SMOOTH",
"52 199 OFFCURVE",
"51 182 OFFCURVE",
"51 165 CURVE SMOOTH",
"51 56 OFFCURVE",
"109 -10 OFFCURVE",
"231 -10 CURVE SMOOTH",
"370 -10 OFFCURVE",
"454 72 OFFCURVE",
"474 214 CURVE SMOOTH",
"546 727 LINE",
"470 727 LINE"
);
},
{
closed = 1;
nodes = (
"288 808 LINE",
"357 902 LINE",
"400 808 LINE",
"473 808 LINE",
"403 949 LINE",
"321 949 LINE",
"211 808 LINE"
);
}
);
width = 539;
}
);
leftKerningGroup = U;
rightKerningGroup = J;
unicode = 00DB;
},
{
color = 11;
glyphname = Udieresis;
lastChange = "2025-02-14 18:35:57 +0000";
layers = (
{
anchors = (
{
name = bottom;
position = "{230, 0}";
},
{
name = ogonek;
position = "{306, 0}";
},
{
name = top;
position = "{355, 896}";
},
{
name = topright;
position = "{586, 727}";
}
);
hints = (
{
horizontal = 1;
place = "{798, 48}";
type = Stem;
},
{
place = "{280, 45}";
type = Stem;
},
{
place = "{100, 45}";
type = Stem;
},
{
horizontal = 1;
place = "{798, 48}";
type = Stem;
},
{
place = "{269, 45}";
type = Stem;
},
{
place = "{89, 45}";
type = Stem;
}
);
layerId = m01;
paths = (
{
closed = 1;
nodes = (
"398 216 LINE SMOOTH",
"383 112 OFFCURVE",
"332 57 OFFCURVE",
"234 57 CURVE SMOOTH",
"155 57 OFFCURVE",
"126 91 OFFCURVE",
"126 162 CURVE SMOOTH",
"126 177 OFFCURVE",
"128 194 OFFCURVE",
"130 212 CURVE SMOOTH",
"203 727 LINE",
"127 727 LINE",
"55 218 LINE SMOOTH",
"52 199 OFFCURVE",
"51 182 OFFCURVE",
"51 165 CURVE SMOOTH",
"51 56 OFFCURVE",
"109 -10 OFFCURVE",
"231 -10 CURVE SMOOTH",
"370 -10 OFFCURVE",
"454 72 OFFCURVE",
"474 214 CURVE SMOOTH",
"546 727 LINE",
"470 727 LINE"
);
},
{
closed = 1;
nodes = (
"294 813 LINE",
"305 896 LINE",
"225 896 LINE",
"214 813 LINE"
);
},
{
closed = 1;
nodes = (
"474 813 LINE",
"485 896 LINE",
"405 896 LINE",
"394 813 LINE"
);
}
);
width = 539;
}
);
leftKerningGroup = U;
rightKerningGroup = J;
unicode = 00DC;
},
{
color = 11;
glyphname = Ugrave;
lastChange = "2025-02-14 18:35:57 +0000";
layers = (
{
anchors = (
{
name = bottom;
position = "{230, 0}";
},
{
name = ogonek;
position = "{306, 0}";
},
{
name = top;
position = "{363, 949}";
},
{
name = topright;
position = "{586, 727}";
}
);
layerId = m01;
paths = (
{
closed = 1;
nodes = (
"398 216 LINE SMOOTH",
"383 112 OFFCURVE",
"332 57 OFFCURVE",
"234 57 CURVE SMOOTH",
"155 57 OFFCURVE",
"126 91 OFFCURVE",
"126 162 CURVE SMOOTH",
"126 177 OFFCURVE",
"128 194 OFFCURVE",
"130 212 CURVE SMOOTH",
"203 727 LINE",
"127 727 LINE",
"55 218 LINE SMOOTH",
"52 199 OFFCURVE",
"51 182 OFFCURVE",
"51 165 CURVE SMOOTH",
"51 56 OFFCURVE",
"109 -10 OFFCURVE",
"231 -10 CURVE SMOOTH",
"370 -10 OFFCURVE",
"454 72 OFFCURVE",
"474 214 CURVE SMOOTH",
"546 727 LINE",
"470 727 LINE"
);
},
{
closed = 1;
nodes = (
"311 808 LINE",
"376 808 LINE",
"307 949 LINE",
"209 949 LINE"
);
}
);
width = 539;
}
);
leftKerningGroup = U;
rightKerningGroup = J;
unicode = 00D9;
},
{
color = 11;
glyphname = Uhungarumlaut;
lastChange = "2025-02-14 18:35:57 +0000";
layers = (
{
anchors = (
{
name = bottom;
position = "{230, 0}";
},
{
name = ogonek;
position = "{306, 0}";
},
{
name = top;
position = "{397, 949}";
},
{
name = topright;
position = "{586, 727}";
}
);
hints = (
{
horizontal = 1;
place = "{773, 106}";
type = Stem;
}
);
layerId = m01;
paths = (
{
closed = 1;
nodes = (
"398 216 LINE SMOOTH",
"383 112 OFFCURVE",
"332 57 OFFCURVE",
"234 57 CURVE SMOOTH",
"155 57 OFFCURVE",
"126 91 OFFCURVE",
"126 162 CURVE SMOOTH",
"126 177 OFFCURVE",
"128 194 OFFCURVE",
"130 212 CURVE SMOOTH",
"203 727 LINE",
"127 727 LINE",
"55 218 LINE SMOOTH",
"52 199 OFFCURVE",
"51 182 OFFCURVE",
"51 165 CURVE SMOOTH",
"51 56 OFFCURVE",
"109 -10 OFFCURVE",
"231 -10 CURVE SMOOTH",
"370 -10 OFFCURVE",
"454 72 OFFCURVE",
"474 214 CURVE SMOOTH",
"546 727 LINE",
"470 727 LINE"
);
},
{
closed = 1;
nodes = (
"292 808 LINE",
"432 949 LINE",
"332 949 LINE",
"223 808 LINE"
);
},
{
closed = 1;
nodes = (
"439 808 LINE",
"579 949 LINE",
"479 949 LINE",
"370 808 LINE"
);
}
);
width = 539;
}
);
leftKerningGroup = U;
rightKerningGroup = J;
unicode = 0170;
},
{
color = 11;
glyphname = Umacron;
lastChange = "2025-02-14 18:35:57 +0000";
layers = (
{
anchors = (
{
name = bottom;
position = "{230, 0}";
},
{
name = ogonek;
position = "{306, 0}";
},
{
name = top;
position = "{352, 869}";
},
{
name = topright;
position = "{586, 727}";
}
);
hints = (
{
horizontal = 1;
place = "{795, 26}";
type = Stem;
},
{
place = "{126, 172}";
type = Stem;
},
{
horizontal = 1;
place = "{795, 26}";
type = Stem;
},
{
place = "{116, 172}";
type = Stem;
}
);
layerId = m01;
paths = (
{
closed = 1;
nodes = (
"398 216 LINE SMOOTH",
"383 112 OFFCURVE",
"332 57 OFFCURVE",
"234 57 CURVE SMOOTH",
"155 57 OFFCURVE",
"126 91 OFFCURVE",
"126 162 CURVE SMOOTH",
"126 177 OFFCURVE",
"128 194 OFFCURVE",
"130 212 CURVE SMOOTH",
"203 727 LINE",
"127 727 LINE",
"55 218 LINE SMOOTH",
"52 199 OFFCURVE",
"51 182 OFFCURVE",
"51 165 CURVE SMOOTH",
"51 56 OFFCURVE",
"109 -10 OFFCURVE",
"231 -10 CURVE SMOOTH",
"370 -10 OFFCURVE",
"454 72 OFFCURVE",
"474 214 CURVE SMOOTH",
"546 727 LINE",
"470 727 LINE"
);
},
{
closed = 1;
nodes = (
"447 808 LINE",
"456 869 LINE",
"248 869 LINE",
"239 808 LINE"
);
}
);
width = 539;
}
);
leftKerningGroup = U;
rightKerningGroup = J;
unicode = 016A;
},
{
color = 11;
glyphname = Uogonek;
lastChange = "2025-02-14 18:35:57 +0000";
layers = (
{
anchors = (
{
name = bottom;
position = "{230, 0}";
},
{
name = ogonek;
position = "{306, 0}";
},
{
name = top;
position = "{332, 727}";
},
{
name = topright;
position = "{586, 727}";
}
);
layerId = m01;
paths = (
{
closed = 1;
nodes = (
"398 216 LINE SMOOTH",
"383 112 OFFCURVE",
"332 57 OFFCURVE",
"234 57 CURVE SMOOTH",
"155 57 OFFCURVE",
"126 91 OFFCURVE",
"126 162 CURVE SMOOTH",
"126 177 OFFCURVE",
"128 194 OFFCURVE",
"130 212 CURVE SMOOTH",
"203 727 LINE",
"127 727 LINE",
"55 218 LINE SMOOTH",
"52 199 OFFCURVE",
"51 181 OFFCURVE",
"51 164 CURVE SMOOTH",
"51 55 OFFCURVE",
"108 -10 OFFCURVE",
"228 -9 CURVE",
"187 -40 OFFCURVE",
"174 -66 OFFCURVE",
"174 -109 CURVE SMOOTH",
"174 -164 OFFCURVE",
"215 -188 OFFCURVE",
"275 -188 CURVE SMOOTH",
"287 -188 OFFCURVE",
"301 -187 OFFCURVE",
"315 -185 CURVE",
"321 -124 LINE",
"312 -127 OFFCURVE",
"303 -129 OFFCURVE",
"292 -129 CURVE SMOOTH",
"265 -129 OFFCURVE",
"238 -117 OFFCURVE",
"238 -91 CURVE SMOOTH",
"238 -60 OFFCURVE",
"263 -31 OFFCURVE",
"308 -2 CURVE",
"401 25 OFFCURVE",
"458 100 OFFCURVE",
"474 214 CURVE SMOOTH",
"546 727 LINE",
"470 727 LINE"
);
}
);
width = 539;
}
);
leftKerningGroup = U;
rightKerningGroup = J;
unicode = 0172;
},
{
color = 11;
glyphname = Uring;
lastChange = "2025-02-14 18:36:02 +0000";
layers = (
{
anchors = (
{
name = bottom;
position = "{230, 0}";
},
{
name = ogonek;
position = "{306, 0}";
},
{
name = top;
position = "{366, 970}";
},
{
name = topright;
position = "{586, 727}";
}
);
hints = (
{
horizontal = 1;
place = "{906, 14}";
type = Stem;
},
{
horizontal = 1;
place = "{755, 14}";
type = Stem;
},
{
place = "{279, 13}";
type = Stem;
},
{
place = "{130, 13}";
type = Stem;
}
);
layerId = m01;
paths = (
{
closed = 1;
nodes = (
"398 216 LINE SMOOTH",
"383 112 OFFCURVE",
"332 57 OFFCURVE",
"234 57 CURVE SMOOTH",
"155 57 OFFCURVE",
"126 91 OFFCURVE",
"126 162 CURVE SMOOTH",
"126 177 OFFCURVE",
"128 194 OFFCURVE",
"130 212 CURVE SMOOTH",
"203 727 LINE",
"127 727 LINE",
"55 218 LINE SMOOTH",
"52 199 OFFCURVE",
"51 182 OFFCURVE",
"51 165 CURVE SMOOTH",
"51 56 OFFCURVE",
"109 -10 OFFCURVE",
"231 -10 CURVE SMOOTH",
"370 -10 OFFCURVE",
"454 72 OFFCURVE",
"474 214 CURVE SMOOTH",
"546 727 LINE",
"470 727 LINE"
);
},
{
closed = 1;
nodes = (
"253 808 OFFCURVE",
"290 770 OFFCURVE",
"340 770 CURVE SMOOTH",
"398 772 OFFCURVE",
"442 816 OFFCURVE",
"449 867 CURVE SMOOTH",
"455 925 OFFCURVE",
"414 970 OFFCURVE",
"364 970 CURVE SMOOTH",
"298 970 OFFCURVE",
"253 916 OFFCURVE",
"253 859 CURVE SMOOTH"
);
},
{
closed = 1;
nodes = (
"305 898 OFFCURVE",
"331 921 OFFCURVE",
"362 921 CURVE SMOOTH",
"386 921 OFFCURVE",
"406 902 OFFCURVE",
"403 875 CURVE",
"398 844 OFFCURVE",
"371 819 OFFCURVE",
"341 819 CURVE SMOOTH",
"313 819 OFFCURVE",
"297 840 OFFCURVE",
"300 867 CURVE"
);
}
);
width = 539;
}
);
leftKerningGroup = U;
rightKerningGroup = J;
unicode = 016E;
},
{
color = 3;
glyphname = V;
lastChange = "2025-02-14 18:34:36 +0000";
layers = (
{
anchors = (
{
name = bottom;
position = "{234, 0}";
},
{
name = top;
position = "{336, 727}";
}
);
layerId = m01;
paths = (
{
closed = 1;
nodes = (
"292 0 LINE",
"576 727 LINE",
"495 727 LINE",
"250 88 LINE",
"246 88 LINE",
"176 727 LINE",
"97 727 LINE",
"177 0 LINE"
);
}
);
vertWidth = 1200;
width = 539;
}
);
leftKerningGroup = V;
note = V;
rightKerningGroup = V;
unicode = 0056;
},
{
glyphname = W;
lastChange = "2025-02-14 18:34:36 +0000";
layers = (
{
anchors = (
{
name = bottom;
position = "{393, 0}";
},
{
name = top;
position = "{495, 727}";
}
);
layerId = m01;
paths = (
{
closed = 1;
nodes = (
"243 0 LINE",
"481 657 LINE",
"485 657 LINE",
"528 0 LINE",
"629 0 LINE",
"881 727 LINE",
"807 727 LINE",
"594 106 LINE",
"590 106 LINE",
"548 727 LINE",
"440 727 LINE",
"214 106 LINE",
"210 106 LINE",
"171 727 LINE",
"92 727 LINE",
"140 0 LINE"
);
}
);
vertWidth = 1200;
width = 839;
}
);
leftKerningGroup = V;
leftMetricsKey = V;
note = W;
rightKerningGroup = V;
rightMetricsKey = V;
unicode = 0057;
},
{
color = 11;
glyphname = Wacute;
lastChange = "2025-02-14 18:34:36 +0000";
layers = (
{
anchors = (
{
name = bottom;
position = "{393, 0}";
},
{
name = top;
position = "{526, 949}";
}
);
layerId = m01;
paths = (
{
closed = 1;
nodes = (
"243 0 LINE",
"481 657 LINE",
"485 657 LINE",
"528 0 LINE",
"629 0 LINE",
"881 727 LINE",
"807 727 LINE",
"594 106 LINE",
"590 106 LINE",
"548 727 LINE",
"440 727 LINE",
"214 106 LINE",
"210 106 LINE",
"171 727 LINE",
"92 727 LINE",
"140 0 LINE"
);
},
{
closed = 1;
nodes = (
"540 808 LINE",
"680 949 LINE",
"580 949 LINE",
"471 808 LINE"
);
}
);
width = 839;
}
);
leftKerningGroup = V;
rightKerningGroup = V;
unicode = 1E82;
},
{
color = 11;
glyphname = Wcircumflex;
lastChange = "2025-02-14 18:34:36 +0000";
layers = (
{
anchors = (
{
name = bottom;
position = "{393, 0}";
},
{
name = top;
position = "{526, 949}";
}
);
layerId = m01;
paths = (
{
closed = 1;
nodes = (
"243 0 LINE",
"481 657 LINE",
"485 657 LINE",
"528 0 LINE",
"629 0 LINE",
"881 727 LINE",
"807 727 LINE",
"594 106 LINE",
"590 106 LINE",
"548 727 LINE",
"440 727 LINE",
"214 106 LINE",
"210 106 LINE",
"171 727 LINE",
"92 727 LINE",
"140 0 LINE"
);
},
{
closed = 1;
nodes = (
"451 808 LINE",
"520 902 LINE",
"563 808 LINE",
"636 808 LINE",
"566 949 LINE",
"484 949 LINE",
"374 808 LINE"
);
}
);
width = 839;
}
);
leftKerningGroup = V;
rightKerningGroup = V;
unicode = 0174;
},
{
color = 11;
glyphname = Wdieresis;
lastChange = "2025-02-14 18:34:36 +0000";
layers = (
{
anchors = (
{
name = bottom;
position = "{393, 0}";
},
{
name = top;
position = "{518, 896}";
}
);
hints = (
{
horizontal = 1;
place = "{798, 48}";
type = Stem;
},
{
place = "{443, 45}";
type = Stem;
},
{
place = "{263, 45}";
type = Stem;
},
{
horizontal = 1;
place = "{798, 48}";
type = Stem;
},
{
place = "{432, 45}";
type = Stem;
},
{
place = "{252, 45}";
type = Stem;
}
);
layerId = m01;
paths = (
{
closed = 1;
nodes = (
"243 0 LINE",
"481 657 LINE",
"485 657 LINE",
"528 0 LINE",
"629 0 LINE",
"881 727 LINE",
"807 727 LINE",
"594 106 LINE",
"590 106 LINE",
"548 727 LINE",
"440 727 LINE",
"214 106 LINE",
"210 106 LINE",
"171 727 LINE",
"92 727 LINE",
"140 0 LINE"
);
},
{
closed = 1;
nodes = (
"457 813 LINE",
"468 896 LINE",
"388 896 LINE",
"377 813 LINE"
);
},
{
closed = 1;
nodes = (
"637 813 LINE",
"648 896 LINE",
"568 896 LINE",
"557 813 LINE"
);
}
);
width = 839;
}
);
leftKerningGroup = V;
rightKerningGroup = V;
unicode = 1E84;
},
{
color = 11;
glyphname = Wgrave;
lastChange = "2025-02-14 18:34:36 +0000";
layers = (
{
anchors = (
{
name = bottom;
position = "{393, 0}";
},
{
name = top;
position = "{526, 949}";
}
);
layerId = m01;
paths = (
{
closed = 1;
nodes = (
"243 0 LINE",
"481 657 LINE",
"485 657 LINE",
"528 0 LINE",
"629 0 LINE",
"881 727 LINE",
"807 727 LINE",
"594 106 LINE",
"590 106 LINE",
"548 727 LINE",
"440 727 LINE",
"214 106 LINE",
"210 106 LINE",
"171 727 LINE",
"92 727 LINE",
"140 0 LINE"
);
},
{
closed = 1;
nodes = (
"474 808 LINE",
"539 808 LINE",
"470 949 LINE",
"372 949 LINE"
);
}
);
width = 839;
}
);
leftKerningGroup = V;
rightKerningGroup = V;
unicode = 1E80;
},
{
glyphname = X;
lastChange = "2025-02-14 18:34:36 +0000";
layers = (
{
anchors = (
{
name = bottom;
position = "{218, 0}";
},
{
name = top;
position = "{320, 727}";
}
);
layerId = m01;
paths = (
{
closed = 1;
nodes = (
"73 0 LINE",
"255 277 LINE",
"261 277 LINE",
"364 0 LINE",
"447 0 LINE",
"312 364 LINE",
"550 727 LINE",
"465 727 LINE",
"284 450 LINE",
"278 450 LINE",
"174 727 LINE",
"92 727 LINE",
"228 364 LINE",
"-11 0 LINE"
);
}
);
vertWidth = 1200;
width = 508;
}
);
leftKerningGroup = X;
leftMetricsKey = V;
note = X;
rightKerningGroup = X;
rightMetricsKey = V;
unicode = 0058;
},
{
glyphname = Y;
lastChange = "2025-02-14 18:34:36 +0000";
layers = (
{
anchors = (
{
name = bottom;
position = "{194, 0}";
},
{
name = top;
position = "{296, 727}";
},
{
name = topleft;
position = "{87, 727}";
}
);
layerId = m01;
paths = (
{
closed = 1;
nodes = (
"232 0 LINE",
"274 301 LINE",
"510 727 LINE",
"427 727 LINE",
"251 393 LINE",
"245 393 LINE",
"162 727 LINE",
"82 727 LINE",
"198 301 LINE",
"156 0 LINE"
);
}
);
vertWidth = 1200;
width = 458;
}
);
leftKerningGroup = V;
leftMetricsKey = "=V/2";
note = Y;
rightKerningGroup = V;
rightMetricsKey = "=V/2";
unicode = 0059;
},
{
color = 11;
glyphname = Yacute;
lastChange = "2025-02-14 18:34:36 +0000";
layers = (
{
anchors = (
{
name = bottom;
position = "{194, 0}";
},
{
name = top;
position = "{327, 949}";
},
{
name = topleft;
position = "{87, 727}";
}
);
layerId = m01;
paths = (
{
closed = 1;
nodes = (
"232 0 LINE",
"274 301 LINE",
"510 727 LINE",
"427 727 LINE",
"251 393 LINE",
"245 393 LINE",
"162 727 LINE",
"82 727 LINE",
"198 301 LINE",
"156 0 LINE"
);
},
{
closed = 1;
nodes = (
"341 808 LINE",
"481 949 LINE",
"381 949 LINE",
"272 808 LINE"
);
}
);
width = 458;
}
);
leftKerningGroup = V;
rightKerningGroup = V;
unicode = 00DD;
},
{
color = 11;
glyphname = Ycircumflex;
lastChange = "2025-02-14 18:34:36 +0000";
layers = (
{
anchors = (
{
name = bottom;
position = "{194, 0}";
},
{
name = top;
position = "{327, 949}";
},
{
name = topleft;
position = "{87, 727}";
}
);
layerId = m01;
paths = (
{
closed = 1;
nodes = (
"232 0 LINE",
"274 301 LINE",
"510 727 LINE",
"427 727 LINE",
"251 393 LINE",
"245 393 LINE",
"162 727 LINE",
"82 727 LINE",
"198 301 LINE",
"156 0 LINE"
);
},
{
closed = 1;
nodes = (
"252 808 LINE",
"321 902 LINE",
"364 808 LINE",
"437 808 LINE",
"367 949 LINE",
"285 949 LINE",
"175 808 LINE"
);
}
);
width = 458;
}
);
leftKerningGroup = V;
rightKerningGroup = V;
unicode = 0176;
},
{
color = 11;
glyphname = Ydieresis;
lastChange = "2025-02-14 18:34:36 +0000";
layers = (
{
anchors = (
{
name = bottom;
position = "{194, 0}";
},
{
name = top;
position = "{319, 896}";
},
{
name = topleft;
position = "{87, 727}";
}
);
hints = (
{
horizontal = 1;
place = "{798, 48}";
type = Stem;
},
{
place = "{244, 45}";
type = Stem;
},
{
place = "{64, 45}";
type = Stem;
},
{
horizontal = 1;
place = "{798, 48}";
type = Stem;
},
{
place = "{233, 45}";
type = Stem;
},
{
place = "{53, 45}";
type = Stem;
}
);
layerId = m01;
paths = (
{
closed = 1;
nodes = (
"232 0 LINE",
"274 301 LINE",
"510 727 LINE",
"427 727 LINE",
"251 393 LINE",
"245 393 LINE",
"162 727 LINE",
"82 727 LINE",
"198 301 LINE",
"156 0 LINE"
);
},
{
closed = 1;
nodes = (
"258 813 LINE",
"269 896 LINE",
"189 896 LINE",
"178 813 LINE"
);
},
{
closed = 1;
nodes = (
"438 813 LINE",
"449 896 LINE",
"369 896 LINE",
"358 813 LINE"
);
}
);
width = 458;
}
);
leftKerningGroup = V;
rightKerningGroup = V;
unicode = 0178;
},
{
color = 11;
glyphname = Ygrave;
lastChange = "2025-02-14 18:34:36 +0000";
layers = (
{
anchors = (
{
name = bottom;
position = "{194, 0}";
},
{
name = top;
position = "{327, 949}";
},
{
name = topleft;
position = "{87, 727}";
}
);
layerId = m01;
paths = (
{
closed = 1;
nodes = (
"232 0 LINE",
"274 301 LINE",
"510 727 LINE",
"427 727 LINE",
"251 393 LINE",
"245 393 LINE",
"162 727 LINE",
"82 727 LINE",
"198 301 LINE",
"156 0 LINE"
);
},
{
closed = 1;
nodes = (
"275 808 LINE",
"340 808 LINE",
"271 949 LINE",
"173 949 LINE"
);
}
);
width = 458;
}
);
leftKerningGroup = V;
rightKerningGroup = V;
unicode = 1EF2;
},
{
glyphname = Z;
lastChange = "2025-02-14 18:34:36 +0000";
layers = (
{
anchors = (
{
name = bottom;
position = "{223, 0}";
},
{
name = center;
position = "{272, 364}";
},
{
name = top;
position = "{330, 727}";
}
);
layerId = m01;
paths = (
{
closed = 1;
nodes = (
"435 0 LINE",
"444 70 LINE",
"112 70 LINE",
"114 77 LINE",
"527 655 LINE",
"537 727 LINE",
"123 727 LINE",
"113 657 LINE",
"434 657 LINE",
"432 650 LINE",
"20 79 LINE",
"10 0 LINE"
);
}
);
vertWidth = 1200;
width = 515;
}
);
leftKerningGroup = Z;
leftMetricsKey = S;
note = Z;
rightKerningGroup = Z;
rightMetricsKey = S;
unicode = 005A;
},
{
color = 11;
glyphname = Zacute;
lastChange = "2025-02-14 18:34:36 +0000";
layers = (
{
anchors = (
{
name = bottom;
position = "{223, 0}";
},
{
name = center;
position = "{272, 364}";
},
{
name = top;
position = "{361, 949}";
}
);
layerId = m01;
paths = (
{
closed = 1;
nodes = (
"435 0 LINE",
"444 70 LINE",
"112 70 LINE",
"114 77 LINE",
"527 655 LINE",
"537 727 LINE",
"123 727 LINE",
"113 657 LINE",
"434 657 LINE",
"432 650 LINE",
"20 79 LINE",
"10 0 LINE"
);
},
{
closed = 1;
nodes = (
"375 808 LINE",
"515 949 LINE",
"415 949 LINE",
"306 808 LINE"
);
}
);
width = 515;
}
);
leftKerningGroup = Z;
rightKerningGroup = Z;
unicode = 0179;
},
{
color = 11;
glyphname = Zcaron;
lastChange = "2025-02-14 18:34:36 +0000";
layers = (
{
anchors = (
{
name = bottom;
position = "{223, 0}";
},
{
name = center;
position = "{272, 364}";
},
{
name = top;
position = "{361, 949}";
}
);
hints = (
{
horizontal = 1;
place = "{773, 106}";
type = Stem;
},
{
place = "{82, 257}";
type = Stem;
}
);
layerId = m01;
paths = (
{
closed = 1;
nodes = (
"435 0 LINE",
"444 70 LINE",
"112 70 LINE",
"114 77 LINE",
"527 655 LINE",
"537 727 LINE",
"123 727 LINE",
"113 657 LINE",
"434 657 LINE",
"432 650 LINE",
"20 79 LINE",
"10 0 LINE"
);
},
{
closed = 1;
nodes = (
"301 808 LINE",
"383 808 LINE",
"492 949 LINE",
"416 949 LINE",
"347 855 LINE",
"304 949 LINE",
"230 949 LINE"
);
}
);
width = 515;
}
);
leftKerningGroup = Z;
rightKerningGroup = Z;
unicode = 017D;
},
{
color = 11;
glyphname = Zdotaccent;
lastChange = "2025-02-14 18:34:36 +0000";
layers = (
{
anchors = (
{
name = bottom;
position = "{223, 0}";
},
{
name = center;
position = "{272, 364}";
},
{
name = top;
position = "{353, 896}";
}
);
layerId = m01;
paths = (
{
closed = 1;
nodes = (
"435 0 LINE",
"444 70 LINE",
"112 70 LINE",
"114 77 LINE",
"527 655 LINE",
"537 727 LINE",
"123 727 LINE",
"113 657 LINE",
"434 657 LINE",
"432 650 LINE",
"20 79 LINE",
"10 0 LINE"
);
},
{
closed = 1;
nodes = (
"382 813 LINE",
"393 896 LINE",
"313 896 LINE",
"302 813 LINE"
);
}
);
width = 515;
}
);
leftKerningGroup = Z;
rightKerningGroup = Z;
unicode = 017B;
},
{
glyphname = a;
lastChange = "2025-02-14 18:35:57 +0000";
layers = (
{
anchors = (
{
name = bottom;
position = "{196, 0}";
},
{
name = ogonek;
position = "{361, 0}";
},
{
name = top;
position = "{266, 505}";
}
);
layerId = m01;
paths = (
{
closed = 1;
nodes = (
"348 455 LINE",
"335 453 LINE",
"315 494 OFFCURVE",
"277 515 OFFCURVE",
"227 515 CURVE SMOOTH",
"128 515 OFFCURVE",
"72 442 OFFCURVE",
"53 312 CURVE SMOOTH",
"37 194 LINE SMOOTH",
"34 174 OFFCURVE",
"33 155 OFFCURVE",
"33 137 CURVE SMOOTH",
"33 43 OFFCURVE",
"74 -10 OFFCURVE",
"159 -10 CURVE SMOOTH",
"208 -10 OFFCURVE",
"249 7 OFFCURVE",
"281 48 CURVE",
"292 50 LINE",
"285 0 LINE",
"361 0 LINE",
"431 505 LINE",
"355 505 LINE"
);
},
{
closed = 1;
nodes = (
"127 298 LINE SMOOTH",
"140 388 OFFCURVE",
"174 460 OFFCURVE",
"255 460 CURVE SMOOTH",
"310 460 OFFCURVE",
"331 417 OFFCURVE",
"331 355 CURVE SMOOTH",
"331 338 OFFCURVE",
"330 321 OFFCURVE",
"327 302 CURVE SMOOTH",
"313 203 LINE SMOOTH",
"300 113 OFFCURVE",
"262 45 OFFCURVE",
"191 45 CURVE SMOOTH",
"129 45 OFFCURVE",
"109 84 OFFCURVE",
"109 145 CURVE SMOOTH",
"109 161 OFFCURVE",
"110 180 OFFCURVE",
"113 199 CURVE SMOOTH"
);
}
);
vertWidth = 1200;
width = 461;
}
);
leftKerningGroup = o;
leftMetricsKey = o;
note = a;
rightKerningGroup = n;
rightMetricsKey = d;
unicode = 0061;
},
{
color = 11;
glyphname = aacute;
lastChange = "2025-02-14 18:35:57 +0000";
layers = (
{
anchors = (
{
name = bottom;
position = "{196, 0}";
},
{
name = ogonek;
position = "{361, 0}";
},
{
name = top;
position = "{298, 727}";
}
);
layerId = m01;
paths = (
{
closed = 1;
nodes = (
"348 455 LINE",
"335 453 LINE",
"315 494 OFFCURVE",
"277 515 OFFCURVE",
"227 515 CURVE SMOOTH",
"128 515 OFFCURVE",
"72 442 OFFCURVE",
"53 312 CURVE SMOOTH",
"37 194 LINE SMOOTH",
"34 174 OFFCURVE",
"33 155 OFFCURVE",
"33 137 CURVE SMOOTH",
"33 43 OFFCURVE",
"74 -10 OFFCURVE",
"159 -10 CURVE SMOOTH",
"208 -10 OFFCURVE",
"249 7 OFFCURVE",
"281 48 CURVE",
"292 50 LINE",
"285 0 LINE",
"361 0 LINE",
"431 505 LINE",
"355 505 LINE"
);
},
{
closed = 1;
nodes = (
"127 298 LINE SMOOTH",
"140 388 OFFCURVE",
"174 460 OFFCURVE",
"255 460 CURVE SMOOTH",
"310 460 OFFCURVE",
"331 417 OFFCURVE",
"331 355 CURVE SMOOTH",
"331 338 OFFCURVE",
"330 321 OFFCURVE",
"327 302 CURVE SMOOTH",
"313 203 LINE SMOOTH",
"300 113 OFFCURVE",
"262 45 OFFCURVE",
"191 45 CURVE SMOOTH",
"129 45 OFFCURVE",
"109 84 OFFCURVE",
"109 145 CURVE SMOOTH",
"109 161 OFFCURVE",
"110 180 OFFCURVE",
"113 199 CURVE SMOOTH"
);
},
{
closed = 1;
nodes = (
"311 586 LINE",
"452 727 LINE",
"352 727 LINE",
"243 586 LINE"
);
}
);
width = 461;
}
);
leftKerningGroup = o;
rightKerningGroup = n;
unicode = 00E1;
},
{
color = 11;
glyphname = abreve;
lastChange = "2025-02-14 18:35:57 +0000";
layers = (
{
anchors = (
{
name = bottom;
position = "{196, 0}";
},
{
name = ogonek;
position = "{361, 0}";
},
{
name = top;
position = "{294, 704}";
}
);
hints = (
{
horizontal = 1;
place = "{563, 28}";
type = Stem;
},
{
place = "{263, 28}";
type = Stem;
},
{
place = "{66, 28}";
type = Stem;
}
);
layerId = m01;
paths = (
{
closed = 1;
nodes = (
"348 455 LINE",
"335 453 LINE",
"315 494 OFFCURVE",
"277 515 OFFCURVE",
"227 515 CURVE SMOOTH",
"128 515 OFFCURVE",
"72 442 OFFCURVE",
"53 312 CURVE SMOOTH",
"37 194 LINE SMOOTH",
"34 174 OFFCURVE",
"33 155 OFFCURVE",
"33 137 CURVE SMOOTH",
"33 43 OFFCURVE",
"74 -10 OFFCURVE",
"159 -10 CURVE SMOOTH",
"208 -10 OFFCURVE",
"249 7 OFFCURVE",
"281 48 CURVE",
"292 50 LINE",
"285 0 LINE",
"361 0 LINE",
"431 505 LINE",
"355 505 LINE"
);
},
{
closed = 1;
nodes = (
"179 697 OFFCURVE",
"179 689 OFFCURVE",
"179 681 CURVE SMOOTH",
"179 607 OFFCURVE",
"207 586 OFFCURVE",
"281 586 CURVE SMOOTH",
"360 586 OFFCURVE",
"389 606 OFFCURVE",
"408 702 CURVE",
"341 706 LINE",
"329 651 OFFCURVE",
"315 638 OFFCURVE",
"281 638 CURVE SMOOTH",
"255 638 OFFCURVE",
"246 650 OFFCURVE",
"249 702 CURVE",
"180 706 LINE"
);
},
{
closed = 1;
nodes = (
"127 298 LINE SMOOTH",
"140 388 OFFCURVE",
"174 460 OFFCURVE",
"255 460 CURVE SMOOTH",
"310 460 OFFCURVE",
"331 417 OFFCURVE",
"331 355 CURVE SMOOTH",
"331 338 OFFCURVE",
"330 321 OFFCURVE",
"327 302 CURVE SMOOTH",
"313 203 LINE SMOOTH",
"300 113 OFFCURVE",
"262 45 OFFCURVE",
"191 45 CURVE SMOOTH",
"129 45 OFFCURVE",
"109 84 OFFCURVE",
"109 145 CURVE SMOOTH",
"109 161 OFFCURVE",
"110 180 OFFCURVE",
"113 199 CURVE SMOOTH"
);
}
);
width = 461;
}
);
leftKerningGroup = o;
rightKerningGroup = n;
unicode = 0103;
},
{
color = 11;
glyphname = acircumflex;
lastChange = "2025-02-14 18:35:57 +0000";
layers = (
{
anchors = (
{
name = bottom;
position = "{196, 0}";
},
{
name = ogonek;
position = "{361, 0}";
},
{
name = top;
position = "{298, 727}";
}
);
layerId = m01;
paths = (
{
closed = 1;
nodes = (
"348 455 LINE",
"335 453 LINE",
"315 494 OFFCURVE",
"277 515 OFFCURVE",
"227 515 CURVE SMOOTH",
"128 515 OFFCURVE",
"72 442 OFFCURVE",
"53 312 CURVE SMOOTH",
"37 194 LINE SMOOTH",
"34 174 OFFCURVE",
"33 155 OFFCURVE",
"33 137 CURVE SMOOTH",
"33 43 OFFCURVE",
"74 -10 OFFCURVE",
"159 -10 CURVE SMOOTH",
"208 -10 OFFCURVE",
"249 7 OFFCURVE",
"281 48 CURVE",
"292 50 LINE",
"285 0 LINE",
"361 0 LINE",
"431 505 LINE",
"355 505 LINE"
);
},
{
closed = 1;
nodes = (
"222 586 LINE",
"292 680 LINE",
"334 586 LINE",
"408 586 LINE",
"338 727 LINE",
"256 727 LINE",
"146 586 LINE"
);
},
{
closed = 1;
nodes = (
"127 298 LINE SMOOTH",
"140 388 OFFCURVE",
"174 460 OFFCURVE",
"255 460 CURVE SMOOTH",
"310 460 OFFCURVE",
"331 417 OFFCURVE",
"331 355 CURVE SMOOTH",
"331 338 OFFCURVE",
"330 321 OFFCURVE",
"327 302 CURVE SMOOTH",
"313 203 LINE SMOOTH",
"300 113 OFFCURVE",
"262 45 OFFCURVE",
"191 45 CURVE SMOOTH",
"129 45 OFFCURVE",
"109 84 OFFCURVE",
"109 145 CURVE SMOOTH",
"109 161 OFFCURVE",
"110 180 OFFCURVE",
"113 199 CURVE SMOOTH"
);
}
);
width = 461;
}
);
leftKerningGroup = o;
rightKerningGroup = n;
unicode = 00E2;
},
{
color = 11;
glyphname = adieresis;
lastChange = "2025-02-14 18:35:57 +0000";
layers = (
{
anchors = (
{
name = bottom;
position = "{196, 0}";
},
{
name = ogonek;
position = "{361, 0}";
},
{
name = top;
position = "{290, 674}";
}
);
hints = (
{
horizontal = 1;
place = "{576, 48}";
type = Stem;
},
{
place = "{246, 45}";
type = Stem;
},
{
place = "{66, 45}";
type = Stem;
},
{
horizontal = 1;
place = "{576, 48}";
type = Stem;
},
{
place = "{235, 45}";
type = Stem;
},
{
place = "{55, 45}";
type = Stem;
}
);
layerId = m01;
paths = (
{
closed = 1;
nodes = (
"348 455 LINE",
"335 453 LINE",
"315 494 OFFCURVE",
"277 515 OFFCURVE",
"227 515 CURVE SMOOTH",
"128 515 OFFCURVE",
"72 442 OFFCURVE",
"53 312 CURVE SMOOTH",
"37 194 LINE SMOOTH",
"34 174 OFFCURVE",
"33 155 OFFCURVE",
"33 137 CURVE SMOOTH",
"33 43 OFFCURVE",
"74 -10 OFFCURVE",
"159 -10 CURVE SMOOTH",
"208 -10 OFFCURVE",
"249 7 OFFCURVE",
"281 48 CURVE",
"292 50 LINE",
"285 0 LINE",
"361 0 LINE",
"431 505 LINE",
"355 505 LINE"
);
},
{
closed = 1;
nodes = (
"229 591 LINE",
"240 674 LINE",
"160 674 LINE",
"149 591 LINE"
);
},
{
closed = 1;
nodes = (
"127 298 LINE SMOOTH",
"140 388 OFFCURVE",
"174 460 OFFCURVE",
"255 460 CURVE SMOOTH",
"310 460 OFFCURVE",
"331 417 OFFCURVE",
"331 355 CURVE SMOOTH",
"331 338 OFFCURVE",
"330 321 OFFCURVE",
"327 302 CURVE SMOOTH",
"313 203 LINE SMOOTH",
"300 113 OFFCURVE",
"262 45 OFFCURVE",
"191 45 CURVE SMOOTH",
"129 45 OFFCURVE",
"109 84 OFFCURVE",
"109 145 CURVE SMOOTH",
"109 161 OFFCURVE",
"110 180 OFFCURVE",
"113 199 CURVE SMOOTH"
);
},
{
closed = 1;
nodes = (
"409 591 LINE",
"420 674 LINE",
"340 674 LINE",
"329 591 LINE"
);
}
);
width = 461;
}
);
leftKerningGroup = o;
rightKerningGroup = n;
unicode = 00E4;
},
{
color = 11;
glyphname = agrave;
lastChange = "2025-02-14 18:35:57 +0000";
layers = (
{
anchors = (
{
name = bottom;
position = "{196, 0}";
},
{
name = ogonek;
position = "{361, 0}";
},
{
name = top;
position = "{298, 727}";
}
);
layerId = m01;
paths = (
{
closed = 1;
nodes = (
"348 455 LINE",
"335 453 LINE",
"315 494 OFFCURVE",
"277 515 OFFCURVE",
"227 515 CURVE SMOOTH",
"128 515 OFFCURVE",
"72 442 OFFCURVE",
"53 312 CURVE SMOOTH",
"37 194 LINE SMOOTH",
"34 174 OFFCURVE",
"33 155 OFFCURVE",
"33 137 CURVE SMOOTH",
"33 43 OFFCURVE",
"74 -10 OFFCURVE",
"159 -10 CURVE SMOOTH",
"208 -10 OFFCURVE",
"249 7 OFFCURVE",
"281 48 CURVE",
"292 50 LINE",
"285 0 LINE",
"361 0 LINE",
"431 505 LINE",
"355 505 LINE"
);
},
{
closed = 1;
nodes = (
"245 586 LINE",
"311 586 LINE",
"242 727 LINE",
"144 727 LINE"
);
},
{
closed = 1;
nodes = (
"127 298 LINE SMOOTH",
"140 388 OFFCURVE",
"174 460 OFFCURVE",
"255 460 CURVE SMOOTH",
"310 460 OFFCURVE",
"331 417 OFFCURVE",
"331 355 CURVE SMOOTH",
"331 338 OFFCURVE",
"330 321 OFFCURVE",
"327 302 CURVE SMOOTH",
"313 203 LINE SMOOTH",
"300 113 OFFCURVE",
"262 45 OFFCURVE",
"191 45 CURVE SMOOTH",
"129 45 OFFCURVE",
"109 84 OFFCURVE",
"109 145 CURVE SMOOTH",
"109 161 OFFCURVE",
"110 180 OFFCURVE",
"113 199 CURVE SMOOTH"
);
}
);
width = 461;
}
);
leftKerningGroup = o;
rightKerningGroup = n;
unicode = 00E0;
},
{
color = 11;
glyphname = amacron;
lastChange = "2025-02-14 18:35:57 +0000";
layers = (
{
anchors = (
{
name = bottom;
position = "{196, 0}";
},
{
name = ogonek;
position = "{361, 0}";
},
{
name = top;
position = "{286, 647}";
}
);
hints = (
{
horizontal = 1;
place = "{573, 26}";
type = Stem;
},
{
place = "{92, 172}";
type = Stem;
},
{
horizontal = 1;
place = "{573, 26}";
type = Stem;
},
{
place = "{82, 172}";
type = Stem;
}
);
layerId = m01;
paths = (
{
closed = 1;
nodes = (
"348 455 LINE",
"335 453 LINE",
"315 494 OFFCURVE",
"277 515 OFFCURVE",
"227 515 CURVE SMOOTH",
"128 515 OFFCURVE",
"72 442 OFFCURVE",
"53 312 CURVE SMOOTH",
"37 194 LINE SMOOTH",
"34 174 OFFCURVE",
"33 155 OFFCURVE",
"33 137 CURVE SMOOTH",
"33 43 OFFCURVE",
"74 -10 OFFCURVE",
"159 -10 CURVE SMOOTH",
"208 -10 OFFCURVE",
"249 7 OFFCURVE",
"281 48 CURVE",
"292 50 LINE",
"285 0 LINE",
"361 0 LINE",
"431 505 LINE",
"355 505 LINE"
);
},
{
closed = 1;
nodes = (
"127 298 LINE SMOOTH",
"140 388 OFFCURVE",
"174 460 OFFCURVE",
"255 460 CURVE SMOOTH",
"310 460 OFFCURVE",
"331 417 OFFCURVE",
"331 355 CURVE SMOOTH",
"331 338 OFFCURVE",
"330 321 OFFCURVE",
"327 302 CURVE SMOOTH",
"313 203 LINE SMOOTH",
"300 113 OFFCURVE",
"262 45 OFFCURVE",
"191 45 CURVE SMOOTH",
"129 45 OFFCURVE",
"109 84 OFFCURVE",
"109 145 CURVE SMOOTH",
"109 161 OFFCURVE",
"110 180 OFFCURVE",
"113 199 CURVE SMOOTH"
);
},
{
closed = 1;
nodes = (
"382 586 LINE",
"390 647 LINE",
"182 647 LINE",
"174 586 LINE"
);
}
);
width = 461;
}
);
leftKerningGroup = o;
rightKerningGroup = n;
unicode = 0101;
},
{
color = 11;
glyphname = aogonek;
lastChange = "2025-02-14 18:35:57 +0000";
layers = (
{
anchors = (
{
name = bottom;
position = "{196, 0}";
},
{
name = ogonek;
position = "{361, 0}";
},
{
name = top;
position = "{266, 505}";
}
);
layerId = m01;
paths = (
{
closed = 1;
nodes = (
"348 455 LINE",
"335 453 LINE",
"315 494 OFFCURVE",
"277 515 OFFCURVE",
"227 515 CURVE SMOOTH",
"128 515 OFFCURVE",
"72 442 OFFCURVE",
"53 312 CURVE SMOOTH",
"37 194 LINE SMOOTH",
"34 174 OFFCURVE",
"33 155 OFFCURVE",
"33 137 CURVE SMOOTH",
"33 43 OFFCURVE",
"74 -10 OFFCURVE",
"159 -10 CURVE SMOOTH",
"208 -10 OFFCURVE",
"249 7 OFFCURVE",
"281 48 CURVE",
"292 50 LINE",
"285 0 LINE",
"294 1 LINE",
"245 -34 OFFCURVE",
"229 -62 OFFCURVE",
"229 -109 CURVE SMOOTH",
"229 -164 OFFCURVE",
"270 -188 OFFCURVE",
"330 -188 CURVE SMOOTH",
"342 -188 OFFCURVE",
"356 -187 OFFCURVE",
"370 -185 CURVE",
"376 -124 LINE",
"367 -127 OFFCURVE",
"358 -129 OFFCURVE",
"347 -129 CURVE SMOOTH",
"320 -129 OFFCURVE",
"293 -117 OFFCURVE",
"293 -91 CURVE SMOOTH",
"293 -60 OFFCURVE",
"318 -31 OFFCURVE",
"362 -1 CURVE",
"431 505 LINE",
"355 505 LINE"
);
},
{
closed = 1;
nodes = (
"127 298 LINE SMOOTH",
"140 388 OFFCURVE",
"174 460 OFFCURVE",
"255 460 CURVE SMOOTH",
"310 460 OFFCURVE",
"331 417 OFFCURVE",
"331 355 CURVE SMOOTH",
"331 338 OFFCURVE",
"330 321 OFFCURVE",
"327 302 CURVE SMOOTH",
"313 203 LINE SMOOTH",
"300 113 OFFCURVE",
"262 45 OFFCURVE",
"191 45 CURVE SMOOTH",
"129 45 OFFCURVE",
"109 84 OFFCURVE",
"109 145 CURVE SMOOTH",
"109 161 OFFCURVE",
"110 180 OFFCURVE",
"113 199 CURVE SMOOTH"
);
}
);
width = 461;
}
);
leftKerningGroup = o;
rightKerningGroup = n;
unicode = 0105;
},
{
color = 11;
glyphname = aring;
lastChange = "2025-02-14 18:36:02 +0000";
layers = (
{
anchors = (
{
name = bottom;
position = "{196, 0}";
},
{
name = ogonek;
position = "{361, 0}";
},
{
name = top;
position = "{301, 748}";
}
);
hints = (
{
horizontal = 1;
place = "{684, 14}";
type = Stem;
},
{
horizontal = 1;
place = "{533, 14}";
type = Stem;
},
{
place = "{245, 13}";
type = Stem;
},
{
place = "{96, 13}";
type = Stem;
}
);
layerId = m01;
paths = (
{
closed = 1;
nodes = (
"348 455 LINE",
"335 453 LINE",
"315 494 OFFCURVE",
"277 515 OFFCURVE",
"227 515 CURVE SMOOTH",
"128 515 OFFCURVE",
"72 442 OFFCURVE",
"53 312 CURVE SMOOTH",
"37 194 LINE SMOOTH",
"34 174 OFFCURVE",
"33 155 OFFCURVE",
"33 137 CURVE SMOOTH",
"33 43 OFFCURVE",
"74 -10 OFFCURVE",
"159 -10 CURVE SMOOTH",
"208 -10 OFFCURVE",
"249 7 OFFCURVE",
"281 48 CURVE",
"292 50 LINE",
"285 0 LINE",
"361 0 LINE",
"431 505 LINE",
"355 505 LINE"
);
},
{
closed = 1;
nodes = (
"127 298 LINE SMOOTH",
"140 388 OFFCURVE",
"174 460 OFFCURVE",
"255 460 CURVE SMOOTH",
"310 460 OFFCURVE",
"331 417 OFFCURVE",
"331 355 CURVE SMOOTH",
"331 338 OFFCURVE",
"330 321 OFFCURVE",
"327 302 CURVE SMOOTH",
"313 203 LINE SMOOTH",
"300 113 OFFCURVE",
"262 45 OFFCURVE",
"191 45 CURVE SMOOTH",
"129 45 OFFCURVE",
"109 84 OFFCURVE",
"109 145 CURVE SMOOTH",
"109 161 OFFCURVE",
"110 180 OFFCURVE",
"113 199 CURVE SMOOTH"
);
},
{
closed = 1;
nodes = (
"187 586 OFFCURVE",
"225 548 OFFCURVE",
"275 548 CURVE",
"332 550 OFFCURVE",
"377 594 OFFCURVE",
"384 645 CURVE SMOOTH",
"390 703 OFFCURVE",
"349 748 OFFCURVE",
"299 748 CURVE SMOOTH",
"233 748 OFFCURVE",
"187 695 OFFCURVE",
"187 638 CURVE SMOOTH"
);
},
{
closed = 1;
nodes = (
"234 672 OFFCURVE",
"263 699 OFFCURVE",
"297 699 CURVE SMOOTH",
"319 699 OFFCURVE",
"338 683 OFFCURVE",
"338 660 CURVE SMOOTH",
"338 626 OFFCURVE",
"308 597 OFFCURVE",
"275 597 CURVE SMOOTH",
"251 597 OFFCURVE",
"234 614 OFFCURVE",
"234 637 CURVE SMOOTH"
);
}
);
width = 461;
}
);
leftKerningGroup = o;
rightKerningGroup = n;
unicode = 00E5;
},
{
color = 11;
glyphname = atilde;
lastChange = "2025-02-14 18:36:02 +0000";
layers = (
{
anchors = (
{
name = bottom;
position = "{196, 0}";
},
{
name = ogonek;
position = "{361, 0}";
},
{
name = top;
position = "{294, 702}";
}
);
layerId = m01;
paths = (
{
closed = 1;
nodes = (
"348 455 LINE",
"335 453 LINE",
"315 494 OFFCURVE",
"277 515 OFFCURVE",
"227 515 CURVE SMOOTH",
"128 515 OFFCURVE",
"72 442 OFFCURVE",
"53 312 CURVE SMOOTH",
"37 194 LINE SMOOTH",
"34 174 OFFCURVE",
"33 155 OFFCURVE",
"33 137 CURVE SMOOTH",
"33 43 OFFCURVE",
"74 -10 OFFCURVE",
"159 -10 CURVE SMOOTH",
"208 -10 OFFCURVE",
"249 7 OFFCURVE",
"281 48 CURVE",
"292 50 LINE",
"285 0 LINE",
"361 0 LINE",
"431 505 LINE",
"355 505 LINE"
);
},
{
closed = 1;
nodes = (
"174 584 LINE",
"180 609 OFFCURVE",
"204 631 OFFCURVE",
"230 631 CURVE SMOOTH",
"265 631 OFFCURVE",
"286 593 OFFCURVE",
"334 593 CURVE SMOOTH",
"359 593 OFFCURVE",
"382 603 OFFCURVE",
"404 623 CURVE",
"423 643 OFFCURVE",
"437 671 OFFCURVE",
"444 700 CURVE",
"392 704 LINE",
"385 674 OFFCURVE",
"368 657 OFFCURVE",
"340 657 CURVE SMOOTH",
"299 657 OFFCURVE",
"295 694 OFFCURVE",
"239 694 CURVE SMOOTH",
"182 694 OFFCURVE",
"145 657 OFFCURVE",
"128 588 CURVE"
);
},
{
closed = 1;
nodes = (
"127 298 LINE SMOOTH",
"140 388 OFFCURVE",
"174 460 OFFCURVE",
"255 460 CURVE SMOOTH",
"310 460 OFFCURVE",
"331 417 OFFCURVE",
"331 355 CURVE SMOOTH",
"331 338 OFFCURVE",
"330 321 OFFCURVE",
"327 302 CURVE SMOOTH",
"313 203 LINE SMOOTH",
"300 113 OFFCURVE",
"262 45 OFFCURVE",
"191 45 CURVE SMOOTH",
"129 45 OFFCURVE",
"109 84 OFFCURVE",
"109 145 CURVE SMOOTH",
"109 161 OFFCURVE",
"110 180 OFFCURVE",
"113 199 CURVE SMOOTH"
);
}
);
width = 461;
}
);
leftKerningGroup = o;
rightKerningGroup = n;
unicode = 00E3;
},
{
glyphname = ae;
lastChange = "2025-02-14 18:36:02 +0000";
layers = (
{
background = {
paths = (
{
closed = 1;
nodes = (
"271 -10 OFFCURVE",
"326 21 OFFCURVE",
"357 77 CURVE",
"377 67 LINE",
"401 80 LINE",
"401 325 LINE",
"401 430 OFFCURVE",
"369 515 OFFCURVE",
"235 515 CURVE SMOOTH",
"131 515 OFFCURVE",
"68 464 OFFCURVE",
"66 361 CURVE",
"142 361 LINE",
"144 436 OFFCURVE",
"176 460 OFFCURVE",
"233 460 CURVE SMOOTH",
"292 460 OFFCURVE",
"325 433 OFFCURVE",
"325 361 CURVE SMOOTH",
"325 294 LINE",
"253 294 LINE",
"126 294 OFFCURVE",
"55 241 OFFCURVE",
"55 141 CURVE SMOOTH",
"55 50 OFFCURVE",
"110 -10 OFFCURVE",
"191 -10 CURVE SMOOTH"
);
},
{
closed = 1;
nodes = (
"164 52 OFFCURVE",
"131 84 OFFCURVE",
"131 142 CURVE SMOOTH",
"131 212 OFFCURVE",
"176 239 OFFCURVE",
"257 239 CURVE",
"325 239 LINE",
"325 102 OFFCURVE",
"296 52 OFFCURVE",
"208 52 CURVE SMOOTH"
);
},
{
closed = 1;
nodes = (
"686 310 LINE SMOOTH",
"686 440 OFFCURVE",
"623 515 OFFCURVE",
"503 515 CURVE SMOOTH",
"383 515 OFFCURVE",
"325 410 OFFCURVE",
"325 310 CURVE SMOOTH",
"325 192 LINE SMOOTH",
"325 62 OFFCURVE",
"383 -10 OFFCURVE",
"503 -10 CURVE SMOOTH",
"611 -10 OFFCURVE",
"673 49 OFFCURVE",
"684 155 CURVE",
"608 155 LINE",
"599 86 OFFCURVE",
"563 45 OFFCURVE",
"503 45 CURVE SMOOTH",
"433 45 OFFCURVE",
"401 101 OFFCURVE",
"401 191 CURVE SMOOTH",
"401 310 LINE SMOOTH",
"401 400 OFFCURVE",
"433 460 OFFCURVE",
"503 460 CURVE SMOOTH",
"573 460 OFFCURVE",
"610 400 OFFCURVE",
"610 310 CURVE SMOOTH",
"610 239 LINE",
"686 239 LINE"
);
},
{
closed = 1;
nodes = (
"380 239 LINE",
"686 239 LINE",
"686 294 LINE",
"380 294 LINE"
);
}
);
};
layerId = m01;
paths = (
{
closed = 1;
nodes = (
"231 -10 OFFCURVE",
"288 16 OFFCURVE",
"327 68 CURVE",
"347 19 OFFCURVE",
"395 -10 OFFCURVE",
"469 -10 CURVE SMOOTH",
"576 -10 OFFCURVE",
"644 47 OFFCURVE",
"670 153 CURVE",
"594 157 LINE",
"576 88 OFFCURVE",
"532 45 OFFCURVE",
"471 45 CURVE SMOOTH",
"414 45 OFFCURVE",
"389 82 OFFCURVE",
"389 145 CURVE SMOOTH",
"389 158 OFFCURVE",
"390 173 OFFCURVE",
"392 189 CURVE SMOOTH",
"399 239 LINE",
"684 239 LINE",
"694 308 LINE SMOOTH",
"696 324 OFFCURVE",
"697 340 OFFCURVE",
"697 354 CURVE SMOOTH",
"697 456 OFFCURVE",
"643 515 OFFCURVE",
"537 515 CURVE SMOOTH",
"480 515 OFFCURVE",
"434 492 OFFCURVE",
"398 454 CURVE",
"380 489 OFFCURVE",
"341 515 OFFCURVE",
"269 515 CURVE SMOOTH",
"166 515 OFFCURVE",
"98 466 OFFCURVE",
"82 363 CURVE",
"157 359 LINE",
"170 434 OFFCURVE",
"207 460 OFFCURVE",
"265 460 CURVE SMOOTH",
"315 460 OFFCURVE",
"343 441 OFFCURVE",
"343 389 CURVE SMOOTH",
"343 381 OFFCURVE",
"342 373 OFFCURVE",
"341 363 CURVE",
"331 294 LINE",
"257 294 LINE SMOOTH",
"118 294 OFFCURVE",
"38 233 OFFCURVE",
"38 116 CURVE SMOOTH",
"38 39 OFFCURVE",
"84 -10 OFFCURVE",
"157 -10 CURVE SMOOTH"
);
},
{
closed = 1;
nodes = (
"125 210 OFFCURVE",
"176 239 OFFCURVE",
"257 239 CURVE SMOOTH",
"323 241 LINE",
"304 104 OFFCURVE",
"266 52 OFFCURVE",
"177 52 CURVE SMOOTH",
"139 52 OFFCURVE",
"114 75 OFFCURVE",
"114 119 CURVE SMOOTH",
"114 125 OFFCURVE",
"114 131 OFFCURVE",
"115 138 CURVE SMOOTH"
);
},
{
closed = 1;
nodes = (
"409 308 LINE SMOOTH",
"421 398 OFFCURVE",
"464 460 OFFCURVE",
"535 460 CURVE SMOOTH",
"593 460 OFFCURVE",
"621 419 OFFCURVE",
"621 353 CURVE SMOOTH",
"621 340 OFFCURVE",
"620 327 OFFCURVE",
"618 312 CURVE SMOOTH",
"616 294 LINE",
"407 294 LINE"
);
}
);
width = 731;
}
);
leftKerningGroup = o;
leftMetricsKey = a;
rightKerningGroup = o;
rightMetricsKey = e;
unicode = 00E6;
},
{
glyphname = b;
lastChange = "2025-02-14 18:35:57 +0000";
layers = (
{
anchors = (
{
name = bottom;
position = "{197, 0}";
},
{
name = top;
position = "{267, 505}";
}
);
hints = (
{
horizontal = 1;
place = "{692, -20}";
target = down;
type = TopGhost;
}
);
layerId = m01;
paths = (
{
closed = 1;
nodes = (
"30 0 LINE",
"106 0 LINE",
"113 50 LINE",
"127 52 LINE",
"147 11 OFFCURVE",
"185 -10 OFFCURVE",
"236 -10 CURVE SMOOTH",
"335 -10 OFFCURVE",
"391 60 OFFCURVE",
"409 190 CURVE SMOOTH",
"426 308 LINE SMOOTH",
"429 328 OFFCURVE",
"430 347 OFFCURVE",
"430 365 CURVE SMOOTH",
"430 460 OFFCURVE",
"389 515 OFFCURVE",
"304 515 CURVE SMOOTH",
"256 515 OFFCURVE",
"215 498 OFFCURVE",
"183 457 CURVE",
"169 455 LINE",
"208 727 LINE",
"132 727 LINE"
);
},
{
closed = 1;
nodes = (
"149 298 LINE SMOOTH",
"162 388 OFFCURVE",
"201 460 OFFCURVE",
"272 460 CURVE SMOOTH",
"333 460 OFFCURVE",
"354 419 OFFCURVE",
"354 359 CURVE SMOOTH",
"354 341 OFFCURVE",
"352 322 OFFCURVE",
"349 302 CURVE SMOOTH",
"335 203 LINE SMOOTH",
"322 113 OFFCURVE",
"289 45 OFFCURVE",
"208 45 CURVE SMOOTH",
"153 45 OFFCURVE",
"131 86 OFFCURVE",
"131 149 CURVE SMOOTH",
"131 165 OFFCURVE",
"133 181 OFFCURVE",
"135 199 CURVE SMOOTH"
);
}
);
vertWidth = 1200;
width = 463;
}
);
leftMetricsKey = n;
note = b;
rightKerningGroup = o;
rightMetricsKey = o;
unicode = 0062;
},
{
glyphname = c;
lastChange = "2025-02-14 18:35:57 +0000";
layers = (
{
anchors = (
{
name = bottom;
position = "{188, 0}";
},
{
name = top;
position = "{258, 505}";
}
);
layerId = m01;
paths = (
{
closed = 1;
nodes = (
"288 88 OFFCURVE",
"249 45 OFFCURVE",
"188 45 CURVE SMOOTH",
"132 45 OFFCURVE",
"108 81 OFFCURVE",
"108 142 CURVE SMOOTH",
"108 156 OFFCURVE",
"110 172 OFFCURVE",
"112 189 CURVE SMOOTH",
"129 308 LINE SMOOTH",
"141 398 OFFCURVE",
"184 460 OFFCURVE",
"255 460 CURVE SMOOTH",
"313 460 OFFCURVE",
"324 420 OFFCURVE",
"322 352 CURVE",
"397 348 LINE",
"402 453 OFFCURVE",
"365 515 OFFCURVE",
"257 515 CURVE SMOOTH",
"138 515 OFFCURVE",
"72 442 OFFCURVE",
"53 312 CURVE SMOOTH",
"37 194 LINE SMOOTH",
"34 176 OFFCURVE",
"33 159 OFFCURVE",
"33 143 CURVE SMOOTH",
"33 45 OFFCURVE",
"82 -10 OFFCURVE",
"186 -10 CURVE SMOOTH",
"293 -10 OFFCURVE",
"355 46 OFFCURVE",
"380 152 CURVE",
"304 156 LINE"
);
}
);
vertWidth = 1200;
width = 439;
}
);
leftKerningGroup = o;
leftMetricsKey = o;
note = c;
rightKerningGroup = o;
rightMetricsKey = o;
unicode = 0063;
},
{
color = 11;
glyphname = cacute;
lastChange = "2025-02-14 18:35:57 +0000";
layers = (
{
anchors = (
{
name = bottom;
position = "{188, 0}";
},
{
name = top;
position = "{290, 727}";
}
);
layerId = m01;
paths = (
{
closed = 1;
nodes = (
"288 88 OFFCURVE",
"249 45 OFFCURVE",
"188 45 CURVE SMOOTH",
"132 45 OFFCURVE",
"108 81 OFFCURVE",
"108 142 CURVE SMOOTH",
"108 156 OFFCURVE",
"110 172 OFFCURVE",
"112 189 CURVE SMOOTH",
"129 308 LINE SMOOTH",
"141 398 OFFCURVE",
"184 460 OFFCURVE",
"255 460 CURVE SMOOTH",
"313 460 OFFCURVE",
"324 420 OFFCURVE",
"322 352 CURVE",
"397 348 LINE",
"402 453 OFFCURVE",
"365 515 OFFCURVE",
"257 515 CURVE SMOOTH",
"138 515 OFFCURVE",
"72 442 OFFCURVE",
"53 312 CURVE SMOOTH",
"37 194 LINE SMOOTH",
"34 176 OFFCURVE",
"33 159 OFFCURVE",
"33 143 CURVE SMOOTH",
"33 45 OFFCURVE",
"82 -10 OFFCURVE",
"186 -10 CURVE SMOOTH",
"293 -10 OFFCURVE",
"355 46 OFFCURVE",
"380 152 CURVE",
"304 156 LINE"
);
},
{
closed = 1;
nodes = (
"303 586 LINE",
"444 727 LINE",
"344 727 LINE",
"235 586 LINE"
);
}
);
width = 439;
}
);
leftKerningGroup = o;
rightKerningGroup = o;
unicode = 0107;
},
{
color = 11;
glyphname = ccaron;
lastChange = "2025-02-14 18:35:57 +0000";
layers = (
{
anchors = (
{
name = bottom;
position = "{188, 0}";
},
{
name = top;
position = "{290, 727}";
}
);
hints = (
{
horizontal = 1;
place = "{551, 106}";
type = Stem;
},
{
place = "{42, 257}";
type = Stem;
}
);
layerId = m01;
paths = (
{
closed = 1;
nodes = (
"288 88 OFFCURVE",
"249 45 OFFCURVE",
"188 45 CURVE SMOOTH",
"132 45 OFFCURVE",
"108 81 OFFCURVE",
"108 142 CURVE SMOOTH",
"108 156 OFFCURVE",
"110 172 OFFCURVE",
"112 189 CURVE SMOOTH",
"129 308 LINE SMOOTH",
"141 398 OFFCURVE",
"184 460 OFFCURVE",
"255 460 CURVE SMOOTH",
"313 460 OFFCURVE",
"324 420 OFFCURVE",
"322 352 CURVE",
"397 348 LINE",
"402 453 OFFCURVE",
"365 515 OFFCURVE",
"257 515 CURVE SMOOTH",
"138 515 OFFCURVE",
"72 442 OFFCURVE",
"53 312 CURVE SMOOTH",
"37 194 LINE SMOOTH",
"34 176 OFFCURVE",
"33 159 OFFCURVE",
"33 143 CURVE SMOOTH",
"33 45 OFFCURVE",
"82 -10 OFFCURVE",
"186 -10 CURVE SMOOTH",
"293 -10 OFFCURVE",
"355 46 OFFCURVE",
"380 152 CURVE",
"304 156 LINE"
);
},
{
closed = 1;
nodes = (
"229 586 LINE",
"311 586 LINE",
"421 727 LINE",
"345 727 LINE",
"275 633 LINE",
"233 727 LINE",
"159 727 LINE"
);
}
);
width = 439;
}
);
leftKerningGroup = o;
rightKerningGroup = o;
unicode = 010D;
},
{
color = 11;
glyphname = ccedilla;
lastChange = "2025-02-14 18:35:57 +0000";
layers = (
{
anchors = (
{
name = bottom;
position = "{145, -225}";
},
{
name = top;
position = "{258, 505}";
}
);
hints = (
{
place = "{208, 41}";
type = Stem;
}
);
layerId = m01;
paths = (
{
closed = 1;
nodes = (
"288 88 OFFCURVE",
"249 45 OFFCURVE",
"188 45 CURVE SMOOTH",
"132 45 OFFCURVE",
"108 81 OFFCURVE",
"108 142 CURVE SMOOTH",
"108 156 OFFCURVE",
"110 172 OFFCURVE",
"112 189 CURVE SMOOTH",
"129 308 LINE SMOOTH",
"141 398 OFFCURVE",
"184 460 OFFCURVE",
"255 460 CURVE SMOOTH",
"313 460 OFFCURVE",
"324 420 OFFCURVE",
"322 352 CURVE",
"397 348 LINE",
"402 453 OFFCURVE",
"365 515 OFFCURVE",
"257 515 CURVE SMOOTH",
"138 515 OFFCURVE",
"72 442 OFFCURVE",
"53 312 CURVE SMOOTH",
"37 194 LINE SMOOTH",
"34 176 OFFCURVE",
"33 158 OFFCURVE",
"33 142 CURVE SMOOTH",
"33 55 OFFCURVE",
"72 2 OFFCURVE",
"154 -8 CURVE",
"116 -65 LINE",
"149 -86 LINE",
"159 -80 OFFCURVE",
"170 -76 OFFCURVE",
"182 -76 CURVE SMOOTH",
"204 -76 OFFCURVE",
"223 -89 OFFCURVE",
"223 -114 CURVE SMOOTH",
"223 -146 OFFCURVE",
"194 -182 OFFCURVE",
"151 -182 CURVE SMOOTH",
"127 -182 OFFCURVE",
"103 -173 OFFCURVE",
"93 -157 CURVE",
"59 -183 LINE",
"80 -212 OFFCURVE",
"115 -227 OFFCURVE",
"153 -227 CURVE SMOOTH",
"213 -227 OFFCURVE",
"276 -189 OFFCURVE",
"276 -116 CURVE SMOOTH",
"276 -62 OFFCURVE",
"237 -36 OFFCURVE",
"193 -35 CURVE",
"213 -9 LINE",
"304 1 OFFCURVE",
"357 55 OFFCURVE",
"380 152 CURVE",
"304 156 LINE"
);
}
);
width = 439;
}
);
leftKerningGroup = o;
rightKerningGroup = o;
unicode = 00E7;
},
{
color = 11;
glyphname = cdotaccent;
lastChange = "2025-02-14 18:35:57 +0000";
layers = (
{
anchors = (
{
name = bottom;
position = "{188, 0}";
},
{
name = top;
position = "{282, 674}";
}
);
layerId = m01;
paths = (
{
closed = 1;
nodes = (
"288 88 OFFCURVE",
"249 45 OFFCURVE",
"188 45 CURVE SMOOTH",
"132 45 OFFCURVE",
"108 81 OFFCURVE",
"108 142 CURVE SMOOTH",
"108 156 OFFCURVE",
"110 172 OFFCURVE",
"112 189 CURVE SMOOTH",
"129 308 LINE SMOOTH",
"141 398 OFFCURVE",
"184 460 OFFCURVE",
"255 460 CURVE SMOOTH",
"313 460 OFFCURVE",
"324 420 OFFCURVE",
"322 352 CURVE",
"397 348 LINE",
"402 453 OFFCURVE",
"365 515 OFFCURVE",
"257 515 CURVE SMOOTH",
"138 515 OFFCURVE",
"72 442 OFFCURVE",
"53 312 CURVE SMOOTH",
"37 194 LINE SMOOTH",
"34 176 OFFCURVE",
"33 159 OFFCURVE",
"33 143 CURVE SMOOTH",
"33 45 OFFCURVE",
"82 -10 OFFCURVE",
"186 -10 CURVE SMOOTH",
"293 -10 OFFCURVE",
"355 46 OFFCURVE",
"380 152 CURVE",
"304 156 LINE"
);
},
{
closed = 1;
nodes = (
"311 591 LINE",
"322 674 LINE",
"242 674 LINE",
"231 591 LINE"
);
}
);
width = 439;
}
);
leftKerningGroup = o;
rightKerningGroup = o;
unicode = 010B;
},
{
color = 3;
glyphname = d;
lastChange = "2025-02-14 18:35:57 +0000";
layers = (
{
anchors = (
{
name = bottom;
position = "{197, 0}";
},
{
name = center;
position = "{232, 253}";
},
{
name = top;
position = "{267, 505}";
},
{
name = topright;
position = "{479, 505}";
}
);
layerId = m01;
paths = (
{
closed = 1;
nodes = (
"348 455 LINE",
"335 453 LINE",
"315 494 OFFCURVE",
"277 515 OFFCURVE",
"227 515 CURVE SMOOTH",
"128 515 OFFCURVE",
"72 442 OFFCURVE",
"53 312 CURVE SMOOTH",
"37 194 LINE SMOOTH",
"34 174 OFFCURVE",
"33 155 OFFCURVE",
"33 137 CURVE SMOOTH",
"33 43 OFFCURVE",
"74 -10 OFFCURVE",
"159 -10 CURVE SMOOTH",
"208 -10 OFFCURVE",
"249 7 OFFCURVE",
"281 48 CURVE",
"292 50 LINE",
"285 0 LINE",
"361 0 LINE",
"463 727 LINE",
"387 727 LINE"
);
},
{
closed = 1;
nodes = (
"127 298 LINE SMOOTH",
"140 388 OFFCURVE",
"174 460 OFFCURVE",
"255 460 CURVE SMOOTH",
"310 460 OFFCURVE",
"331 417 OFFCURVE",
"331 355 CURVE SMOOTH",
"331 338 OFFCURVE",
"330 321 OFFCURVE",
"327 302 CURVE SMOOTH",
"313 203 LINE SMOOTH",
"300 113 OFFCURVE",
"262 45 OFFCURVE",
"191 45 CURVE SMOOTH",
"129 45 OFFCURVE",
"109 84 OFFCURVE",
"109 145 CURVE SMOOTH",
"109 161 OFFCURVE",
"110 180 OFFCURVE",
"113 199 CURVE SMOOTH"
);
}
);
vertWidth = 1200;
width = 461;
}
);
leftKerningGroup = o;
leftMetricsKey = o;
note = d;
unicode = 0064;
},
{
glyphname = eth;
lastChange = "2025-02-14 18:35:57 +0000";
layers = (
{
background = {
paths = (
{
closed = 1;
nodes = (
"335 298 LINE",
"396 309 LINE",
"396 590 OFFCURVE",
"358 732 OFFCURVE",
"122 767 CURVE",
"97 727 LINE",
"226 713 OFFCURVE",
"318 626 OFFCURVE",
"320 446 CURVE"
);
},
{
closed = 1;
nodes = (
"121 576 LINE",
"412 726 LINE",
"412 792 LINE",
"121 642 LINE"
);
},
{
closed = 1;
nodes = (
"304 455 LINE",
"304 410 LINE",
"343 410 LINE",
"343 455 LINE"
);
},
{
closed = 1;
nodes = (
"341 310 LINE SMOOTH",
"341 450 OFFCURVE",
"283 515 OFFCURVE",
"193 515 CURVE SMOOTH",
"103 515 OFFCURVE",
"45 440 OFFCURVE",
"45 310 CURVE SMOOTH",
"45 215 LINE",
"121 215 LINE",
"121 300 LINE SMOOTH",
"121 390 OFFCURVE",
"153 460 OFFCURVE",
"223 460 CURVE SMOOTH",
"293 460 OFFCURVE",
"320 390 OFFCURVE",
"320 300 CURVE SMOOTH",
"320 258 LINE",
"341 258 LINE"
);
},
{
closed = 1;
nodes = (
"320 191 LINE SMOOTH",
"320 101 OFFCURVE",
"288 45 OFFCURVE",
"218 45 CURVE SMOOTH",
"148 45 OFFCURVE",
"121 101 OFFCURVE",
"121 191 CURVE SMOOTH",
"121 233 LINE",
"45 235 LINE",
"45 192 LINE SMOOTH",
"45 62 OFFCURVE",
"98 -10 OFFCURVE",
"218 -10 CURVE SMOOTH",
"338 -10 OFFCURVE",
"396 62 OFFCURVE",
"396 192 CURVE SMOOTH",
"396 309 LINE",
"320 309 LINE"
);
}
);
};
layerId = m01;
paths = (
{
closed = 1;
nodes = (
"167 576 LINE",
"315 649 LINE",
"339 613 OFFCURVE",
"352 567 OFFCURVE",
"352 507 CURVE SMOOTH",
"352 491 OFFCURVE",
"351 475 OFFCURVE",
"349 457 CURVE",
"335 453 LINE",
"315 494 OFFCURVE",
"277 515 OFFCURVE",
"227 515 CURVE SMOOTH",
"138 515 OFFCURVE",
"72 442 OFFCURVE",
"53 312 CURVE SMOOTH",
"37 194 LINE SMOOTH",
"34 175 OFFCURVE",
"33 158 OFFCURVE",
"33 142 CURVE SMOOTH",
"33 44 OFFCURVE",
"80 -10 OFFCURVE",
"184 -10 CURVE SMOOTH",
"303 -10 OFFCURVE",
"369 60 OFFCURVE",
"387 190 CURVE SMOOTH",
"404 307 LINE SMOOTH",
"414 377 OFFCURVE",
"420 439 OFFCURVE",
"420 492 CURVE SMOOTH",
"420 570 OFFCURVE",
"407 630 OFFCURVE",
"374 675 CURVE",
"479 726 LINE",
"488 792 LINE",
"332 717 LINE",
"298 741 OFFCURVE",
"252 758 OFFCURVE",
"193 767 CURVE",
"165 727 LINE",
"208 722 OFFCURVE",
"244 711 OFFCURVE",
"274 689 CURVE",
"175 642 LINE"
);
},
{
closed = 1;
nodes = (
"127 298 LINE SMOOTH",
"140 388 OFFCURVE",
"184 460 OFFCURVE",
"255 460 CURVE SMOOTH",
"310 460 OFFCURVE",
"331 417 OFFCURVE",
"331 355 CURVE SMOOTH",
"331 338 OFFCURVE",
"330 321 OFFCURVE",
"327 302 CURVE SMOOTH",
"312 193 LINE SMOOTH",
"299 103 OFFCURVE",
"257 45 OFFCURVE",
"186 45 CURVE SMOOTH",
"131 45 OFFCURVE",
"108 80 OFFCURVE",
"108 140 CURVE SMOOTH",
"108 155 OFFCURVE",
"109 171 OFFCURVE",
"112 189 CURVE SMOOTH"
);
}
);
width = 457;
}
);
leftKerningGroup = o;
leftMetricsKey = o;
rightMetricsKey = o;
unicode = 00F0;
},
{
color = 11;
glyphname = dcaron;
lastChange = "2025-02-14 18:35:57 +0000";
layers = (
{
anchors = (
{
name = bottom;
position = "{197, 0}";
},
{
name = center;
position = "{232, 253}";
},
{
name = top;
position = "{267, 505}";
},
{
name = topright;
position = "{479, 505}";
}
);
layerId = m01;
paths = (
{
closed = 1;
nodes = (
"348 455 LINE",
"335 453 LINE",
"315 494 OFFCURVE",
"277 515 OFFCURVE",
"227 515 CURVE SMOOTH",
"128 515 OFFCURVE",
"72 442 OFFCURVE",
"53 312 CURVE SMOOTH",
"37 194 LINE SMOOTH",
"34 174 OFFCURVE",
"33 155 OFFCURVE",
"33 137 CURVE SMOOTH",
"33 43 OFFCURVE",
"74 -10 OFFCURVE",
"159 -10 CURVE SMOOTH",
"208 -10 OFFCURVE",
"249 7 OFFCURVE",
"281 48 CURVE",
"292 50 LINE",
"285 0 LINE",
"361 0 LINE",
"463 727 LINE",
"387 727 LINE"
);
},
{
closed = 1;
nodes = (
"127 298 LINE SMOOTH",
"140 388 OFFCURVE",
"174 460 OFFCURVE",
"255 460 CURVE SMOOTH",
"310 460 OFFCURVE",
"331 417 OFFCURVE",
"331 355 CURVE SMOOTH",
"331 338 OFFCURVE",
"330 321 OFFCURVE",
"327 302 CURVE SMOOTH",
"313 203 LINE SMOOTH",
"300 113 OFFCURVE",
"262 45 OFFCURVE",
"191 45 CURVE SMOOTH",
"129 45 OFFCURVE",
"109 84 OFFCURVE",
"109 145 CURVE SMOOTH",
"109 161 OFFCURVE",
"110 180 OFFCURVE",
"113 199 CURVE SMOOTH"
);
},
{
closed = 1;
nodes = (
"561 561 LINE",
"648 727 LINE",
"567 727 LINE",
"507 561 LINE"
);
}
);
width = 571;
}
);
leftKerningGroup = o;
leftMetricsKey = d;
unicode = 010F;
},
{
glyphname = dcroat;
lastChange = "2025-02-14 18:35:57 +0000";
layers = (
{
anchors = (
{
name = bottom;
position = "{197, 0}";
},
{
name = center;
position = "{232, 253}";
},
{
name = top;
position = "{267, 505}";
},
{
name = topright;
position = "{479, 505}";
}
);
layerId = m01;
paths = (
{
closed = 1;
nodes = (
"218 586 LINE",
"367 586 LINE",
"348 455 LINE",
"335 453 LINE",
"315 494 OFFCURVE",
"277 515 OFFCURVE",
"227 515 CURVE SMOOTH",
"128 515 OFFCURVE",
"72 442 OFFCURVE",
"53 312 CURVE SMOOTH",
"37 194 LINE SMOOTH",
"34 174 OFFCURVE",
"33 155 OFFCURVE",
"33 137 CURVE SMOOTH",
"33 43 OFFCURVE",
"74 -10 OFFCURVE",
"159 -10 CURVE SMOOTH",
"208 -10 OFFCURVE",
"249 7 OFFCURVE",
"281 48 CURVE",
"292 50 LINE",
"285 0 LINE",
"361 0 LINE",
"443 586 LINE",
"508 586 LINE",
"516 642 LINE",
"451 642 LINE",
"463 727 LINE",
"387 727 LINE",
"375 642 LINE",
"226 642 LINE"
);
},
{
closed = 1;
nodes = (
"127 298 LINE SMOOTH",
"140 388 OFFCURVE",
"174 460 OFFCURVE",
"255 460 CURVE SMOOTH",
"310 460 OFFCURVE",
"331 417 OFFCURVE",
"331 355 CURVE SMOOTH",
"331 338 OFFCURVE",
"330 321 OFFCURVE",
"327 302 CURVE SMOOTH",
"313 203 LINE SMOOTH",
"300 113 OFFCURVE",
"262 45 OFFCURVE",
"191 45 CURVE SMOOTH",
"129 45 OFFCURVE",
"109 84 OFFCURVE",
"109 145 CURVE SMOOTH",
"109 161 OFFCURVE",
"110 180 OFFCURVE",
"113 199 CURVE SMOOTH"
);
}
);
width = 461;
}
);
leftKerningGroup = o;
leftMetricsKey = d;
unicode = 0111;
},
{
glyphname = e;
lastChange = "2025-02-14 18:35:57 +0000";
layers = (
{
anchors = (
{
name = bottom;
position = "{188, 0}";
},
{
name = ogonek;
position = "{257, 0}";
},
{
name = top;
position = "{258, 505}";
}
);
layerId = m01;
paths = (
{
closed = 1;
nodes = (
"414 308 LINE SMOOTH",
"416 324 OFFCURVE",
"417 340 OFFCURVE",
"417 354 CURVE SMOOTH",
"417 456 OFFCURVE",
"363 515 OFFCURVE",
"257 515 CURVE SMOOTH",
"138 515 OFFCURVE",
"72 442 OFFCURVE",
"53 312 CURVE SMOOTH",
"37 194 LINE SMOOTH",
"35 177 OFFCURVE",
"33 160 OFFCURVE",
"33 145 CURVE SMOOTH",
"33 46 OFFCURVE",
"84 -10 OFFCURVE",
"189 -10 CURVE SMOOTH",
"296 -10 OFFCURVE",
"364 47 OFFCURVE",
"390 153 CURVE",
"314 157 LINE",
"296 88 OFFCURVE",
"252 45 OFFCURVE",
"191 45 CURVE SMOOTH",
"134 45 OFFCURVE",
"109 82 OFFCURVE",
"109 145 CURVE SMOOTH",
"109 158 OFFCURVE",
"110 173 OFFCURVE",
"112 189 CURVE SMOOTH",
"118 229 LINE",
"403 229 LINE"
);
},
{
closed = 1;
nodes = (
"129 308 LINE SMOOTH",
"141 398 OFFCURVE",
"184 460 OFFCURVE",
"255 460 CURVE SMOOTH",
"313 460 OFFCURVE",
"341 419 OFFCURVE",
"341 353 CURVE SMOOTH",
"341 340 OFFCURVE",
"340 327 OFFCURVE",
"338 312 CURVE SMOOTH",
"334 284 LINE",
"125 284 LINE"
);
}
);
vertWidth = 1200;
width = 451;
}
);
leftKerningGroup = o;
leftMetricsKey = o;
note = e;
rightKerningGroup = o;
rightMetricsKey = o;
unicode = 0065;
},
{
color = 11;
glyphname = eacute;
lastChange = "2025-02-14 18:35:57 +0000";
layers = (
{
anchors = (
{
name = bottom;
position = "{188, 0}";
},
{
name = ogonek;
position = "{257, 0}";
},
{
name = top;
position = "{290, 727}";
}
);
layerId = m01;
paths = (
{
closed = 1;
nodes = (
"414 308 LINE SMOOTH",
"416 324 OFFCURVE",
"417 340 OFFCURVE",
"417 354 CURVE SMOOTH",
"417 456 OFFCURVE",
"363 515 OFFCURVE",
"257 515 CURVE SMOOTH",
"138 515 OFFCURVE",
"72 442 OFFCURVE",
"53 312 CURVE SMOOTH",
"37 194 LINE SMOOTH",
"35 177 OFFCURVE",
"33 160 OFFCURVE",
"33 145 CURVE SMOOTH",
"33 46 OFFCURVE",
"84 -10 OFFCURVE",
"189 -10 CURVE SMOOTH",
"296 -10 OFFCURVE",
"364 47 OFFCURVE",
"390 153 CURVE",
"314 157 LINE",
"296 88 OFFCURVE",
"252 45 OFFCURVE",
"191 45 CURVE SMOOTH",
"134 45 OFFCURVE",
"109 82 OFFCURVE",
"109 145 CURVE SMOOTH",
"109 158 OFFCURVE",
"110 173 OFFCURVE",
"112 189 CURVE SMOOTH",
"118 229 LINE",
"403 229 LINE"
);
},
{
closed = 1;
nodes = (
"129 308 LINE SMOOTH",
"141 398 OFFCURVE",
"184 460 OFFCURVE",
"255 460 CURVE SMOOTH",
"313 460 OFFCURVE",
"341 419 OFFCURVE",
"341 353 CURVE SMOOTH",
"341 340 OFFCURVE",
"340 327 OFFCURVE",
"338 312 CURVE SMOOTH",
"334 284 LINE",
"125 284 LINE"
);
},
{
closed = 1;
nodes = (
"303 586 LINE",
"444 727 LINE",
"344 727 LINE",
"235 586 LINE"
);
}
);
width = 451;
}
);
leftKerningGroup = o;
rightKerningGroup = o;
unicode = 00E9;
},
{
color = 11;
glyphname = ecaron;
lastChange = "2025-02-14 18:35:57 +0000";
layers = (
{
anchors = (
{
name = bottom;
position = "{188, 0}";
},
{
name = ogonek;
position = "{257, 0}";
},
{
name = top;
position = "{290, 727}";
}
);
hints = (
{
horizontal = 1;
place = "{551, 106}";
type = Stem;
},
{
place = "{42, 257}";
type = Stem;
}
);
layerId = m01;
paths = (
{
closed = 1;
nodes = (
"414 308 LINE SMOOTH",
"416 324 OFFCURVE",
"417 340 OFFCURVE",
"417 354 CURVE SMOOTH",
"417 456 OFFCURVE",
"363 515 OFFCURVE",
"257 515 CURVE SMOOTH",
"138 515 OFFCURVE",
"72 442 OFFCURVE",
"53 312 CURVE SMOOTH",
"37 194 LINE SMOOTH",
"35 177 OFFCURVE",
"33 160 OFFCURVE",
"33 145 CURVE SMOOTH",
"33 46 OFFCURVE",
"84 -10 OFFCURVE",
"189 -10 CURVE SMOOTH",
"296 -10 OFFCURVE",
"364 47 OFFCURVE",
"390 153 CURVE",
"314 157 LINE",
"296 88 OFFCURVE",
"252 45 OFFCURVE",
"191 45 CURVE SMOOTH",
"134 45 OFFCURVE",
"109 82 OFFCURVE",
"109 145 CURVE SMOOTH",
"109 158 OFFCURVE",
"110 173 OFFCURVE",
"112 189 CURVE SMOOTH",
"118 229 LINE",
"403 229 LINE"
);
},
{
closed = 1;
nodes = (
"229 586 LINE",
"311 586 LINE",
"421 727 LINE",
"345 727 LINE",
"275 633 LINE",
"233 727 LINE",
"159 727 LINE"
);
},
{
closed = 1;
nodes = (
"129 308 LINE SMOOTH",
"141 398 OFFCURVE",
"184 460 OFFCURVE",
"255 460 CURVE SMOOTH",
"313 460 OFFCURVE",
"341 419 OFFCURVE",
"341 353 CURVE SMOOTH",
"341 340 OFFCURVE",
"340 327 OFFCURVE",
"338 312 CURVE SMOOTH",
"334 284 LINE",
"125 284 LINE"
);
}
);
width = 451;
}
);
leftKerningGroup = o;
rightKerningGroup = o;
unicode = 011B;
},
{
color = 11;
glyphname = ecircumflex;
lastChange = "2025-02-14 18:35:57 +0000";
layers = (
{
anchors = (
{
name = bottom;
position = "{188, 0}";
},
{
name = ogonek;
position = "{257, 0}";
},
{
name = top;
position = "{290, 727}";
}
);
layerId = m01;
paths = (
{
closed = 1;
nodes = (
"414 308 LINE SMOOTH",
"416 324 OFFCURVE",
"417 340 OFFCURVE",
"417 354 CURVE SMOOTH",
"417 456 OFFCURVE",
"363 515 OFFCURVE",
"257 515 CURVE SMOOTH",
"138 515 OFFCURVE",
"72 442 OFFCURVE",
"53 312 CURVE SMOOTH",
"37 194 LINE SMOOTH",
"35 177 OFFCURVE",
"33 160 OFFCURVE",
"33 145 CURVE SMOOTH",
"33 46 OFFCURVE",
"84 -10 OFFCURVE",
"189 -10 CURVE SMOOTH",
"296 -10 OFFCURVE",
"364 47 OFFCURVE",
"390 153 CURVE",
"314 157 LINE",
"296 88 OFFCURVE",
"252 45 OFFCURVE",
"191 45 CURVE SMOOTH",
"134 45 OFFCURVE",
"109 82 OFFCURVE",
"109 145 CURVE SMOOTH",
"109 158 OFFCURVE",
"110 173 OFFCURVE",
"112 189 CURVE SMOOTH",
"118 229 LINE",
"403 229 LINE"
);
},
{
closed = 1;
nodes = (
"214 586 LINE",
"284 680 LINE",
"326 586 LINE",
"400 586 LINE",
"330 727 LINE",
"248 727 LINE",
"138 586 LINE"
);
},
{
closed = 1;
nodes = (
"129 308 LINE SMOOTH",
"141 398 OFFCURVE",
"184 460 OFFCURVE",
"255 460 CURVE SMOOTH",
"313 460 OFFCURVE",
"341 419 OFFCURVE",
"341 353 CURVE SMOOTH",
"341 340 OFFCURVE",
"340 327 OFFCURVE",
"338 312 CURVE SMOOTH",
"334 284 LINE",
"125 284 LINE"
);
}
);
width = 451;
}
);
leftKerningGroup = o;
rightKerningGroup = o;
unicode = 00EA;
},
{
color = 11;
glyphname = edieresis;
lastChange = "2025-02-14 18:35:57 +0000";
layers = (
{
anchors = (
{
name = bottom;
position = "{188, 0}";
},
{
name = ogonek;
position = "{257, 0}";
},
{
name = top;
position = "{282, 674}";
}
);
hints = (
{
horizontal = 1;
place = "{576, 48}";
type = Stem;
},
{
place = "{238, 45}";
type = Stem;
},
{
place = "{58, 45}";
type = Stem;
},
{
horizontal = 1;
place = "{576, 48}";
type = Stem;
},
{
place = "{227, 45}";
type = Stem;
},
{
place = "{47, 45}";
type = Stem;
}
);
layerId = m01;
paths = (
{
closed = 1;
nodes = (
"414 308 LINE SMOOTH",
"416 324 OFFCURVE",
"417 340 OFFCURVE",
"417 354 CURVE SMOOTH",
"417 456 OFFCURVE",
"363 515 OFFCURVE",
"257 515 CURVE SMOOTH",
"138 515 OFFCURVE",
"72 442 OFFCURVE",
"53 312 CURVE SMOOTH",
"37 194 LINE SMOOTH",
"35 177 OFFCURVE",
"33 160 OFFCURVE",
"33 145 CURVE SMOOTH",
"33 46 OFFCURVE",
"84 -10 OFFCURVE",
"189 -10 CURVE SMOOTH",
"296 -10 OFFCURVE",
"364 47 OFFCURVE",
"390 153 CURVE",
"314 157 LINE",
"296 88 OFFCURVE",
"252 45 OFFCURVE",
"191 45 CURVE SMOOTH",
"134 45 OFFCURVE",
"109 82 OFFCURVE",
"109 145 CURVE SMOOTH",
"109 158 OFFCURVE",
"110 173 OFFCURVE",
"112 189 CURVE SMOOTH",
"118 229 LINE",
"403 229 LINE"
);
},
{
closed = 1;
nodes = (
"221 591 LINE",
"232 674 LINE",
"152 674 LINE",
"141 591 LINE"
);
},
{
closed = 1;
nodes = (
"129 308 LINE SMOOTH",
"141 398 OFFCURVE",
"184 460 OFFCURVE",
"255 460 CURVE SMOOTH",
"313 460 OFFCURVE",
"341 419 OFFCURVE",
"341 353 CURVE SMOOTH",
"341 340 OFFCURVE",
"340 327 OFFCURVE",
"338 312 CURVE SMOOTH",
"334 284 LINE",
"125 284 LINE"
);
},
{
closed = 1;
nodes = (
"401 591 LINE",
"412 674 LINE",
"332 674 LINE",
"321 591 LINE"
);
}
);
width = 451;
}
);
leftKerningGroup = o;
rightKerningGroup = o;
unicode = 00EB;
},
{
color = 11;
glyphname = edotaccent;
lastChange = "2025-02-14 18:35:57 +0000";
layers = (
{
anchors = (
{
name = bottom;
position = "{188, 0}";
},
{
name = ogonek;
position = "{257, 0}";
},
{
name = top;
position = "{282, 674}";
}
);
layerId = m01;
paths = (
{
closed = 1;
nodes = (
"414 308 LINE SMOOTH",
"416 324 OFFCURVE",
"417 340 OFFCURVE",
"417 354 CURVE SMOOTH",
"417 456 OFFCURVE",
"363 515 OFFCURVE",
"257 515 CURVE SMOOTH",
"138 515 OFFCURVE",
"72 442 OFFCURVE",
"53 312 CURVE SMOOTH",
"37 194 LINE SMOOTH",
"35 177 OFFCURVE",
"33 160 OFFCURVE",
"33 145 CURVE SMOOTH",
"33 46 OFFCURVE",
"84 -10 OFFCURVE",
"189 -10 CURVE SMOOTH",
"296 -10 OFFCURVE",
"364 47 OFFCURVE",
"390 153 CURVE",
"314 157 LINE",
"296 88 OFFCURVE",
"252 45 OFFCURVE",
"191 45 CURVE SMOOTH",
"134 45 OFFCURVE",
"109 82 OFFCURVE",
"109 145 CURVE SMOOTH",
"109 158 OFFCURVE",
"110 173 OFFCURVE",
"112 189 CURVE SMOOTH",
"118 229 LINE",
"403 229 LINE"
);
},
{
closed = 1;
nodes = (
"129 308 LINE SMOOTH",
"141 398 OFFCURVE",
"184 460 OFFCURVE",
"255 460 CURVE SMOOTH",
"313 460 OFFCURVE",
"341 419 OFFCURVE",
"341 353 CURVE SMOOTH",
"341 340 OFFCURVE",
"340 327 OFFCURVE",
"338 312 CURVE SMOOTH",
"334 284 LINE",
"125 284 LINE"
);
},
{
closed = 1;
nodes = (
"311 591 LINE",
"322 674 LINE",
"242 674 LINE",
"231 591 LINE"
);
}
);
width = 451;
}
);
leftKerningGroup = o;
rightKerningGroup = o;
unicode = 0117;
},
{
color = 11;
glyphname = egrave;
lastChange = "2025-02-14 18:35:57 +0000";
layers = (
{
anchors = (
{
name = bottom;
position = "{188, 0}";
},
{
name = ogonek;
position = "{257, 0}";
},
{
name = top;
position = "{290, 727}";
}
);
layerId = m01;
paths = (
{
closed = 1;
nodes = (
"414 308 LINE SMOOTH",
"416 324 OFFCURVE",
"417 340 OFFCURVE",
"417 354 CURVE SMOOTH",
"417 456 OFFCURVE",
"363 515 OFFCURVE",
"257 515 CURVE SMOOTH",
"138 515 OFFCURVE",
"72 442 OFFCURVE",
"53 312 CURVE SMOOTH",
"37 194 LINE SMOOTH",
"35 177 OFFCURVE",
"33 160 OFFCURVE",
"33 145 CURVE SMOOTH",
"33 46 OFFCURVE",
"84 -10 OFFCURVE",
"189 -10 CURVE SMOOTH",
"296 -10 OFFCURVE",
"364 47 OFFCURVE",
"390 153 CURVE",
"314 157 LINE",
"296 88 OFFCURVE",
"252 45 OFFCURVE",
"191 45 CURVE SMOOTH",
"134 45 OFFCURVE",
"109 82 OFFCURVE",
"109 145 CURVE SMOOTH",
"109 158 OFFCURVE",
"110 173 OFFCURVE",
"112 189 CURVE SMOOTH",
"118 229 LINE",
"403 229 LINE"
);
},
{
closed = 1;
nodes = (
"237 586 LINE",
"303 586 LINE",
"234 727 LINE",
"136 727 LINE"
);
},
{
closed = 1;
nodes = (
"129 308 LINE SMOOTH",
"141 398 OFFCURVE",
"184 460 OFFCURVE",
"255 460 CURVE SMOOTH",
"313 460 OFFCURVE",
"341 419 OFFCURVE",
"341 353 CURVE SMOOTH",
"341 340 OFFCURVE",
"340 327 OFFCURVE",
"338 312 CURVE SMOOTH",
"334 284 LINE",
"125 284 LINE"
);
}
);
width = 451;
}
);
leftKerningGroup = o;
rightKerningGroup = o;
unicode = 00E8;
},
{
color = 11;
glyphname = emacron;
lastChange = "2025-02-14 18:35:57 +0000";
layers = (
{
anchors = (
{
name = bottom;
position = "{188, 0}";
},
{
name = ogonek;
position = "{257, 0}";
},
{
name = top;
position = "{278, 647}";
}
);
hints = (
{
horizontal = 1;
place = "{573, 26}";
type = Stem;
},
{
place = "{84, 172}";
type = Stem;
},
{
horizontal = 1;
place = "{573, 26}";
type = Stem;
},
{
place = "{74, 172}";
type = Stem;
}
);
layerId = m01;
paths = (
{
closed = 1;
nodes = (
"414 308 LINE SMOOTH",
"416 324 OFFCURVE",
"417 340 OFFCURVE",
"417 354 CURVE SMOOTH",
"417 456 OFFCURVE",
"363 515 OFFCURVE",
"257 515 CURVE SMOOTH",
"138 515 OFFCURVE",
"72 442 OFFCURVE",
"53 312 CURVE SMOOTH",
"37 194 LINE SMOOTH",
"35 177 OFFCURVE",
"33 160 OFFCURVE",
"33 145 CURVE SMOOTH",
"33 46 OFFCURVE",
"84 -10 OFFCURVE",
"189 -10 CURVE SMOOTH",
"296 -10 OFFCURVE",
"364 47 OFFCURVE",
"390 153 CURVE",
"314 157 LINE",
"296 88 OFFCURVE",
"252 45 OFFCURVE",
"191 45 CURVE SMOOTH",
"134 45 OFFCURVE",
"109 82 OFFCURVE",
"109 145 CURVE SMOOTH",
"109 158 OFFCURVE",
"110 173 OFFCURVE",
"112 189 CURVE SMOOTH",
"118 229 LINE",
"403 229 LINE"
);
},
{
closed = 1;
nodes = (
"374 586 LINE",
"382 647 LINE",
"174 647 LINE",
"166 586 LINE"
);
},
{
closed = 1;
nodes = (
"129 308 LINE SMOOTH",
"141 398 OFFCURVE",
"184 460 OFFCURVE",
"255 460 CURVE SMOOTH",
"313 460 OFFCURVE",
"341 419 OFFCURVE",
"341 353 CURVE SMOOTH",
"341 340 OFFCURVE",
"340 327 OFFCURVE",
"338 312 CURVE SMOOTH",
"334 284 LINE",
"125 284 LINE"
);
}
);
width = 451;
}
);
leftKerningGroup = o;
rightKerningGroup = o;
unicode = 0113;
},
{
color = 11;
glyphname = eogonek;
lastChange = "2025-02-14 18:35:57 +0000";
layers = (
{
anchors = (
{
name = bottom;
position = "{188, 0}";
},
{
name = ogonek;
position = "{257, 0}";
},
{
name = top;
position = "{258, 505}";
}
);
layerId = m01;
paths = (
{
closed = 1;
nodes = (
"414 308 LINE SMOOTH",
"416 324 OFFCURVE",
"417 340 OFFCURVE",
"417 354 CURVE SMOOTH",
"417 456 OFFCURVE",
"363 515 OFFCURVE",
"257 515 CURVE SMOOTH",
"138 515 OFFCURVE",
"72 442 OFFCURVE",
"53 312 CURVE SMOOTH",
"37 194 LINE SMOOTH",
"35 176 OFFCURVE",
"33 160 OFFCURVE",
"33 144 CURVE SMOOTH",
"33 48 OFFCURVE",
"82 -7 OFFCURVE",
"179 -8 CURVE",
"138 -40 OFFCURVE",
"125 -66 OFFCURVE",
"125 -109 CURVE SMOOTH",
"125 -164 OFFCURVE",
"166 -188 OFFCURVE",
"226 -188 CURVE SMOOTH",
"238 -188 OFFCURVE",
"252 -187 OFFCURVE",
"266 -185 CURVE",
"272 -124 LINE",
"263 -127 OFFCURVE",
"254 -129 OFFCURVE",
"243 -129 CURVE SMOOTH",
"216 -129 OFFCURVE",
"189 -117 OFFCURVE",
"189 -91 CURVE SMOOTH",
"189 -60 OFFCURVE",
"213 -32 OFFCURVE",
"258 -2 CURVE",
"326 20 OFFCURVE",
"370 72 OFFCURVE",
"390 153 CURVE",
"314 157 LINE",
"296 88 OFFCURVE",
"252 45 OFFCURVE",
"191 45 CURVE SMOOTH",
"134 45 OFFCURVE",
"109 82 OFFCURVE",
"109 145 CURVE SMOOTH",
"109 158 OFFCURVE",
"110 173 OFFCURVE",
"112 189 CURVE SMOOTH",
"118 229 LINE",
"403 229 LINE"
);
},
{
closed = 1;
nodes = (
"129 308 LINE SMOOTH",
"141 398 OFFCURVE",
"184 460 OFFCURVE",
"255 460 CURVE SMOOTH",
"313 460 OFFCURVE",
"341 419 OFFCURVE",
"341 353 CURVE SMOOTH",
"341 340 OFFCURVE",
"340 327 OFFCURVE",
"338 312 CURVE SMOOTH",
"334 284 LINE",
"125 284 LINE"
);
}
);
width = 451;
}
);
leftKerningGroup = o;
rightKerningGroup = o;
unicode = 0119;
},
{
color = 3;
glyphname = f;
lastChange = "2025-02-14 18:34:36 +0000";
layers = (
{
anchors = (
{
name = bottom;
position = "{124, 0}";
},
{
name = top;
position = "{194, 505}";
}
);
layerId = m01;
paths = (
{
closed = 1;
nodes = (
"152 0 LINE",
"215 450 LINE",
"311 450 LINE",
"318 505 LINE",
"222 505 LINE",
"235 592 LINE SMOOTH",
"244 659 OFFCURVE",
"293 668 OFFCURVE",
"349 668 CURVE",
"356 727 LINE",
"317 727 LINE SMOOTH",
"229 727 OFFCURVE",
"175 707 OFFCURVE",
"159 596 CURVE SMOOTH",
"146 505 LINE",
"65 505 LINE",
"58 450 LINE",
"139 450 LINE",
"76 0 LINE"
);
}
);
vertWidth = 1200;
width = 319;
}
);
note = f;
rightKerningGroup = f;
unicode = 0066;
},
{
glyphname = g;
lastChange = "2025-02-14 18:35:57 +0000";
layers = (
{
anchors = (
{
name = bottom;
position = "{194, 0}";
},
{
name = top;
position = "{264, 505}";
}
);
layerId = m01;
paths = (
{
closed = 1;
nodes = (
"17 -77 OFFCURVE",
"16 -85 OFFCURVE",
"16 -93 CURVE SMOOTH",
"16 -164 OFFCURVE",
"64 -200 OFFCURVE",
"169 -200 CURVE SMOOTH",
"302 -200 OFFCURVE",
"340 -147 OFFCURVE",
"359 -12 CURVE SMOOTH",
"431 505 LINE",
"355 505 LINE",
"348 455 LINE",
"335 453 LINE",
"315 494 OFFCURVE",
"277 515 OFFCURVE",
"227 515 CURVE SMOOTH",
"128 515 OFFCURVE",
"72 442 OFFCURVE",
"53 312 CURVE SMOOTH",
"37 194 LINE SMOOTH",
"34 174 OFFCURVE",
"33 155 OFFCURVE",
"33 137 CURVE SMOOTH",
"33 43 OFFCURVE",
"74 -10 OFFCURVE",
"159 -10 CURVE SMOOTH",
"208 -10 OFFCURVE",
"249 7 OFFCURVE",
"281 48 CURVE",
"292 50 LINE",
"278 -44 LINE SMOOTH",
"268 -116 OFFCURVE",
"230 -145 OFFCURVE",
"169 -145 CURVE SMOOTH",
"120 -145 OFFCURVE",
"93 -128 OFFCURVE",
"93 -72 CURVE",
"18 -68 LINE"
);
},
{
closed = 1;
nodes = (
"127 298 LINE SMOOTH",
"140 388 OFFCURVE",
"174 460 OFFCURVE",
"255 460 CURVE SMOOTH",
"310 460 OFFCURVE",
"331 417 OFFCURVE",
"331 355 CURVE SMOOTH",
"331 338 OFFCURVE",
"330 321 OFFCURVE",
"327 302 CURVE SMOOTH",
"313 203 LINE SMOOTH",
"300 113 OFFCURVE",
"262 45 OFFCURVE",
"191 45 CURVE SMOOTH",
"129 45 OFFCURVE",
"109 84 OFFCURVE",
"109 145 CURVE SMOOTH",
"109 161 OFFCURVE",
"110 180 OFFCURVE",
"113 199 CURVE SMOOTH"
);
}
);
vertWidth = 1200;
width = 461;
}
);
leftKerningGroup = o;
leftMetricsKey = o;
note = g;
rightMetricsKey = d;
unicode = 0067;
},
{
color = 11;
glyphname = gbreve;
lastChange = "2025-02-14 18:35:57 +0000";
layers = (
{
anchors = (
{
name = bottom;
position = "{194, 0}";
},
{
name = top;
position = "{292, 704}";
}
);
hints = (
{
horizontal = 1;
place = "{563, 28}";
type = Stem;
},
{
place = "{261, 28}";
type = Stem;
},
{
place = "{64, 28}";
type = Stem;
}
);
layerId = m01;
paths = (
{
closed = 1;
nodes = (
"17 -77 OFFCURVE",
"16 -85 OFFCURVE",
"16 -93 CURVE SMOOTH",
"16 -164 OFFCURVE",
"64 -200 OFFCURVE",
"169 -200 CURVE SMOOTH",
"302 -200 OFFCURVE",
"340 -147 OFFCURVE",
"359 -12 CURVE SMOOTH",
"431 505 LINE",
"355 505 LINE",
"348 455 LINE",
"335 453 LINE",
"315 494 OFFCURVE",
"277 515 OFFCURVE",
"227 515 CURVE SMOOTH",
"128 515 OFFCURVE",
"72 442 OFFCURVE",
"53 312 CURVE SMOOTH",
"37 194 LINE SMOOTH",
"34 174 OFFCURVE",
"33 155 OFFCURVE",
"33 137 CURVE SMOOTH",
"33 43 OFFCURVE",
"74 -10 OFFCURVE",
"159 -10 CURVE SMOOTH",
"208 -10 OFFCURVE",
"249 7 OFFCURVE",
"281 48 CURVE",
"292 50 LINE",
"278 -44 LINE SMOOTH",
"268 -116 OFFCURVE",
"230 -145 OFFCURVE",
"169 -145 CURVE SMOOTH",
"120 -145 OFFCURVE",
"93 -128 OFFCURVE",
"93 -72 CURVE",
"18 -68 LINE"
);
},
{
closed = 1;
nodes = (
"177 697 OFFCURVE",
"177 689 OFFCURVE",
"177 681 CURVE SMOOTH",
"177 607 OFFCURVE",
"205 586 OFFCURVE",
"279 586 CURVE SMOOTH",
"358 586 OFFCURVE",
"387 606 OFFCURVE",
"406 702 CURVE",
"339 706 LINE",
"327 651 OFFCURVE",
"313 638 OFFCURVE",
"279 638 CURVE SMOOTH",
"253 638 OFFCURVE",
"244 650 OFFCURVE",
"247 702 CURVE",
"178 706 LINE"
);
},
{
closed = 1;
nodes = (
"127 298 LINE SMOOTH",
"140 388 OFFCURVE",
"174 460 OFFCURVE",
"255 460 CURVE SMOOTH",
"310 460 OFFCURVE",
"331 417 OFFCURVE",
"331 355 CURVE SMOOTH",
"331 338 OFFCURVE",
"330 321 OFFCURVE",
"327 302 CURVE SMOOTH",
"313 203 LINE SMOOTH",
"300 113 OFFCURVE",
"262 45 OFFCURVE",
"191 45 CURVE SMOOTH",
"129 45 OFFCURVE",
"109 84 OFFCURVE",
"109 145 CURVE SMOOTH",
"109 161 OFFCURVE",
"110 180 OFFCURVE",
"113 199 CURVE SMOOTH"
);
}
);
width = 461;
}
);
leftKerningGroup = o;
unicode = 011F;
},
{
color = 11;
glyphname = gcommaaccent;
lastChange = "2025-02-14 18:35:57 +0000";
layers = (
{
anchors = (
{
name = bottom;
position = "{194, 0}";
},
{
name = top;
position = "{315, 727}";
}
);
layerId = m01;
paths = (
{
closed = 1;
nodes = (
"17 -77 OFFCURVE",
"16 -85 OFFCURVE",
"16 -93 CURVE SMOOTH",
"16 -164 OFFCURVE",
"64 -200 OFFCURVE",
"169 -200 CURVE SMOOTH",
"302 -200 OFFCURVE",
"340 -147 OFFCURVE",
"359 -12 CURVE SMOOTH",
"431 505 LINE",
"355 505 LINE",
"348 455 LINE",
"335 453 LINE",
"315 494 OFFCURVE",
"277 515 OFFCURVE",
"227 515 CURVE SMOOTH",
"128 515 OFFCURVE",
"72 442 OFFCURVE",
"53 312 CURVE SMOOTH",
"37 194 LINE SMOOTH",
"34 174 OFFCURVE",
"33 155 OFFCURVE",
"33 137 CURVE SMOOTH",
"33 43 OFFCURVE",
"74 -10 OFFCURVE",
"159 -10 CURVE SMOOTH",
"208 -10 OFFCURVE",
"249 7 OFFCURVE",
"281 48 CURVE",
"292 50 LINE",
"278 -44 LINE SMOOTH",
"268 -116 OFFCURVE",
"230 -145 OFFCURVE",
"169 -145 CURVE SMOOTH",
"120 -145 OFFCURVE",
"93 -128 OFFCURVE",
"93 -72 CURVE",
"18 -68 LINE"
);
},
{
closed = 1;
nodes = (
"127 298 LINE SMOOTH",
"140 388 OFFCURVE",
"174 460 OFFCURVE",
"255 460 CURVE SMOOTH",
"310 460 OFFCURVE",
"331 417 OFFCURVE",
"331 355 CURVE SMOOTH",
"331 338 OFFCURVE",
"330 321 OFFCURVE",
"327 302 CURVE SMOOTH",
"313 203 LINE SMOOTH",
"300 113 OFFCURVE",
"262 45 OFFCURVE",
"191 45 CURVE SMOOTH",
"129 45 OFFCURVE",
"109 84 OFFCURVE",
"109 145 CURVE SMOOTH",
"109 161 OFFCURVE",
"110 180 OFFCURVE",
"113 199 CURVE SMOOTH"
);
},
{
closed = 1;
nodes = (
"313 561 LINE",
"373 727 LINE",
"319 727 LINE",
"232 561 LINE"
);
}
);
width = 461;
}
);
leftKerningGroup = o;
unicode = 0123;
},
{
color = 11;
glyphname = gdotaccent;
lastChange = "2025-02-14 18:35:57 +0000";
layers = (
{
anchors = (
{
name = bottom;
position = "{194, 0}";
},
{
name = top;
position = "{288, 674}";
}
);
layerId = m01;
paths = (
{
closed = 1;
nodes = (
"17 -77 OFFCURVE",
"16 -85 OFFCURVE",
"16 -93 CURVE SMOOTH",
"16 -164 OFFCURVE",
"64 -200 OFFCURVE",
"169 -200 CURVE SMOOTH",
"302 -200 OFFCURVE",
"340 -147 OFFCURVE",
"359 -12 CURVE SMOOTH",
"431 505 LINE",
"355 505 LINE",
"348 455 LINE",
"335 453 LINE",
"315 494 OFFCURVE",
"277 515 OFFCURVE",
"227 515 CURVE SMOOTH",
"128 515 OFFCURVE",
"72 442 OFFCURVE",
"53 312 CURVE SMOOTH",
"37 194 LINE SMOOTH",
"34 174 OFFCURVE",
"33 155 OFFCURVE",
"33 137 CURVE SMOOTH",
"33 43 OFFCURVE",
"74 -10 OFFCURVE",
"159 -10 CURVE SMOOTH",
"208 -10 OFFCURVE",
"249 7 OFFCURVE",
"281 48 CURVE",
"292 50 LINE",
"278 -44 LINE SMOOTH",
"268 -116 OFFCURVE",
"230 -145 OFFCURVE",
"169 -145 CURVE SMOOTH",
"120 -145 OFFCURVE",
"93 -128 OFFCURVE",
"93 -72 CURVE",
"18 -68 LINE"
);
},
{
closed = 1;
nodes = (
"127 298 LINE SMOOTH",
"140 388 OFFCURVE",
"174 460 OFFCURVE",
"255 460 CURVE SMOOTH",
"310 460 OFFCURVE",
"331 417 OFFCURVE",
"331 355 CURVE SMOOTH",
"331 338 OFFCURVE",
"330 321 OFFCURVE",
"327 302 CURVE SMOOTH",
"313 203 LINE SMOOTH",
"300 113 OFFCURVE",
"262 45 OFFCURVE",
"191 45 CURVE SMOOTH",
"129 45 OFFCURVE",
"109 84 OFFCURVE",
"109 145 CURVE SMOOTH",
"109 161 OFFCURVE",
"110 180 OFFCURVE",
"113 199 CURVE SMOOTH"
);
},
{
closed = 1;
nodes = (
"317 591 LINE",
"328 674 LINE",
"248 674 LINE",
"237 591 LINE"
);
}
);
width = 461;
}
);
leftKerningGroup = o;
unicode = 0121;
},
{
glyphname = h;
lastChange = "2025-02-14 18:35:57 +0000";
layers = (
{
anchors = (
{
name = bottom;
position = "{202, 0}";
},
{
name = center;
position = "{237, 253}";
},
{
name = top;
position = "{272, 505}";
}
);
background = {
paths = (
{
closed = 1;
nodes = (
"141 0 LINE",
"141 312 LINE SMOOTH",
"141 419 OFFCURVE",
"165 456 OFFCURVE",
"234 456 CURVE SMOOTH",
"294 456 OFFCURVE",
"310 426 OFFCURVE",
"310 312 CURVE SMOOTH",
"310 0 LINE",
"386 0 LINE",
"386 310 LINE SMOOTH",
"386 460 OFFCURVE",
"354 511 OFFCURVE",
"258 511 CURVE SMOOTH",
"210 511 OFFCURVE",
"173 497 OFFCURVE",
"141 468 CURVE",
"141 727 LINE",
"65 727 LINE",
"65 0 LINE"
);
}
);
};
layerId = m01;
paths = (
{
closed = 1;
nodes = (
"30 0 LINE",
"106 0 LINE",
"147 298 LINE SMOOTH",
"160 388 OFFCURVE",
"199 460 OFFCURVE",
"270 460 CURVE SMOOTH",
"332 460 OFFCURVE",
"349 432 OFFCURVE",
"349 381 CURVE SMOOTH",
"349 358 OFFCURVE",
"346 332 OFFCURVE",
"342 302 CURVE SMOOTH",
"300 0 LINE",
"376 0 LINE",
"419 308 LINE SMOOTH",
"423 335 OFFCURVE",
"425 359 OFFCURVE",
"425 380 CURVE SMOOTH",
"425 477 OFFCURVE",
"386 515 OFFCURVE",
"307 515 CURVE SMOOTH",
"253 515 OFFCURVE",
"211 496 OFFCURVE",
"181 457 CURVE",
"169 455 LINE",
"208 727 LINE",
"132 727 LINE"
);
}
);
vertWidth = 1200;
width = 471;
}
);
leftMetricsKey = n;
note = h;
rightKerningGroup = n;
rightMetricsKey = n;
unicode = 0068;
},
{
glyphname = hbar;
lastChange = "2025-02-14 18:35:57 +0000";
layers = (
{
anchors = (
{
name = bottom;
position = "{202, 0}";
},
{
name = center;
position = "{237, 253}";
},
{
name = top;
position = "{272, 505}";
}
);
layerId = m01;
paths = (
{
closed = 1;
nodes = (
"47 586 LINE",
"112 586 LINE",
"30 0 LINE",
"106 0 LINE",
"147 298 LINE SMOOTH",
"160 388 OFFCURVE",
"199 460 OFFCURVE",
"270 460 CURVE SMOOTH",
"332 460 OFFCURVE",
"349 432 OFFCURVE",
"349 381 CURVE SMOOTH",
"349 358 OFFCURVE",
"346 332 OFFCURVE",
"342 302 CURVE SMOOTH",
"300 0 LINE",
"376 0 LINE",
"419 308 LINE SMOOTH",
"423 335 OFFCURVE",
"425 359 OFFCURVE",
"425 380 CURVE SMOOTH",
"425 477 OFFCURVE",
"386 515 OFFCURVE",
"307 515 CURVE SMOOTH",
"253 515 OFFCURVE",
"211 496 OFFCURVE",
"181 457 CURVE",
"169 455 LINE",
"188 586 LINE",
"339 586 LINE",
"347 642 LINE",
"196 642 LINE",
"208 727 LINE",
"132 727 LINE",
"120 642 LINE",
"55 642 LINE"
);
}
);
width = 471;
}
);
rightKerningGroup = n;
unicode = 0127;
},
{
glyphname = i;
lastChange = "2025-02-14 18:34:36 +0000";
layers = (
{
anchors = (
{
name = bottom;
position = "{73, 0}";
}
);
layerId = m01;
paths = (
{
closed = 1;
nodes = (
"111 0 LINE",
"181 505 LINE",
"105 505 LINE",
"35 0 LINE"
);
},
{
closed = 1;
nodes = (
"206 645 LINE",
"218 727 LINE",
"132 727 LINE",
"120 645 LINE"
);
}
);
vertWidth = 1200;
width = 216;
}
);
leftMetricsKey = n;
note = i;
rightMetricsKey = d;
unicode = 0069;
},
{
glyphname = idotless;
lastChange = "2025-02-14 18:34:36 +0000";
layers = (
{
anchors = (
{
name = bottom;
position = "{73, 0}";
},
{
name = ogonek;
position = "{111, 0}";
},
{
name = top;
position = "{143, 505}";
}
);
layerId = m01;
paths = (
{
closed = 1;
nodes = (
"111 0 LINE",
"181 505 LINE",
"105 505 LINE",
"35 0 LINE"
);
}
);
width = 216;
}
);
leftMetricsKey = "=i+5";
rightMetricsKey = "=i+5";
unicode = 0131;
},
{
color = 11;
glyphname = iacute;
lastChange = "2025-02-14 18:34:36 +0000";
layers = (
{
anchors = (
{
name = bottom;
position = "{73, 0}";
},
{
name = ogonek;
position = "{111, 0}";
},
{
name = top;
position = "{175, 727}";
}
);
layerId = m01;
paths = (
{
closed = 1;
nodes = (
"111 0 LINE",
"181 505 LINE",
"105 505 LINE",
"35 0 LINE"
);
},
{
closed = 1;
nodes = (
"188 586 LINE",
"329 727 LINE",
"229 727 LINE",
"120 586 LINE"
);
}
);
width = 216;
}
);
unicode = 00ED;
},
{
color = 11;
glyphname = icircumflex;
lastChange = "2025-02-14 18:34:36 +0000";
layers = (
{
anchors = (
{
name = bottom;
position = "{73, 0}";
},
{
name = ogonek;
position = "{111, 0}";
},
{
name = top;
position = "{175, 727}";
}
);
layerId = m01;
paths = (
{
closed = 1;
nodes = (
"111 0 LINE",
"181 505 LINE",
"105 505 LINE",
"35 0 LINE"
);
},
{
closed = 1;
nodes = (
"99 586 LINE",
"169 680 LINE",
"211 586 LINE",
"285 586 LINE",
"215 727 LINE",
"133 727 LINE",
"23 586 LINE"
);
}
);
width = 216;
}
);
unicode = 00EE;
},
{
color = 11;
glyphname = idieresis;
lastChange = "2025-02-14 18:34:36 +0000";
layers = (
{
anchors = (
{
name = bottom;
position = "{73, 0}";
},
{
name = ogonek;
position = "{111, 0}";
},
{
name = top;
position = "{167, 674}";
}
);
hints = (
{
horizontal = 1;
place = "{576, 48}";
type = Stem;
},
{
place = "{123, 45}";
type = Stem;
},
{
place = "{-57, 45}";
type = Stem;
},
{
horizontal = 1;
place = "{576, 48}";
type = Stem;
},
{
place = "{112, 45}";
type = Stem;
},
{
place = "{-68, 45}";
type = Stem;
}
);
layerId = m01;
paths = (
{
closed = 1;
nodes = (
"111 0 LINE",
"181 505 LINE",
"105 505 LINE",
"35 0 LINE"
);
},
{
closed = 1;
nodes = (
"106 591 LINE",
"117 674 LINE",
"37 674 LINE",
"26 591 LINE"
);
},
{
closed = 1;
nodes = (
"286 591 LINE",
"297 674 LINE",
"217 674 LINE",
"206 591 LINE"
);
}
);
width = 216;
}
);
unicode = 00EF;
},
{
color = 11;
glyphname = idotaccent;
lastChange = "2025-02-14 18:34:36 +0000";
layers = (
{
anchors = (
{
name = bottom;
position = "{73, 0}";
},
{
name = ogonek;
position = "{111, 0}";
},
{
name = top;
position = "{167, 674}";
}
);
layerId = m01;
paths = (
{
closed = 1;
nodes = (
"111 0 LINE",
"181 505 LINE",
"105 505 LINE",
"35 0 LINE"
);
},
{
closed = 1;
nodes = (
"196 591 LINE",
"207 674 LINE",
"127 674 LINE",
"116 591 LINE"
);
}
);
width = 216;
}
);
},
{
color = 11;
glyphname = igrave;
lastChange = "2025-02-14 18:34:36 +0000";
layers = (
{
anchors = (
{
name = bottom;
position = "{73, 0}";
},
{
name = ogonek;
position = "{111, 0}";
},
{
name = top;
position = "{175, 727}";
}
);
layerId = m01;
paths = (
{
closed = 1;
nodes = (
"111 0 LINE",
"181 505 LINE",
"105 505 LINE",
"35 0 LINE"
);
},
{
closed = 1;
nodes = (
"122 586 LINE",
"188 586 LINE",
"119 727 LINE",
"21 727 LINE"
);
}
);
width = 216;
}
);
unicode = 00EC;
},
{
color = 11;
glyphname = imacron;
lastChange = "2025-02-14 18:34:36 +0000";
layers = (
{
anchors = (
{
name = bottom;
position = "{73, 0}";
},
{
name = ogonek;
position = "{111, 0}";
},
{
name = top;
position = "{163, 647}";
}
);
hints = (
{
horizontal = 1;
place = "{573, 26}";
type = Stem;
},
{
place = "{-31, 172}";
type = Stem;
},
{
horizontal = 1;
place = "{573, 26}";
type = Stem;
},
{
place = "{-41, 172}";
type = Stem;
}
);
layerId = m01;
paths = (
{
closed = 1;
nodes = (
"111 0 LINE",
"181 505 LINE",
"105 505 LINE",
"35 0 LINE"
);
},
{
closed = 1;
nodes = (
"259 586 LINE",
"267 647 LINE",
"59 647 LINE",
"51 586 LINE"
);
}
);
width = 216;
}
);
unicode = 012B;
},
{
color = 11;
glyphname = iogonek;
lastChange = "2025-02-14 18:35:57 +0000";
layers = (
{
anchors = (
{
name = bottom;
position = "{73, 0}";
},
{
name = ogonek;
position = "{111, 0}";
},
{
name = top;
position = "{167, 674}";
}
);
layerId = m01;
paths = (
{
closed = 1;
nodes = (
"44 1 LINE",
"-5 -34 OFFCURVE",
"-21 -62 OFFCURVE",
"-21 -109 CURVE SMOOTH",
"-21 -164 OFFCURVE",
"20 -188 OFFCURVE",
"80 -188 CURVE SMOOTH",
"92 -188 OFFCURVE",
"106 -187 OFFCURVE",
"120 -185 CURVE",
"126 -124 LINE",
"117 -127 OFFCURVE",
"108 -129 OFFCURVE",
"97 -129 CURVE SMOOTH",
"70 -129 OFFCURVE",
"43 -117 OFFCURVE",
"43 -91 CURVE SMOOTH",
"43 -60 OFFCURVE",
"68 -31 OFFCURVE",
"112 -1 CURVE",
"181 505 LINE",
"105 505 LINE",
"35 0 LINE"
);
},
{
closed = 1;
nodes = (
"196 591 LINE",
"207 674 LINE",
"127 674 LINE",
"116 591 LINE"
);
}
);
width = 216;
}
);
unicode = 012F;
},
{
glyphname = j;
lastChange = "2025-02-14 18:34:36 +0000";
layers = (
{
layerId = m01;
paths = (
{
closed = 1;
nodes = (
"-32 -190 LINE SMOOTH",
"56 -190 OFFCURVE",
"82 -169 OFFCURVE",
"98 -56 CURVE SMOOTH",
"176 505 LINE",
"100 505 LINE",
"20 -67 LINE SMOOTH",
"12 -122 OFFCURVE",
"1 -126 OFFCURVE",
"-55 -126 CURVE",
"-62 -190 LINE"
);
},
{
closed = 1;
nodes = (
"201 645 LINE",
"213 727 LINE",
"127 727 LINE",
"115 645 LINE"
);
}
);
vertWidth = 1200;
width = 211;
}
);
note = j;
rightMetricsKey = d;
unicode = 006A;
},
{
glyphname = k;
lastChange = "2025-02-14 18:34:36 +0000";
layers = (
{
anchors = (
{
name = bottom;
position = "{204, 0}";
},
{
name = top;
position = "{251, 505}";
}
);
layerId = m01;
paths = (
{
closed = 1;
nodes = (
"106 0 LINE",
"146 284 LINE",
"292 0 LINE",
"386 0 LINE",
"236 285 LINE",
"429 505 LINE",
"336 505 LINE",
"147 298 LINE",
"208 727 LINE",
"132 727 LINE",
"30 0 LINE"
);
}
);
vertWidth = 1200;
width = 432;
}
);
leftMetricsKey = n;
note = k;
rightKerningGroup = x;
unicode = 006B;
},
{
color = 11;
glyphname = kcommaaccent;
lastChange = "2025-02-14 18:34:36 +0000";
layers = (
{
anchors = (
{
name = bottom;
position = "{153, -231}";
},
{
name = top;
position = "{251, 505}";
}
);
layerId = m01;
paths = (
{
closed = 1;
nodes = (
"106 0 LINE",
"146 284 LINE",
"292 0 LINE",
"386 0 LINE",
"236 285 LINE",
"429 505 LINE",
"336 505 LINE",
"147 298 LINE",
"208 727 LINE",
"132 727 LINE",
"30 0 LINE"
);
},
{
closed = 1;
nodes = (
"148 -231 LINE",
"235 -65 LINE",
"154 -65 LINE",
"94 -231 LINE"
);
}
);
width = 432;
}
);
rightKerningGroup = x;
unicode = 0137;
},
{
glyphname = l;
lastChange = "2025-02-14 18:34:36 +0000";
layers = (
{
anchors = (
{
name = bottom;
position = "{68, 0}";
},
{
name = center;
position = "{103, 253}";
},
{
name = top;
position = "{170, 727}";
},
{
name = topright;
position = "{227, 505}";
}
);
layerId = m01;
paths = (
{
closed = 1;
nodes = (
"106 0 LINE",
"208 727 LINE",
"132 727 LINE",
"30 0 LINE"
);
}
);
vertWidth = 1200;
width = 206;
}
);
leftMetricsKey = n;
note = l;
rightMetricsKey = d;
unicode = 006C;
},
{
color = 11;
glyphname = lacute;
lastChange = "2025-02-14 18:34:36 +0000";
layers = (
{
anchors = (
{
name = bottom;
position = "{68, 0}";
},
{
name = center;
position = "{103, 253}";
},
{
name = top;
position = "{201, 949}";
},
{
name = topright;
position = "{227, 505}";
}
);
layerId = m01;
paths = (
{
closed = 1;
nodes = (
"106 0 LINE",
"208 727 LINE",
"132 727 LINE",
"30 0 LINE"
);
},
{
closed = 1;
nodes = (
"215 808 LINE",
"355 949 LINE",
"255 949 LINE",
"146 808 LINE"
);
}
);
width = 206;
}
);
unicode = 013A;
},
{
color = 11;
glyphname = lcaron;
lastChange = "2025-02-14 18:34:36 +0000";
layers = (
{
anchors = (
{
name = bottom;
position = "{68, 0}";
},
{
name = center;
position = "{103, 253}";
},
{
name = top;
position = "{170, 727}";
},
{
name = topright;
position = "{227, 505}";
}
);
layerId = m01;
paths = (
{
closed = 1;
nodes = (
"106 0 LINE",
"208 727 LINE",
"132 727 LINE",
"30 0 LINE"
);
},
{
closed = 1;
nodes = (
"309 561 LINE",
"396 727 LINE",
"315 727 LINE",
"255 561 LINE"
);
}
);
width = 319;
}
);
rightMetricsKey = dcaron;
unicode = 013E;
},
{
color = 11;
glyphname = lcommaaccent;
lastChange = "2025-02-14 18:34:36 +0000";
layers = (
{
anchors = (
{
name = bottom;
position = "{17, -231}";
},
{
name = center;
position = "{103, 253}";
},
{
name = top;
position = "{170, 727}";
},
{
name = topright;
position = "{227, 505}";
}
);
layerId = m01;
paths = (
{
closed = 1;
nodes = (
"106 0 LINE",
"208 727 LINE",
"132 727 LINE",
"30 0 LINE"
);
},
{
closed = 1;
nodes = (
"12 -231 LINE",
"99 -65 LINE",
"18 -65 LINE",
"-42 -231 LINE"
);
}
);
width = 206;
}
);
unicode = 013C;
},
{
glyphname = lslash;
lastChange = "2025-02-14 18:34:36 +0000";
layers = (
{
anchors = (
{
name = bottom;
position = "{68, 0}";
},
{
name = center;
position = "{103, 253}";
},
{
name = top;
position = "{170, 727}";
},
{
name = topright;
position = "{227, 505}";
}
);
layerId = m01;
paths = (
{
closed = 1;
nodes = (
"162 405 LINE",
"208 727 LINE",
"132 727 LINE",
"79 358 LINE",
"9 317 LINE",
"0 251 LINE",
"71 292 LINE",
"30 0 LINE",
"106 0 LINE",
"154 339 LINE",
"224 380 LINE",
"233 446 LINE"
);
}
);
width = 206;
}
);
unicode = 0142;
},
{
glyphname = m;
lastChange = "2025-02-14 18:35:57 +0000";
layers = (
{
background = {
paths = (
{
closed = 1;
nodes = (
"393 430 LINE",
"432 430 LINE",
"432 455 LINE",
"393 455 LINE"
);
},
{
closed = 1;
nodes = (
"393 262 LINE",
"416 262 LINE",
"416 435 LINE",
"393 435 LINE"
);
},
{
closed = 1;
nodes = (
"686 310 LINE SMOOTH",
"686 460 OFFCURVE",
"643 515 OFFCURVE",
"548 515 CURVE SMOOTH",
"443 515 OFFCURVE",
"395 439 OFFCURVE",
"395 310 CURVE SMOOTH",
"395 262 LINE",
"416 262 LINE",
"416 300 LINE SMOOTH",
"416 390 OFFCURVE",
"443 460 OFFCURVE",
"513 460 CURVE SMOOTH",
"603 460 OFFCURVE",
"610 400 OFFCURVE",
"610 300 CURVE SMOOTH",
"610 0 LINE",
"686 0 LINE"
);
}
);
};
layerId = m01;
paths = (
{
closed = 1;
nodes = (
"30 0 LINE",
"106 0 LINE",
"147 298 LINE SMOOTH",
"160 388 OFFCURVE",
"199 460 OFFCURVE",
"270 460 CURVE SMOOTH",
"324 460 OFFCURVE",
"347 424 OFFCURVE",
"347 359 CURVE SMOOTH",
"347 342 OFFCURVE",
"345 323 OFFCURVE",
"342 302 CURVE SMOOTH",
"300 0 LINE",
"376 0 LINE",
"419 308 LINE SMOOTH",
"430 388 OFFCURVE",
"473 460 OFFCURVE",
"544 460 CURVE SMOOTH",
"607 460 OFFCURVE",
"624 431 OFFCURVE",
"624 379 CURVE SMOOTH",
"624 357 OFFCURVE",
"621 332 OFFCURVE",
"617 302 CURVE SMOOTH",
"575 0 LINE",
"651 0 LINE",
"694 308 LINE SMOOTH",
"698 335 OFFCURVE",
"700 360 OFFCURVE",
"700 383 CURVE SMOOTH",
"700 467 OFFCURVE",
"670 515 OFFCURVE",
"582 515 CURVE SMOOTH",
"510 515 OFFCURVE",
"455 486 OFFCURVE",
"418 429 CURVE",
"405 488 OFFCURVE",
"364 515 OFFCURVE",
"302 515 CURVE SMOOTH",
"248 515 OFFCURVE",
"208 496 OFFCURVE",
"179 457 CURVE",
"169 455 LINE",
"176 505 LINE",
"100 505 LINE"
);
}
);
vertWidth = 1200;
width = 746;
}
);
leftKerningGroup = r;
leftMetricsKey = n;
note = m;
rightKerningGroup = n;
rightMetricsKey = n;
unicode = 006D;
},
{
color = 3;
glyphname = n;
lastChange = "2025-02-14 18:35:57 +0000";
layers = (
{
anchors = (
{
name = bottom;
position = "{206, 0}";
},
{
name = top;
position = "{276, 505}";
}
);
layerId = m01;
paths = (
{
closed = 1;
nodes = (
"30 0 LINE",
"106 0 LINE",
"147 298 LINE SMOOTH",
"160 388 OFFCURVE",
"199 460 OFFCURVE",
"270 460 CURVE SMOOTH",
"332 460 OFFCURVE",
"349 432 OFFCURVE",
"349 381 CURVE SMOOTH",
"349 358 OFFCURVE",
"346 332 OFFCURVE",
"342 302 CURVE SMOOTH",
"300 0 LINE",
"376 0 LINE",
"419 308 LINE SMOOTH",
"423 335 OFFCURVE",
"425 359 OFFCURVE",
"425 380 CURVE SMOOTH",
"425 477 OFFCURVE",
"386 515 OFFCURVE",
"307 515 CURVE SMOOTH",
"253 515 OFFCURVE",
"211 496 OFFCURVE",
"181 457 CURVE",
"169 455 LINE",
"176 505 LINE",
"100 505 LINE"
);
}
);
vertWidth = 1200;
width = 471;
}
);
leftKerningGroup = r;
note = n;
rightKerningGroup = n;
unicode = 006E;
},
{
color = 11;
glyphname = nacute;
lastChange = "2025-02-14 18:35:57 +0000";
layers = (
{
anchors = (
{
name = bottom;
position = "{206, 0}";
},
{
name = top;
position = "{308, 727}";
}
);
layerId = m01;
paths = (
{
closed = 1;
nodes = (
"30 0 LINE",
"106 0 LINE",
"147 298 LINE SMOOTH",
"160 388 OFFCURVE",
"199 460 OFFCURVE",
"270 460 CURVE SMOOTH",
"332 460 OFFCURVE",
"349 432 OFFCURVE",
"349 381 CURVE SMOOTH",
"349 358 OFFCURVE",
"346 332 OFFCURVE",
"342 302 CURVE SMOOTH",
"300 0 LINE",
"376 0 LINE",
"419 308 LINE SMOOTH",
"423 335 OFFCURVE",
"425 359 OFFCURVE",
"425 380 CURVE SMOOTH",
"425 477 OFFCURVE",
"386 515 OFFCURVE",
"307 515 CURVE SMOOTH",
"253 515 OFFCURVE",
"211 496 OFFCURVE",
"181 457 CURVE",
"169 455 LINE",
"176 505 LINE",
"100 505 LINE"
);
},
{
closed = 1;
nodes = (
"321 586 LINE",
"462 727 LINE",
"362 727 LINE",
"253 586 LINE"
);
}
);
width = 471;
}
);
leftKerningGroup = r;
rightKerningGroup = n;
unicode = 0144;
},
{
color = 11;
glyphname = ncaron;
lastChange = "2025-02-14 18:35:57 +0000";
layers = (
{
anchors = (
{
name = bottom;
position = "{206, 0}";
},
{
name = top;
position = "{308, 727}";
}
);
hints = (
{
horizontal = 1;
place = "{551, 106}";
type = Stem;
},
{
place = "{60, 257}";
type = Stem;
}
);
layerId = m01;
paths = (
{
closed = 1;
nodes = (
"30 0 LINE",
"106 0 LINE",
"147 298 LINE SMOOTH",
"160 388 OFFCURVE",
"199 460 OFFCURVE",
"270 460 CURVE SMOOTH",
"332 460 OFFCURVE",
"349 432 OFFCURVE",
"349 381 CURVE SMOOTH",
"349 358 OFFCURVE",
"346 332 OFFCURVE",
"342 302 CURVE SMOOTH",
"300 0 LINE",
"376 0 LINE",
"419 308 LINE SMOOTH",
"423 335 OFFCURVE",
"425 359 OFFCURVE",
"425 380 CURVE SMOOTH",
"425 477 OFFCURVE",
"386 515 OFFCURVE",
"307 515 CURVE SMOOTH",
"253 515 OFFCURVE",
"211 496 OFFCURVE",
"181 457 CURVE",
"169 455 LINE",
"176 505 LINE",
"100 505 LINE"
);
},
{
closed = 1;
nodes = (
"247 586 LINE",
"329 586 LINE",
"439 727 LINE",
"363 727 LINE",
"293 633 LINE",
"251 727 LINE",
"177 727 LINE"
);
}
);
width = 471;
}
);
leftKerningGroup = r;
rightKerningGroup = n;
unicode = 0148;
},
{
color = 11;
glyphname = ncommaaccent;
lastChange = "2025-02-14 18:35:57 +0000";
layers = (
{
anchors = (
{
name = bottom;
position = "{155, -231}";
},
{
name = top;
position = "{276, 505}";
}
);
layerId = m01;
paths = (
{
closed = 1;
nodes = (
"30 0 LINE",
"106 0 LINE",
"147 298 LINE SMOOTH",
"160 388 OFFCURVE",
"199 460 OFFCURVE",
"270 460 CURVE SMOOTH",
"332 460 OFFCURVE",
"349 432 OFFCURVE",
"349 381 CURVE SMOOTH",
"349 358 OFFCURVE",
"346 332 OFFCURVE",
"342 302 CURVE SMOOTH",
"300 0 LINE",
"376 0 LINE",
"419 308 LINE SMOOTH",
"423 335 OFFCURVE",
"425 359 OFFCURVE",
"425 380 CURVE SMOOTH",
"425 477 OFFCURVE",
"386 515 OFFCURVE",
"307 515 CURVE SMOOTH",
"253 515 OFFCURVE",
"211 496 OFFCURVE",
"181 457 CURVE",
"169 455 LINE",
"176 505 LINE",
"100 505 LINE"
);
},
{
closed = 1;
nodes = (
"150 -231 LINE",
"237 -65 LINE",
"156 -65 LINE",
"96 -231 LINE"
);
}
);
width = 471;
}
);
leftKerningGroup = r;
rightKerningGroup = n;
unicode = 0146;
},
{
glyphname = eng;
lastChange = "2025-02-14 18:35:57 +0000";
layers = (
{
anchors = (
{
name = bottom;
position = "{206, 0}";
},
{
name = top;
position = "{276, 505}";
}
);
layerId = m01;
paths = (
{
closed = 1;
nodes = (
"238 -190 LINE SMOOTH",
"326 -190 OFFCURVE",
"352 -169 OFFCURVE",
"368 -56 CURVE SMOOTH",
"419 308 LINE SMOOTH",
"423 335 OFFCURVE",
"425 359 OFFCURVE",
"425 380 CURVE SMOOTH",
"425 477 OFFCURVE",
"386 515 OFFCURVE",
"307 515 CURVE SMOOTH",
"253 515 OFFCURVE",
"211 496 OFFCURVE",
"181 457 CURVE",
"169 455 LINE",
"176 505 LINE",
"100 505 LINE",
"30 0 LINE",
"106 0 LINE",
"147 298 LINE SMOOTH",
"160 388 OFFCURVE",
"199 460 OFFCURVE",
"270 460 CURVE SMOOTH",
"332 460 OFFCURVE",
"349 432 OFFCURVE",
"349 381 CURVE SMOOTH",
"349 358 OFFCURVE",
"346 332 OFFCURVE",
"342 302 CURVE SMOOTH",
"290 -67 LINE SMOOTH",
"282 -122 OFFCURVE",
"273 -126 OFFCURVE",
"217 -126 CURVE",
"210 -190 LINE"
);
}
);
width = 481;
}
);
leftKerningGroup = r;
rightKerningGroup = n;
unicode = 014B;
},
{
color = 11;
glyphname = ntilde;
lastChange = "2025-02-14 18:36:02 +0000";
layers = (
{
anchors = (
{
name = bottom;
position = "{206, 0}";
},
{
name = top;
position = "{304, 702}";
}
);
layerId = m01;
paths = (
{
closed = 1;
nodes = (
"30 0 LINE",
"106 0 LINE",
"147 298 LINE SMOOTH",
"160 388 OFFCURVE",
"199 460 OFFCURVE",
"270 460 CURVE SMOOTH",
"332 460 OFFCURVE",
"349 432 OFFCURVE",
"349 381 CURVE SMOOTH",
"349 358 OFFCURVE",
"346 332 OFFCURVE",
"342 302 CURVE SMOOTH",
"300 0 LINE",
"376 0 LINE",
"419 308 LINE SMOOTH",
"423 335 OFFCURVE",
"425 359 OFFCURVE",
"425 380 CURVE SMOOTH",
"425 477 OFFCURVE",
"386 515 OFFCURVE",
"307 515 CURVE SMOOTH",
"253 515 OFFCURVE",
"211 496 OFFCURVE",
"181 457 CURVE",
"169 455 LINE",
"176 505 LINE",
"100 505 LINE"
);
},
{
closed = 1;
nodes = (
"184 584 LINE",
"190 609 OFFCURVE",
"214 631 OFFCURVE",
"240 631 CURVE SMOOTH",
"275 631 OFFCURVE",
"296 593 OFFCURVE",
"344 593 CURVE SMOOTH",
"369 593 OFFCURVE",
"392 603 OFFCURVE",
"414 623 CURVE",
"433 643 OFFCURVE",
"447 671 OFFCURVE",
"454 700 CURVE",
"402 704 LINE",
"395 674 OFFCURVE",
"378 657 OFFCURVE",
"350 657 CURVE SMOOTH",
"309 657 OFFCURVE",
"305 694 OFFCURVE",
"249 694 CURVE SMOOTH",
"192 694 OFFCURVE",
"155 657 OFFCURVE",
"138 588 CURVE"
);
}
);
width = 471;
}
);
leftKerningGroup = r;
rightKerningGroup = n;
unicode = 00F1;
},
{
color = 3;
glyphname = o;
lastChange = "2025-02-14 18:35:57 +0000";
layers = (
{
anchors = (
{
name = bottom;
position = "{188, 0}";
},
{
name = center;
position = "{225, 253}";
},
{
name = ogonek;
position = "{372, 10}";
},
{
name = top;
position = "{258, 505}";
},
{
name = topright;
position = "{466, 505}";
}
);
layerId = m01;
paths = (
{
closed = 1;
nodes = (
"308 -10 OFFCURVE",
"379 60 OFFCURVE",
"397 190 CURVE SMOOTH",
"414 308 LINE SMOOTH",
"416 324 OFFCURVE",
"417 340 OFFCURVE",
"417 354 CURVE SMOOTH",
"417 456 OFFCURVE",
"363 515 OFFCURVE",
"257 515 CURVE SMOOTH",
"138 515 OFFCURVE",
"72 442 OFFCURVE",
"53 312 CURVE SMOOTH",
"37 194 LINE SMOOTH",
"35 177 OFFCURVE",
"33 160 OFFCURVE",
"33 145 CURVE SMOOTH",
"33 46 OFFCURVE",
"84 -10 OFFCURVE",
"189 -10 CURVE SMOOTH"
);
},
{
closed = 1;
nodes = (
"129 308 LINE SMOOTH",
"141 398 OFFCURVE",
"184 460 OFFCURVE",
"255 460 CURVE SMOOTH",
"313 460 OFFCURVE",
"341 419 OFFCURVE",
"341 353 CURVE SMOOTH",
"341 340 OFFCURVE",
"340 327 OFFCURVE",
"338 312 CURVE SMOOTH",
"322 193 LINE SMOOTH",
"309 103 OFFCURVE",
"262 45 OFFCURVE",
"191 45 CURVE SMOOTH",
"134 45 OFFCURVE",
"109 82 OFFCURVE",
"109 145 CURVE SMOOTH",
"109 158 OFFCURVE",
"110 173 OFFCURVE",
"112 189 CURVE SMOOTH"
);
}
);
vertWidth = 1200;
width = 451;
}
);
leftKerningGroup = o;
note = o;
rightKerningGroup = o;
unicode = 006F;
},
{
color = 11;
glyphname = oacute;
lastChange = "2025-02-14 18:35:57 +0000";
layers = (
{
anchors = (
{
name = bottom;
position = "{188, 0}";
},
{
name = center;
position = "{225, 253}";
},
{
name = ogonek;
position = "{372, 10}";
},
{
name = top;
position = "{290, 727}";
},
{
name = topright;
position = "{466, 505}";
}
);
layerId = m01;
paths = (
{
closed = 1;
nodes = (
"308 -10 OFFCURVE",
"379 60 OFFCURVE",
"397 190 CURVE SMOOTH",
"414 308 LINE SMOOTH",
"416 324 OFFCURVE",
"417 340 OFFCURVE",
"417 354 CURVE SMOOTH",
"417 456 OFFCURVE",
"363 515 OFFCURVE",
"257 515 CURVE SMOOTH",
"138 515 OFFCURVE",
"72 442 OFFCURVE",
"53 312 CURVE SMOOTH",
"37 194 LINE SMOOTH",
"35 177 OFFCURVE",
"33 160 OFFCURVE",
"33 145 CURVE SMOOTH",
"33 46 OFFCURVE",
"84 -10 OFFCURVE",
"189 -10 CURVE SMOOTH"
);
},
{
closed = 1;
nodes = (
"129 308 LINE SMOOTH",
"141 398 OFFCURVE",
"184 460 OFFCURVE",
"255 460 CURVE SMOOTH",
"313 460 OFFCURVE",
"341 419 OFFCURVE",
"341 353 CURVE SMOOTH",
"341 340 OFFCURVE",
"340 327 OFFCURVE",
"338 312 CURVE SMOOTH",
"322 193 LINE SMOOTH",
"309 103 OFFCURVE",
"262 45 OFFCURVE",
"191 45 CURVE SMOOTH",
"134 45 OFFCURVE",
"109 82 OFFCURVE",
"109 145 CURVE SMOOTH",
"109 158 OFFCURVE",
"110 173 OFFCURVE",
"112 189 CURVE SMOOTH"
);
},
{
closed = 1;
nodes = (
"303 586 LINE",
"444 727 LINE",
"344 727 LINE",
"235 586 LINE"
);
}
);
width = 451;
}
);
leftKerningGroup = o;
rightKerningGroup = o;
unicode = 00F3;
},
{
color = 11;
glyphname = ocircumflex;
lastChange = "2025-02-14 18:35:57 +0000";
layers = (
{
anchors = (
{
name = bottom;
position = "{188, 0}";
},
{
name = center;
position = "{225, 253}";
},
{
name = ogonek;
position = "{372, 10}";
},
{
name = top;
position = "{290, 727}";
},
{
name = topright;
position = "{466, 505}";
}
);
layerId = m01;
paths = (
{
closed = 1;
nodes = (
"308 -10 OFFCURVE",
"379 60 OFFCURVE",
"397 190 CURVE SMOOTH",
"414 308 LINE SMOOTH",
"416 324 OFFCURVE",
"417 340 OFFCURVE",
"417 354 CURVE SMOOTH",
"417 456 OFFCURVE",
"363 515 OFFCURVE",
"257 515 CURVE SMOOTH",
"138 515 OFFCURVE",
"72 442 OFFCURVE",
"53 312 CURVE SMOOTH",
"37 194 LINE SMOOTH",
"35 177 OFFCURVE",
"33 160 OFFCURVE",
"33 145 CURVE SMOOTH",
"33 46 OFFCURVE",
"84 -10 OFFCURVE",
"189 -10 CURVE SMOOTH"
);
},
{
closed = 1;
nodes = (
"214 586 LINE",
"284 680 LINE",
"326 586 LINE",
"400 586 LINE",
"330 727 LINE",
"248 727 LINE",
"138 586 LINE"
);
},
{
closed = 1;
nodes = (
"129 308 LINE SMOOTH",
"141 398 OFFCURVE",
"184 460 OFFCURVE",
"255 460 CURVE SMOOTH",
"313 460 OFFCURVE",
"341 419 OFFCURVE",
"341 353 CURVE SMOOTH",
"341 340 OFFCURVE",
"340 327 OFFCURVE",
"338 312 CURVE SMOOTH",
"322 193 LINE SMOOTH",
"309 103 OFFCURVE",
"262 45 OFFCURVE",
"191 45 CURVE SMOOTH",
"134 45 OFFCURVE",
"109 82 OFFCURVE",
"109 145 CURVE SMOOTH",
"109 158 OFFCURVE",
"110 173 OFFCURVE",
"112 189 CURVE SMOOTH"
);
}
);
width = 451;
}
);
leftKerningGroup = o;
rightKerningGroup = o;
unicode = 00F4;
},
{
color = 11;
glyphname = odieresis;
lastChange = "2025-02-14 18:35:57 +0000";
layers = (
{
anchors = (
{
name = bottom;
position = "{188, 0}";
},
{
name = center;
position = "{225, 253}";
},
{
name = ogonek;
position = "{372, 10}";
},
{
name = top;
position = "{282, 674}";
},
{
name = topright;
position = "{466, 505}";
}
);
hints = (
{
horizontal = 1;
place = "{576, 48}";
type = Stem;
},
{
place = "{238, 45}";
type = Stem;
},
{
place = "{58, 45}";
type = Stem;
},
{
horizontal = 1;
place = "{576, 48}";
type = Stem;
},
{
place = "{227, 45}";
type = Stem;
},
{
place = "{47, 45}";
type = Stem;
}
);
layerId = m01;
paths = (
{
closed = 1;
nodes = (
"308 -10 OFFCURVE",
"379 60 OFFCURVE",
"397 190 CURVE SMOOTH",
"414 308 LINE SMOOTH",
"416 324 OFFCURVE",
"417 340 OFFCURVE",
"417 354 CURVE SMOOTH",
"417 456 OFFCURVE",
"363 515 OFFCURVE",
"257 515 CURVE SMOOTH",
"138 515 OFFCURVE",
"72 442 OFFCURVE",
"53 312 CURVE SMOOTH",
"37 194 LINE SMOOTH",
"35 177 OFFCURVE",
"33 160 OFFCURVE",
"33 145 CURVE SMOOTH",
"33 46 OFFCURVE",
"84 -10 OFFCURVE",
"189 -10 CURVE SMOOTH"
);
},
{
closed = 1;
nodes = (
"221 591 LINE",
"232 674 LINE",
"152 674 LINE",
"141 591 LINE"
);
},
{
closed = 1;
nodes = (
"129 308 LINE SMOOTH",
"141 398 OFFCURVE",
"184 460 OFFCURVE",
"255 460 CURVE SMOOTH",
"313 460 OFFCURVE",
"341 419 OFFCURVE",
"341 353 CURVE SMOOTH",
"341 340 OFFCURVE",
"340 327 OFFCURVE",
"338 312 CURVE SMOOTH",
"322 193 LINE SMOOTH",
"309 103 OFFCURVE",
"262 45 OFFCURVE",
"191 45 CURVE SMOOTH",
"134 45 OFFCURVE",
"109 82 OFFCURVE",
"109 145 CURVE SMOOTH",
"109 158 OFFCURVE",
"110 173 OFFCURVE",
"112 189 CURVE SMOOTH"
);
},
{
closed = 1;
nodes = (
"401 591 LINE",
"412 674 LINE",
"332 674 LINE",
"321 591 LINE"
);
}
);
width = 451;
}
);
leftKerningGroup = o;
rightKerningGroup = o;
unicode = 00F6;
},
{
color = 11;
glyphname = ograve;
lastChange = "2025-02-14 18:35:57 +0000";
layers = (
{
anchors = (
{
name = bottom;
position = "{188, 0}";
},
{
name = center;
position = "{225, 253}";
},
{
name = ogonek;
position = "{372, 10}";
},
{
name = top;
position = "{290, 727}";
},
{
name = topright;
position = "{466, 505}";
}
);
layerId = m01;
paths = (
{
closed = 1;
nodes = (
"308 -10 OFFCURVE",
"379 60 OFFCURVE",
"397 190 CURVE SMOOTH",
"414 308 LINE SMOOTH",
"416 324 OFFCURVE",
"417 340 OFFCURVE",
"417 354 CURVE SMOOTH",
"417 456 OFFCURVE",
"363 515 OFFCURVE",
"257 515 CURVE SMOOTH",
"138 515 OFFCURVE",
"72 442 OFFCURVE",
"53 312 CURVE SMOOTH",
"37 194 LINE SMOOTH",
"35 177 OFFCURVE",
"33 160 OFFCURVE",
"33 145 CURVE SMOOTH",
"33 46 OFFCURVE",
"84 -10 OFFCURVE",
"189 -10 CURVE SMOOTH"
);
},
{
closed = 1;
nodes = (
"237 586 LINE",
"303 586 LINE",
"234 727 LINE",
"136 727 LINE"
);
},
{
closed = 1;
nodes = (
"129 308 LINE SMOOTH",
"141 398 OFFCURVE",
"184 460 OFFCURVE",
"255 460 CURVE SMOOTH",
"313 460 OFFCURVE",
"341 419 OFFCURVE",
"341 353 CURVE SMOOTH",
"341 340 OFFCURVE",
"340 327 OFFCURVE",
"338 312 CURVE SMOOTH",
"322 193 LINE SMOOTH",
"309 103 OFFCURVE",
"262 45 OFFCURVE",
"191 45 CURVE SMOOTH",
"134 45 OFFCURVE",
"109 82 OFFCURVE",
"109 145 CURVE SMOOTH",
"109 158 OFFCURVE",
"110 173 OFFCURVE",
"112 189 CURVE SMOOTH"
);
}
);
width = 451;
}
);
leftKerningGroup = o;
rightKerningGroup = o;
unicode = 00F2;
},
{
color = 11;
glyphname = ohungarumlaut;
lastChange = "2025-02-14 18:35:57 +0000";
layers = (
{
anchors = (
{
name = bottom;
position = "{188, 0}";
},
{
name = center;
position = "{225, 253}";
},
{
name = ogonek;
position = "{372, 10}";
},
{
name = top;
position = "{324, 727}";
},
{
name = topright;
position = "{466, 505}";
}
);
hints = (
{
horizontal = 1;
place = "{551, 106}";
type = Stem;
}
);
layerId = m01;
paths = (
{
closed = 1;
nodes = (
"308 -10 OFFCURVE",
"379 60 OFFCURVE",
"397 190 CURVE SMOOTH",
"414 308 LINE SMOOTH",
"416 324 OFFCURVE",
"417 340 OFFCURVE",
"417 354 CURVE SMOOTH",
"417 456 OFFCURVE",
"363 515 OFFCURVE",
"257 515 CURVE SMOOTH",
"138 515 OFFCURVE",
"72 442 OFFCURVE",
"53 312 CURVE SMOOTH",
"37 194 LINE SMOOTH",
"35 177 OFFCURVE",
"33 160 OFFCURVE",
"33 145 CURVE SMOOTH",
"33 46 OFFCURVE",
"84 -10 OFFCURVE",
"189 -10 CURVE SMOOTH"
);
},
{
closed = 1;
nodes = (
"218 586 LINE",
"359 727 LINE",
"259 727 LINE",
"150 586 LINE"
);
},
{
closed = 1;
nodes = (
"129 308 LINE SMOOTH",
"141 398 OFFCURVE",
"184 460 OFFCURVE",
"255 460 CURVE SMOOTH",
"313 460 OFFCURVE",
"341 419 OFFCURVE",
"341 353 CURVE SMOOTH",
"341 340 OFFCURVE",
"340 327 OFFCURVE",
"338 312 CURVE SMOOTH",
"322 193 LINE SMOOTH",
"309 103 OFFCURVE",
"262 45 OFFCURVE",
"191 45 CURVE SMOOTH",
"134 45 OFFCURVE",
"109 82 OFFCURVE",
"109 145 CURVE SMOOTH",
"109 158 OFFCURVE",
"110 173 OFFCURVE",
"112 189 CURVE SMOOTH"
);
},
{
closed = 1;
nodes = (
"365 586 LINE",
"506 727 LINE",
"406 727 LINE",
"297 586 LINE"
);
}
);
width = 451;
}
);
leftKerningGroup = o;
rightKerningGroup = o;
unicode = 0151;
},
